<svg version="1.1" xmlns="http://www.w3.org/2000/svg" viewBox="0 0 1908.1504265326246 657.438884368785" width="1908.1504265326246" height="657.438884368785" filter="invert(93%) hue-rotate(180deg)">
  <!-- svg-source:excalidraw -->
  
  <defs>
    <style>
      @font-face {
        font-family: "Virgil";
        src: url("https://excalidraw.com/Virgil.woff2");
      }
      @font-face {
        font-family: "Cascadia";
        src: url("https://excalidraw.com/Cascadia.woff2");
      }
    </style>
  </defs>
  <rect x="0" y="0" width="1908.1504265326246" height="657.438884368785" fill="#000"></rect><g stroke-linecap="round"><g transform="translate(11.618648725375579 264.6592998525061) rotate(0 -0.42465891848701176 53.88204818330706)"><path d="M-1.19 -0.64 C-1.62 17.44, -1.47 90.44, -1.62 108.41 M0.38 1.63 C0.28 19.35, 0.79 88.77, 0.77 106.5" stroke="#000000" stroke-width="1" fill="none"></path></g></g><g stroke-linecap="round"><g transform="translate(165.4016999992482 144.69586299218713) rotate(0 0 52.900542866921526)"><path d="M0 0 C0 17.63, 0 88.17, 0 105.8 M0 0 C0 17.63, 0 88.17, 0 105.8" stroke="#ffff" stroke-width="4" fill="none"></path></g></g><g stroke-linecap="round"><g transform="translate(171.22561297542302 399.4920556998365) rotate(0 0 52.90054286692151)"><path d="M0 0 C0 17.63, 0 88.17, 0 105.8 M0 0 C0 17.63, 0 88.17, 0 105.8" stroke="#ffff" stroke-width="4" fill="none"></path></g></g><g transform="translate(15.921266944093986 173.55129733732366) rotate(0 53 12.5)"><text x="0" y="18" font-family="Virgil, Segoe UI Emoji" font-size="20px" fill="#ffff" text-anchor="start" style="white-space: pre;" direction="ltr">vino blanco</text></g><g transform="translate(33.39300587261846 440.48064207867066) rotate(0 47.5 12.5)"><text x="0" y="18" font-family="Virgil, Segoe UI Emoji" font-size="20px" fill="#ffff" text-anchor="start" style="white-space: pre;" direction="ltr">vino tinto</text></g><g stroke-linecap="round"><g transform="translate(170.2549608127274 189.3458624761943) rotate(0 45.135325565355004 -0.485326081347921)"><path d="M0 0 C15.05 -0.16, 75.23 -0.81, 90.27 -0.97 M0 0 C15.05 -0.16, 75.23 -0.81, 90.27 -0.97" stroke="#ffff" stroke-width="4" fill="none"></path></g><g transform="translate(170.2549608127274 189.3458624761943) rotate(0 45.135325565355004 -0.485326081347921)"><path d="M90.27 -0.97 L76.74 5.51 L76.61 -7.16 L90.27 -0.97" stroke="none" stroke-width="0" fill="#ffff" fill-rule="evenodd"></path><path d="M90.27 -0.97 C87.11 0.54, 83.95 2.06, 76.74 5.51 M90.27 -0.97 C86.26 0.95, 82.25 2.87, 76.74 5.51 M76.74 5.51 C76.69 0.51, 76.64 -4.49, 76.61 -7.16 M76.74 5.51 C76.71 2.44, 76.68 -0.62, 76.61 -7.16 M76.61 -7.16 C82.06 -4.69, 87.51 -2.22, 90.27 -0.97 M76.61 -7.16 C80.98 -5.18, 85.35 -3.2, 90.27 -0.97 M90.27 -0.97 C90.27 -0.97, 90.27 -0.97, 90.27 -0.97 M90.27 -0.97 C90.27 -0.97, 90.27 -0.97, 90.27 -0.97" stroke="#ffff" stroke-width="4" fill="none"></path></g></g><g stroke-linecap="round"><g transform="translate(174.62289554485847 455.78988113619334) rotate(0 45.135325565355004 -0.485326081347921)"><path d="M0 0 C15.05 -0.16, 75.23 -0.81, 90.27 -0.97 M0 0 C15.05 -0.16, 75.23 -0.81, 90.27 -0.97" stroke="#ffff" stroke-width="4" fill="none"></path></g><g transform="translate(174.62289554485847 455.78988113619334) rotate(0 45.135325565355004 -0.485326081347921)"><path d="M90.27 -0.97 L76.74 5.51 L76.61 -7.16 L90.27 -0.97" stroke="none" stroke-width="0" fill="#ffff" fill-rule="evenodd"></path><path d="M90.27 -0.97 C86.42 0.87, 82.57 2.72, 76.74 5.51 M90.27 -0.97 C87.4 0.41, 84.53 1.78, 76.74 5.51 M76.74 5.51 C76.71 2.45, 76.68 -0.61, 76.61 -7.16 M76.74 5.51 C76.7 1.03, 76.65 -3.46, 76.61 -7.16 M76.61 -7.16 C79.48 -5.86, 82.34 -4.56, 90.27 -0.97 M76.61 -7.16 C79.35 -5.92, 82.09 -4.68, 90.27 -0.97 M90.27 -0.97 C90.27 -0.97, 90.27 -0.97, 90.27 -0.97 M90.27 -0.97 C90.27 -0.97, 90.27 -0.97, 90.27 -0.97" stroke="#ffff" stroke-width="4" fill="none"></path></g></g><g stroke-linecap="round" transform="translate(268.2908292450038 167.02086273419073) rotate(0 26.207608392786824 22.81032582335149)"><path d="M52.42 22.81 C52.42 24.13, 52.28 25.47, 52.02 26.77 C51.75 28.07, 51.35 29.37, 50.83 30.61 C50.32 31.85, 49.66 33.07, 48.9 34.22 C48.15 35.36, 47.26 36.46, 46.28 37.47 C45.31 38.48, 44.22 39.44, 43.05 40.28 C41.89 41.13, 40.63 41.9, 39.31 42.56 C38 43.22, 36.6 43.79, 35.17 44.25 C33.75 44.7, 32.25 45.04, 30.76 45.27 C29.26 45.5, 27.72 45.62, 26.21 45.62 C24.69 45.62, 23.15 45.5, 21.66 45.27 C20.16 45.04, 18.67 44.7, 17.24 44.25 C15.82 43.79, 14.42 43.22, 13.1 42.56 C11.79 41.9, 10.52 41.13, 9.36 40.28 C8.2 39.44, 7.11 38.48, 6.13 37.47 C5.16 36.46, 4.27 35.36, 3.51 34.22 C2.75 33.07, 2.1 31.85, 1.58 30.61 C1.06 29.37, 0.66 28.07, 0.4 26.77 C0.13 25.47, 0 24.13, 0 22.81 C0 21.49, 0.13 20.15, 0.4 18.85 C0.66 17.55, 1.06 16.25, 1.58 15.01 C2.1 13.77, 2.75 12.55, 3.51 11.41 C4.27 10.26, 5.16 9.16, 6.13 8.15 C7.11 7.14, 8.2 6.19, 9.36 5.34 C10.52 4.49, 11.79 3.72, 13.1 3.06 C14.42 2.4, 15.82 1.83, 17.24 1.38 C18.67 0.92, 20.16 0.58, 21.66 0.35 C23.15 0.12, 24.69 0, 26.21 0 C27.72 0, 29.26 0.12, 30.76 0.35 C32.25 0.58, 33.75 0.92, 35.17 1.38 C36.6 1.83, 38 2.4, 39.31 3.06 C40.63 3.72, 41.89 4.49, 43.05 5.34 C44.22 6.19, 45.31 7.14, 46.28 8.15 C47.26 9.16, 48.15 10.26, 48.9 11.41 C49.66 12.55, 50.32 13.77, 50.83 15.01 C51.35 16.25, 51.75 17.55, 52.02 18.85 C52.28 20.15, 52.35 22.15, 52.42 22.81 C52.48 23.47, 52.48 22.15, 52.42 22.81" stroke="#ffff" stroke-width="4" fill="none"></path></g><g stroke-linecap="round" transform="translate(274.11474222117863 431.52357706879826) rotate(0 26.207608392786824 22.81032582335149)"><path d="M52.42 22.81 C52.42 24.13, 52.28 25.47, 52.02 26.77 C51.75 28.07, 51.35 29.37, 50.83 30.61 C50.32 31.85, 49.66 33.07, 48.9 34.22 C48.15 35.36, 47.26 36.46, 46.28 37.47 C45.31 38.48, 44.22 39.44, 43.05 40.28 C41.89 41.13, 40.63 41.9, 39.31 42.56 C38 43.22, 36.6 43.79, 35.17 44.25 C33.75 44.7, 32.25 45.04, 30.76 45.27 C29.26 45.5, 27.72 45.62, 26.21 45.62 C24.69 45.62, 23.15 45.5, 21.66 45.27 C20.16 45.04, 18.67 44.7, 17.24 44.25 C15.82 43.79, 14.42 43.22, 13.1 42.56 C11.79 41.9, 10.52 41.13, 9.36 40.28 C8.2 39.44, 7.11 38.48, 6.13 37.47 C5.16 36.46, 4.27 35.36, 3.51 34.22 C2.75 33.07, 2.1 31.85, 1.58 30.61 C1.06 29.37, 0.66 28.07, 0.4 26.77 C0.13 25.47, 0 24.13, 0 22.81 C0 21.49, 0.13 20.15, 0.4 18.85 C0.66 17.55, 1.06 16.25, 1.58 15.01 C2.1 13.77, 2.75 12.55, 3.51 11.41 C4.27 10.26, 5.16 9.16, 6.13 8.15 C7.11 7.14, 8.2 6.19, 9.36 5.34 C10.52 4.49, 11.79 3.72, 13.1 3.06 C14.42 2.4, 15.82 1.83, 17.24 1.38 C18.67 0.92, 20.16 0.58, 21.66 0.35 C23.15 0.12, 24.69 0, 26.21 0 C27.72 0, 29.26 0.12, 30.76 0.35 C32.25 0.58, 33.75 0.92, 35.17 1.38 C36.6 1.83, 38 2.4, 39.31 3.06 C40.63 3.72, 41.89 4.49, 43.05 5.34 C44.22 6.19, 45.31 7.14, 46.28 8.15 C47.26 9.16, 48.15 10.26, 48.9 11.41 C49.66 12.55, 50.32 13.77, 50.83 15.01 C51.35 16.25, 51.75 17.55, 52.02 18.85 C52.28 20.15, 52.35 22.15, 52.42 22.81 C52.48 23.47, 52.48 22.15, 52.42 22.81" stroke="#ffff" stroke-width="4" fill="none"></path></g><g stroke-linecap="round"><g transform="translate(332.3538719829269 187.40455815080267) rotate(0 49.50326029748612 -0.485326081347921)"><path d="M0 0 C16.5 -0.16, 82.51 -0.81, 99.01 -0.97 M0 0 C16.5 -0.16, 82.51 -0.81, 99.01 -0.97" stroke="#ffff" stroke-width="4" fill="none"></path></g><g transform="translate(332.3538719829269 187.40455815080267) rotate(0 49.50326029748612 -0.485326081347921)"><path d="M99.01 -0.97 L85.47 5.5 L85.35 -7.18 L99.01 -0.97" stroke="none" stroke-width="0" fill="#ffff" fill-rule="evenodd"></path><path d="M99.01 -0.97 C95.16 0.87, 91.32 2.7, 85.47 5.5 M99.01 -0.97 C94.35 1.26, 89.69 3.49, 85.47 5.5 M85.47 5.5 C85.43 0.88, 85.38 -3.75, 85.35 -7.18 M85.47 5.5 C85.44 1.9, 85.4 -1.7, 85.35 -7.18 M85.35 -7.18 C90.54 -4.82, 95.73 -2.46, 99.01 -0.97 M85.35 -7.18 C90.5 -4.84, 95.65 -2.5, 99.01 -0.97 M99.01 -0.97 C99.01 -0.97, 99.01 -0.97, 99.01 -0.97 M99.01 -0.97 C99.01 -0.97, 99.01 -0.97, 99.01 -0.97" stroke="#ffff" stroke-width="4" fill="none"></path></g></g><g stroke-linecap="round"><g transform="translate(445.92017501833675 135.95999352792484) rotate(0 0.9706521626957283 50.47391246018199)"><path d="M0 0 C0.16 8.25, 0.65 32.68, 0.97 49.5 C1.29 66.33, 1.78 92.37, 1.94 100.95 M0 0 C0.16 8.25, 0.65 32.68, 0.97 49.5 C1.29 66.33, 1.78 92.37, 1.94 100.95" stroke="#ffff" stroke-width="4" fill="none"></path></g></g><g stroke-linecap="round"><g transform="translate(329.4419154948398 162.6529280020596) rotate(0 49.50326029748612 -0.485326081347921)"><path d="M0 0 C16.5 -0.16, 82.51 -0.81, 99.01 -0.97 M0 0 C16.5 -0.16, 82.51 -0.81, 99.01 -0.97" stroke="#ffff" stroke-width="4" fill="none"></path></g><g transform="translate(329.4419154948398 162.6529280020596) rotate(0 49.50326029748612 -0.485326081347921)"><path d="M99.01 -0.97 L85.47 5.5 L85.35 -7.18 L99.01 -0.97" stroke="none" stroke-width="0" fill="#ffff" fill-rule="evenodd"></path><path d="M99.01 -0.97 C94.52 1.17, 90.04 3.32, 85.47 5.5 M99.01 -0.97 C95.7 0.61, 92.39 2.19, 85.47 5.5 M85.47 5.5 C85.43 1.43, 85.39 -2.63, 85.35 -7.18 M85.47 5.5 C85.43 1.09, 85.39 -3.31, 85.35 -7.18 M85.35 -7.18 C90.12 -5.01, 94.89 -2.84, 99.01 -0.97 M85.35 -7.18 C88.19 -5.89, 91.03 -4.6, 99.01 -0.97 M99.01 -0.97 C99.01 -0.97, 99.01 -0.97, 99.01 -0.97 M99.01 -0.97 C99.01 -0.97, 99.01 -0.97, 99.01 -0.97" stroke="#ffff" stroke-width="4" fill="none"></path></g></g><g stroke-linecap="round"><g transform="translate(330.41256765753565 213.12684046224157) rotate(0 49.50326029748612 -0.485326081347921)"><path d="M0 0 C16.5 -0.16, 82.51 -0.81, 99.01 -0.97 M0 0 C16.5 -0.16, 82.51 -0.81, 99.01 -0.97" stroke="#ffff" stroke-width="4" fill="none"></path></g><g transform="translate(330.41256765753565 213.12684046224157) rotate(0 49.50326029748612 -0.485326081347921)"><path d="M99.01 -0.97 L85.47 5.5 L85.35 -7.18 L99.01 -0.97" stroke="none" stroke-width="0" fill="#ffff" fill-rule="evenodd"></path><path d="M99.01 -0.97 C93.77 1.53, 88.53 4.04, 85.47 5.5 M99.01 -0.97 C94.83 1.03, 90.65 3.03, 85.47 5.5 M85.47 5.5 C85.45 2.5, 85.42 -0.5, 85.35 -7.18 M85.47 5.5 C85.44 2.05, 85.41 -1.4, 85.35 -7.18 M85.35 -7.18 C90.61 -4.79, 95.86 -2.4, 99.01 -0.97 M85.35 -7.18 C90.12 -5.01, 94.88 -2.84, 99.01 -0.97 M99.01 -0.97 C99.01 -0.97, 99.01 -0.97, 99.01 -0.97 M99.01 -0.97 C99.01 -0.97, 99.01 -0.97, 99.01 -0.97" stroke="#ffff" stroke-width="4" fill="none"></path></g></g><g stroke-linecap="round"><g transform="translate(333.32452414562295 418.9050989537529) rotate(0 50.473912460181964 -0.485326081347921)"><path d="M0 0 C16.82 -0.16, 84.12 -0.81, 100.95 -0.97 M0 0 C16.82 -0.16, 84.12 -0.81, 100.95 -0.97" stroke="#ffff" stroke-width="4" fill="none"></path></g><g transform="translate(333.32452414562295 418.9050989537529) rotate(0 50.473912460181964 -0.485326081347921)"><path d="M100.95 -0.97 L87.41 5.5 L87.29 -7.18 L100.95 -0.97" stroke="none" stroke-width="0" fill="#ffff" fill-rule="evenodd"></path><path d="M100.95 -0.97 C96.58 1.12, 92.21 3.2, 87.41 5.5 M100.95 -0.97 C96.3 1.25, 91.66 3.47, 87.41 5.5 M87.41 5.5 C87.37 0.74, 87.32 -4.01, 87.29 -7.18 M87.41 5.5 C87.37 0.56, 87.32 -4.37, 87.29 -7.18 M87.29 -7.18 C90.76 -5.6, 94.22 -4.03, 100.95 -0.97 M87.29 -7.18 C91.22 -5.39, 95.16 -3.6, 100.95 -0.97 M100.95 -0.97 C100.95 -0.97, 100.95 -0.97, 100.95 -0.97 M100.95 -0.97 C100.95 -0.97, 100.95 -0.97, 100.95 -0.97" stroke="#ffff" stroke-width="4" fill="none"></path></g></g><g stroke-linecap="round"><g transform="translate(334.295176308319 446.08335950923544) rotate(0 49.50326029748612 -0.485326081347921)"><path d="M0 0 C16.5 -0.16, 82.51 -0.81, 99.01 -0.97 M0 0 C16.5 -0.16, 82.51 -0.81, 99.01 -0.97" stroke="#ffff" stroke-width="4" fill="none"></path></g><g transform="translate(334.295176308319 446.08335950923544) rotate(0 49.50326029748612 -0.485326081347921)"><path d="M99.01 -0.97 L85.47 5.5 L85.35 -7.18 L99.01 -0.97" stroke="none" stroke-width="0" fill="#ffff" fill-rule="evenodd"></path><path d="M99.01 -0.97 C94.19 1.33, 89.37 3.64, 85.47 5.5 M99.01 -0.97 C95 0.94, 91 2.86, 85.47 5.5 M85.47 5.5 C85.44 1.61, 85.4 -2.28, 85.35 -7.18 M85.47 5.5 C85.45 2.68, 85.42 -0.14, 85.35 -7.18 M85.35 -7.18 C90.52 -4.83, 95.7 -2.47, 99.01 -0.97 M85.35 -7.18 C89.34 -5.36, 93.33 -3.55, 99.01 -0.97 M99.01 -0.97 C99.01 -0.97, 99.01 -0.97, 99.01 -0.97 M99.01 -0.97 C99.01 -0.97, 99.01 -0.97, 99.01 -0.97" stroke="#ffff" stroke-width="4" fill="none"></path></g></g><g stroke-linecap="round"><g transform="translate(336.23648063371024 474.2322722274137) rotate(0 49.50326029748612 -0.485326081347921)"><path d="M0 0 C16.5 -0.16, 82.51 -0.81, 99.01 -0.97 M0 0 C16.5 -0.16, 82.51 -0.81, 99.01 -0.97" stroke="#ffff" stroke-width="4" fill="none"></path></g><g transform="translate(336.23648063371024 474.2322722274137) rotate(0 49.50326029748612 -0.485326081347921)"><path d="M99.01 -0.97 L85.47 5.5 L85.35 -7.18 L99.01 -0.97" stroke="none" stroke-width="0" fill="#ffff" fill-rule="evenodd"></path><path d="M99.01 -0.97 C95.96 0.48, 92.92 1.94, 85.47 5.5 M99.01 -0.97 C95.98 0.48, 92.95 1.92, 85.47 5.5 M85.47 5.5 C85.45 2.6, 85.42 -0.31, 85.35 -7.18 M85.47 5.5 C85.43 1.43, 85.39 -2.63, 85.35 -7.18 M85.35 -7.18 C88.37 -5.8, 91.4 -4.43, 99.01 -0.97 M85.35 -7.18 C89 -5.52, 92.65 -3.86, 99.01 -0.97 M99.01 -0.97 C99.01 -0.97, 99.01 -0.97, 99.01 -0.97 M99.01 -0.97 C99.01 -0.97, 99.01 -0.97, 99.01 -0.97" stroke="#ffff" stroke-width="4" fill="none"></path></g></g><g stroke-linecap="round"><g transform="translate(448.8321315064238 400.9480339438803) rotate(0 0.9706521626957283 50.47391246018199)"><path d="M0 0 C0.16 8.25, 0.65 32.68, 0.97 49.5 C1.29 66.33, 1.78 92.37, 1.94 100.95 M0 0 C0.16 8.25, 0.65 32.68, 0.97 49.5 C1.29 66.33, 1.78 92.37, 1.94 100.95" stroke="#ffff" stroke-width="4" fill="none"></path></g></g><g stroke-linecap="round"><g transform="translate(449.8027836691199 183.52194950001942) rotate(0 56.35065141748578 -0.7284417522719338)"><path d="M0 0 C18.78 -0.24, 93.92 -1.21, 112.7 -1.46 M0 0 C18.78 -0.24, 93.92 -1.21, 112.7 -1.46" stroke="#ffff" stroke-width="4" fill="none"></path></g><g transform="translate(449.8027836691199 183.52194950001942) rotate(0 56.35065141748578 -0.7284417522719338)"><path d="M112.7 -1.46 L99.19 5.06 L99.03 -7.62 L112.7 -1.46" stroke="none" stroke-width="0" fill="#ffff" fill-rule="evenodd"></path><path d="M112.7 -1.46 C109.95 -0.13, 107.21 1.19, 99.19 5.06 M112.7 -1.46 C108.91 0.37, 105.12 2.2, 99.19 5.06 M99.19 5.06 C99.14 1.29, 99.09 -2.47, 99.03 -7.62 M99.19 5.06 C99.14 1.12, 99.09 -2.81, 99.03 -7.62 M99.03 -7.62 C103.21 -5.74, 107.39 -3.85, 112.7 -1.46 M99.03 -7.62 C102.32 -6.14, 105.61 -4.65, 112.7 -1.46 M112.7 -1.46 C112.7 -1.46, 112.7 -1.46, 112.7 -1.46 M112.7 -1.46 C112.7 -1.46, 112.7 -1.46, 112.7 -1.46" stroke="#ffff" stroke-width="4" fill="none"></path></g></g><g stroke-linecap="round" transform="translate(566.2810431926164 164.59423232745118) rotate(0 26.207608392786824 22.81032582335149)"><path d="M52.42 22.81 C52.42 24.13, 52.28 25.47, 52.02 26.77 C51.75 28.07, 51.35 29.37, 50.83 30.61 C50.32 31.85, 49.66 33.07, 48.9 34.22 C48.15 35.36, 47.26 36.46, 46.28 37.47 C45.31 38.48, 44.22 39.44, 43.05 40.28 C41.89 41.13, 40.63 41.9, 39.31 42.56 C38 43.22, 36.6 43.79, 35.17 44.25 C33.75 44.7, 32.25 45.04, 30.76 45.27 C29.26 45.5, 27.72 45.62, 26.21 45.62 C24.69 45.62, 23.15 45.5, 21.66 45.27 C20.16 45.04, 18.67 44.7, 17.24 44.25 C15.82 43.79, 14.42 43.22, 13.1 42.56 C11.79 41.9, 10.52 41.13, 9.36 40.28 C8.2 39.44, 7.11 38.48, 6.13 37.47 C5.16 36.46, 4.27 35.36, 3.51 34.22 C2.75 33.07, 2.1 31.85, 1.58 30.61 C1.06 29.37, 0.66 28.07, 0.4 26.77 C0.13 25.47, 0 24.13, 0 22.81 C0 21.49, 0.13 20.15, 0.4 18.85 C0.66 17.55, 1.06 16.25, 1.58 15.01 C2.1 13.77, 2.75 12.55, 3.51 11.41 C4.27 10.26, 5.16 9.16, 6.13 8.15 C7.11 7.14, 8.2 6.19, 9.36 5.34 C10.52 4.49, 11.79 3.72, 13.1 3.06 C14.42 2.4, 15.82 1.83, 17.24 1.38 C18.67 0.92, 20.16 0.58, 21.66 0.35 C23.15 0.12, 24.69 0, 26.21 0 C27.72 0, 29.26 0.12, 30.76 0.35 C32.25 0.58, 33.75 0.92, 35.17 1.38 C36.6 1.83, 38 2.4, 39.31 3.06 C40.63 3.72, 41.89 4.49, 43.05 5.34 C44.22 6.19, 45.31 7.14, 46.28 8.15 C47.26 9.16, 48.15 10.26, 48.9 11.41 C49.66 12.55, 50.32 13.77, 50.83 15.01 C51.35 16.25, 51.75 17.55, 52.02 18.85 C52.28 20.15, 52.35 22.15, 52.42 22.81 C52.48 23.47, 52.48 22.15, 52.42 22.81" stroke="#ffff" stroke-width="4" fill="none"></path></g><g stroke-linecap="round"><g transform="translate(451.74408799451135 453.3632507294539) rotate(0 62.12173841253173 0)"><path d="M0 0 C20.71 0, 103.54 0, 124.24 0 M0 0 C20.71 0, 103.54 0, 124.24 0" stroke="#ffff" stroke-width="4" fill="none"></path></g><g transform="translate(451.74408799451135 453.3632507294539) rotate(0 62.12173841253173 0)"><path d="M124.24 0 L110.65 6.34 L110.65 -6.34 L124.24 0" stroke="none" stroke-width="0" fill="#ffff" fill-rule="evenodd"></path><path d="M124.24 0 C120.68 1.66, 117.12 3.32, 110.65 6.34 M124.24 0 C119.61 2.16, 114.97 4.32, 110.65 6.34 M110.65 6.34 C110.65 1.82, 110.65 -2.71, 110.65 -6.34 M110.65 6.34 C110.65 2.27, 110.65 -1.8, 110.65 -6.34 M110.65 -6.34 C115.67 -4, 120.69 -1.66, 124.24 0 M110.65 -6.34 C114.1 -4.73, 117.54 -3.12, 124.24 0 M124.24 0 C124.24 0, 124.24 0, 124.24 0 M124.24 0 C124.24 0, 124.24 0, 124.24 0" stroke="#ffff" stroke-width="4" fill="none"></path></g></g><g stroke-linecap="round" transform="translate(580.840825633054 432.494229231494) rotate(0 26.207608392786824 22.81032582335149)"><path d="M52.42 22.81 C52.42 24.13, 52.28 25.47, 52.02 26.77 C51.75 28.07, 51.35 29.37, 50.83 30.61 C50.32 31.85, 49.66 33.07, 48.9 34.22 C48.15 35.36, 47.26 36.46, 46.28 37.47 C45.31 38.48, 44.22 39.44, 43.05 40.28 C41.89 41.13, 40.63 41.9, 39.31 42.56 C38 43.22, 36.6 43.79, 35.17 44.25 C33.75 44.7, 32.25 45.04, 30.76 45.27 C29.26 45.5, 27.72 45.62, 26.21 45.62 C24.69 45.62, 23.15 45.5, 21.66 45.27 C20.16 45.04, 18.67 44.7, 17.24 44.25 C15.82 43.79, 14.42 43.22, 13.1 42.56 C11.79 41.9, 10.52 41.13, 9.36 40.28 C8.2 39.44, 7.11 38.48, 6.13 37.47 C5.16 36.46, 4.27 35.36, 3.51 34.22 C2.75 33.07, 2.1 31.85, 1.58 30.61 C1.06 29.37, 0.66 28.07, 0.4 26.77 C0.13 25.47, 0 24.13, 0 22.81 C0 21.49, 0.13 20.15, 0.4 18.85 C0.66 17.55, 1.06 16.25, 1.58 15.01 C2.1 13.77, 2.75 12.55, 3.51 11.41 C4.27 10.26, 5.16 9.16, 6.13 8.15 C7.11 7.14, 8.2 6.19, 9.36 5.34 C10.52 4.49, 11.79 3.72, 13.1 3.06 C14.42 2.4, 15.82 1.83, 17.24 1.38 C18.67 0.92, 20.16 0.58, 21.66 0.35 C23.15 0.12, 24.69 0, 26.21 0 C27.72 0, 29.26 0.12, 30.76 0.35 C32.25 0.58, 33.75 0.92, 35.17 1.38 C36.6 1.83, 38 2.4, 39.31 3.06 C40.63 3.72, 41.89 4.49, 43.05 5.34 C44.22 6.19, 45.31 7.14, 46.28 8.15 C47.26 9.16, 48.15 10.26, 48.9 11.41 C49.66 12.55, 50.32 13.77, 50.83 15.01 C51.35 16.25, 51.75 17.55, 52.02 18.85 C52.28 20.15, 52.35 22.15, 52.42 22.81 C52.48 23.47, 52.48 22.15, 52.42 22.81" stroke="#ffff" stroke-width="4" fill="none"></path></g><g stroke-linecap="round"><g transform="translate(618.6962599781905 196.14042761506497) rotate(0 63.577716656575376 38.82608650783227)"><path d="M0 0 C21.19 12.94, 105.96 64.71, 127.16 77.65 M0 0 C21.19 12.94, 105.96 64.71, 127.16 77.65" stroke="#ffff" stroke-width="4" fill="none"></path></g><g transform="translate(618.6962599781905 196.14042761506497) rotate(0 63.577716656575376 38.82608650783227)"><path d="M127.16 77.65 L112.25 75.98 L118.86 65.16 L127.16 77.65" stroke="none" stroke-width="0" fill="#ffff" fill-rule="evenodd"></path><path d="M127.16 77.65 C122.05 77.08, 116.94 76.5, 112.25 75.98 M127.16 77.65 C123.63 77.26, 120.1 76.86, 112.25 75.98 M112.25 75.98 C114.56 72.2, 116.86 68.42, 118.86 65.16 M112.25 75.98 C113.95 73.2, 115.64 70.42, 118.86 65.16 M118.86 65.16 C121.04 68.44, 123.22 71.72, 127.16 77.65 M118.86 65.16 C120.99 68.37, 123.13 71.59, 127.16 77.65 M127.16 77.65 C127.16 77.65, 127.16 77.65, 127.16 77.65 M127.16 77.65 C127.16 77.65, 127.16 77.65, 127.16 77.65" stroke="#ffff" stroke-width="4" fill="none"></path></g></g><g stroke-linecap="round"><g transform="translate(639.0799553948023 460.1578158683246) rotate(0 57.268477599052744 -44.64999948400714)"><path d="M0 0 C19.09 -14.88, 95.45 -74.42, 114.54 -89.3 M0 0 C19.09 -14.88, 95.45 -74.42, 114.54 -89.3" stroke="#ffff" stroke-width="4" fill="none"></path></g><g transform="translate(639.0799553948023 460.1578158683246) rotate(0 57.268477599052744 -44.64999948400714)"><path d="M114.54 -89.3 L107.71 -75.94 L99.92 -85.94 L114.54 -89.3" stroke="none" stroke-width="0" fill="#ffff" fill-rule="evenodd"></path><path d="M114.54 -89.3 C112.78 -85.86, 111.03 -82.43, 107.71 -75.94 M114.54 -89.3 C112.79 -85.88, 111.04 -82.45, 107.71 -75.94 M107.71 -75.94 C105.57 -78.69, 103.43 -81.44, 99.92 -85.94 M107.71 -75.94 C105.74 -78.48, 103.76 -81.01, 99.92 -85.94 M99.92 -85.94 C105.68 -87.27, 111.45 -88.59, 114.54 -89.3 M99.92 -85.94 C103.66 -86.8, 107.4 -87.66, 114.54 -89.3 M114.54 -89.3 C114.54 -89.3, 114.54 -89.3, 114.54 -89.3 M114.54 -89.3 C114.54 -89.3, 114.54 -89.3, 114.54 -89.3" stroke="#ffff" stroke-width="4" fill="none"></path></g></g><g stroke-linecap="round"><g transform="translate(763.3234322198657 234.96651412289717) rotate(0 2.4266304067394913 95.12391194418912)"><path d="M0 0 C0.81 31.71, 4.04 158.54, 4.85 190.25 M0 0 C0.81 31.71, 4.04 158.54, 4.85 190.25" stroke="#ffff" stroke-width="4" fill="none"></path></g></g><g stroke-linecap="round"><g transform="translate(770.1179973587361 320.3839044401282) rotate(0 59.695108005792235 -0.48532608134786415)"><path d="M0 0 C19.9 -0.16, 99.49 -0.81, 119.39 -0.97 M0 0 C19.9 -0.16, 99.49 -0.81, 119.39 -0.97" stroke="#ffff" stroke-width="4" fill="none"></path></g><g transform="translate(770.1179973587361 320.3839044401282) rotate(0 59.695108005792235 -0.48532608134786415)"><path d="M119.39 -0.97 L105.85 5.48 L105.74 -7.2 L119.39 -0.97" stroke="none" stroke-width="0" fill="#ffff" fill-rule="evenodd"></path><path d="M119.39 -0.97 C115.2 1.02, 111.01 3.02, 105.85 5.48 M119.39 -0.97 C114.82 1.21, 110.24 3.39, 105.85 5.48 M105.85 5.48 C105.82 2.46, 105.8 -0.55, 105.74 -7.2 M105.85 5.48 C105.81 1.19, 105.78 -3.1, 105.74 -7.2 M105.74 -7.2 C109.64 -5.42, 113.53 -3.65, 119.39 -0.97 M105.74 -7.2 C108.88 -5.77, 112.02 -4.33, 119.39 -0.97 M119.39 -0.97 C119.39 -0.97, 119.39 -0.97, 119.39 -0.97 M119.39 -0.97 C119.39 -0.97, 119.39 -0.97, 119.39 -0.97" stroke="#ffff" stroke-width="4" fill="none"></path></g></g><g stroke-linecap="round" transform="translate(895.3321263464952 299.5148829421684) rotate(0 26.207608392786824 22.81032582335149)"><path d="M52.42 22.81 C52.42 24.13, 52.28 25.47, 52.02 26.77 C51.75 28.07, 51.35 29.37, 50.83 30.61 C50.32 31.85, 49.66 33.07, 48.9 34.22 C48.15 35.36, 47.26 36.46, 46.28 37.47 C45.31 38.48, 44.22 39.44, 43.05 40.28 C41.89 41.13, 40.63 41.9, 39.31 42.56 C38 43.22, 36.6 43.79, 35.17 44.25 C33.75 44.7, 32.25 45.04, 30.76 45.27 C29.26 45.5, 27.72 45.62, 26.21 45.62 C24.69 45.62, 23.15 45.5, 21.66 45.27 C20.16 45.04, 18.67 44.7, 17.24 44.25 C15.82 43.79, 14.42 43.22, 13.1 42.56 C11.79 41.9, 10.52 41.13, 9.36 40.28 C8.2 39.44, 7.11 38.48, 6.13 37.47 C5.16 36.46, 4.27 35.36, 3.51 34.22 C2.75 33.07, 2.1 31.85, 1.58 30.61 C1.06 29.37, 0.66 28.07, 0.4 26.77 C0.13 25.47, 0 24.13, 0 22.81 C0 21.49, 0.13 20.15, 0.4 18.85 C0.66 17.55, 1.06 16.25, 1.58 15.01 C2.1 13.77, 2.75 12.55, 3.51 11.41 C4.27 10.26, 5.16 9.16, 6.13 8.15 C7.11 7.14, 8.2 6.19, 9.36 5.34 C10.52 4.49, 11.79 3.72, 13.1 3.06 C14.42 2.4, 15.82 1.83, 17.24 1.38 C18.67 0.92, 20.16 0.58, 21.66 0.35 C23.15 0.12, 24.69 0, 26.21 0 C27.72 0, 29.26 0.12, 30.76 0.35 C32.25 0.58, 33.75 0.92, 35.17 1.38 C36.6 1.83, 38 2.4, 39.31 3.06 C40.63 3.72, 41.89 4.49, 43.05 5.34 C44.22 6.19, 45.31 7.14, 46.28 8.15 C47.26 9.16, 48.15 10.26, 48.9 11.41 C49.66 12.55, 50.32 13.77, 50.83 15.01 C51.35 16.25, 51.75 17.55, 52.02 18.85 C52.28 20.15, 52.35 22.15, 52.42 22.81 C52.48 23.47, 52.48 22.15, 52.42 22.81" stroke="#ffff" stroke-width="4" fill="none"></path></g><g stroke-linecap="round"><g transform="translate(953.0859300268958 321.839882684172) rotate(0 50.95923854153 -47.56195597209452)"><path d="M0 0 C16.99 -15.85, 84.93 -79.27, 101.92 -95.12 M0 0 C16.99 -15.85, 84.93 -79.27, 101.92 -95.12" stroke="#ffff" stroke-width="4" fill="none"></path></g><g transform="translate(953.0859300268958 321.839882684172) rotate(0 50.95923854153 -47.56195597209452)"><path d="M101.92 -95.12 L96.31 -81.21 L87.65 -90.48 L101.92 -95.12" stroke="none" stroke-width="0" fill="#ffff" fill-rule="evenodd"></path><path d="M101.92 -95.12 C100.03 -90.45, 98.14 -85.77, 96.31 -81.21 M101.92 -95.12 C100.07 -90.56, 98.23 -85.99, 96.31 -81.21 M96.31 -81.21 C93.69 -84.02, 91.07 -86.82, 87.65 -90.48 M96.31 -81.21 C93.41 -84.31, 90.52 -87.41, 87.65 -90.48 M87.65 -90.48 C92.03 -91.91, 96.4 -93.33, 101.92 -95.12 M87.65 -90.48 C92.19 -91.96, 96.73 -93.43, 101.92 -95.12 M101.92 -95.12 C101.92 -95.12, 101.92 -95.12, 101.92 -95.12 M101.92 -95.12 C101.92 -95.12, 101.92 -95.12, 101.92 -95.12" stroke="#ffff" stroke-width="4" fill="none"></path></g></g><g stroke-linecap="round"><g transform="translate(1072.4761460384802 190.31651463889017) rotate(0 1.455978244043763 45.13532556535503)"><path d="M0 0 C0.49 15.05, 2.43 75.23, 2.91 90.27 M0 0 C0.49 15.05, 2.43 75.23, 2.91 90.27" stroke="#ffff" stroke-width="4" fill="none"></path></g></g><g stroke-linecap="round" transform="translate(1223.4125573376782 60.24912483765189) rotate(0 22.32499974200357 20.86902149795985)"><path d="M44.65 20.87 C44.65 22.08, 44.54 23.3, 44.31 24.49 C44.09 25.68, 43.75 26.87, 43.3 28.01 C42.86 29.14, 42.31 30.26, 41.66 31.3 C41.01 32.35, 40.26 33.36, 39.43 34.28 C38.6 35.21, 37.67 36.08, 36.68 36.86 C35.69 37.63, 34.61 38.34, 33.49 38.94 C32.37 39.55, 31.17 40.07, 29.96 40.48 C28.75 40.89, 27.47 41.21, 26.2 41.42 C24.93 41.63, 23.62 41.74, 22.32 41.74 C21.03 41.74, 19.72 41.63, 18.45 41.42 C17.18 41.21, 15.9 40.89, 14.69 40.48 C13.48 40.07, 12.28 39.55, 11.16 38.94 C10.04 38.34, 8.96 37.63, 7.97 36.86 C6.98 36.08, 6.05 35.21, 5.22 34.28 C4.39 33.36, 3.64 32.35, 2.99 31.3 C2.34 30.26, 1.79 29.14, 1.35 28.01 C0.9 26.87, 0.56 25.68, 0.34 24.49 C0.11 23.3, 0 22.08, 0 20.87 C0 19.66, 0.11 18.43, 0.34 17.25 C0.56 16.06, 0.9 14.87, 1.35 13.73 C1.79 12.6, 2.34 11.48, 2.99 10.43 C3.64 9.39, 4.39 8.38, 5.22 7.45 C6.05 6.53, 6.98 5.66, 7.97 4.88 C8.96 4.11, 10.04 3.4, 11.16 2.8 C12.28 2.19, 13.48 1.67, 14.69 1.26 C15.9 0.85, 17.18 0.53, 18.45 0.32 C19.72 0.11, 21.03 0, 22.32 0 C23.62 0, 24.93 0.11, 26.2 0.32 C27.47 0.53, 28.75 0.85, 29.96 1.26 C31.17 1.67, 32.37 2.19, 33.49 2.8 C34.61 3.4, 35.69 4.11, 36.68 4.88 C37.67 5.66, 38.6 6.53, 39.43 7.45 C40.26 8.38, 41.01 9.39, 41.66 10.43 C42.31 11.48, 42.86 12.6, 43.3 13.73 C43.75 14.87, 44.09 16.06, 44.31 17.25 C44.54 18.43, 44.59 20.27, 44.65 20.87 C44.71 21.47, 44.71 20.27, 44.65 20.87" stroke="#ffff" stroke-width="4" fill="none"></path></g><g stroke-linecap="round"><g transform="translate(1225.35386166307 90.33934188122191) rotate(0 -73.28423828353345 62.60706449387959)"><path d="M0 0 C-24.43 20.87, -122.14 104.35, -146.57 125.21 M0 0 C-24.43 20.87, -122.14 104.35, -146.57 125.21" stroke="#ffff" stroke-width="4" fill="none"></path></g><g transform="translate(1225.35386166307 90.33934188122191) rotate(0 -73.28423828353345 62.60706449387959)"><path d="M-146.57 125.21 L-140.35 111.56 L-132.11 121.2 L-146.57 125.21" stroke="none" stroke-width="0" fill="#ffff" fill-rule="evenodd"></path><path d="M-146.57 125.21 C-144.64 120.98, -142.71 116.74, -140.35 111.56 M-146.57 125.21 C-144.84 121.42, -143.11 117.62, -140.35 111.56 M-140.35 111.56 C-137.36 115.06, -134.37 118.56, -132.11 121.2 M-140.35 111.56 C-138.25 114.02, -136.16 116.47, -132.11 121.2 M-132.11 121.2 C-135.04 122.02, -137.97 122.83, -146.57 125.21 M-132.11 121.2 C-135.3 122.09, -138.48 122.97, -146.57 125.21 M-146.57 125.21 C-146.57 125.21, -146.57 125.21, -146.57 125.21 M-146.57 125.21 C-146.57 125.21, -146.57 125.21, -146.57 125.21" stroke="#ffff" stroke-width="4" fill="none"></path></g></g><g stroke-linecap="round"><g transform="translate(1076.8440807706113 237.87847061098466) rotate(0 81.04945558509996 -1.9413043253916271)"><path d="M0 0 C27.02 -0.65, 135.08 -3.24, 162.1 -3.88 M0 0 C27.02 -0.65, 135.08 -3.24, 162.1 -3.88" stroke="#ffff" stroke-width="4" fill="none"></path></g><g transform="translate(1076.8440807706113 237.87847061098466) rotate(0 81.04945558509996 -1.9413043253916271)"><path d="M162.1 -3.88 L148.66 2.78 L148.36 -9.89 L162.1 -3.88" stroke="none" stroke-width="0" fill="#ffff" fill-rule="evenodd"></path><path d="M162.1 -3.88 C156.94 -1.33, 151.79 1.23, 148.66 2.78 M162.1 -3.88 C159.12 -2.41, 156.15 -0.93, 148.66 2.78 M148.66 2.78 C148.59 -0.12, 148.52 -3.02, 148.36 -9.89 M148.66 2.78 C148.59 -0.09, 148.52 -2.96, 148.36 -9.89 M148.36 -9.89 C151.82 -8.38, 155.28 -6.87, 162.1 -3.88 M148.36 -9.89 C151.24 -8.63, 154.12 -7.37, 162.1 -3.88 M162.1 -3.88 C162.1 -3.88, 162.1 -3.88, 162.1 -3.88 M162.1 -3.88 C162.1 -3.88, 162.1 -3.88, 162.1 -3.88" stroke="#ffff" stroke-width="4" fill="none"></path></g></g><g stroke-linecap="round" transform="translate(1245.7375570796817 210.21488397415416) rotate(0 22.32499974200357 20.86902149795985)"><path d="M44.65 20.87 C44.65 22.08, 44.54 23.3, 44.31 24.49 C44.09 25.68, 43.75 26.87, 43.3 28.01 C42.86 29.14, 42.31 30.26, 41.66 31.3 C41.01 32.35, 40.26 33.36, 39.43 34.28 C38.6 35.21, 37.67 36.08, 36.68 36.86 C35.69 37.63, 34.61 38.34, 33.49 38.94 C32.37 39.55, 31.17 40.07, 29.96 40.48 C28.75 40.89, 27.47 41.21, 26.2 41.42 C24.93 41.63, 23.62 41.74, 22.32 41.74 C21.03 41.74, 19.72 41.63, 18.45 41.42 C17.18 41.21, 15.9 40.89, 14.69 40.48 C13.48 40.07, 12.28 39.55, 11.16 38.94 C10.04 38.34, 8.96 37.63, 7.97 36.86 C6.98 36.08, 6.05 35.21, 5.22 34.28 C4.39 33.36, 3.64 32.35, 2.99 31.3 C2.34 30.26, 1.79 29.14, 1.35 28.01 C0.9 26.87, 0.56 25.68, 0.34 24.49 C0.11 23.3, 0 22.08, 0 20.87 C0 19.66, 0.11 18.43, 0.34 17.25 C0.56 16.06, 0.9 14.87, 1.35 13.73 C1.79 12.6, 2.34 11.48, 2.99 10.43 C3.64 9.39, 4.39 8.38, 5.22 7.45 C6.05 6.53, 6.98 5.66, 7.97 4.88 C8.96 4.11, 10.04 3.4, 11.16 2.8 C12.28 2.19, 13.48 1.67, 14.69 1.26 C15.9 0.85, 17.18 0.53, 18.45 0.32 C19.72 0.11, 21.03 0, 22.32 0 C23.62 0, 24.93 0.11, 26.2 0.32 C27.47 0.53, 28.75 0.85, 29.96 1.26 C31.17 1.67, 32.37 2.19, 33.49 2.8 C34.61 3.4, 35.69 4.11, 36.68 4.88 C37.67 5.66, 38.6 6.53, 39.43 7.45 C40.26 8.38, 41.01 9.39, 41.66 10.43 C42.31 11.48, 42.86 12.6, 43.3 13.73 C43.75 14.87, 44.09 16.06, 44.31 17.25 C44.54 18.43, 44.59 20.27, 44.65 20.87 C44.71 21.47, 44.71 20.27, 44.65 20.87" stroke="#ffff" stroke-width="4" fill="none"></path></g><g stroke-linecap="round"><g transform="translate(942.8940823185899 341.73825201943606) rotate(0 47.56195597209455 46.59130380939874)"><path d="M0 0 C15.85 15.53, 79.27 77.65, 95.12 93.18 M0 0 C15.85 15.53, 79.27 77.65, 95.12 93.18" stroke="#ffff" stroke-width="4" fill="none"></path></g><g transform="translate(942.8940823185899 341.73825201943606) rotate(0 47.56195597209455 46.59130380939874)"><path d="M95.12 93.18 L80.98 88.2 L89.85 79.14 L95.12 93.18" stroke="none" stroke-width="0" fill="#ffff" fill-rule="evenodd"></path><path d="M95.12 93.18 C91.92 92.05, 88.71 90.92, 80.98 88.2 M95.12 93.18 C90.81 91.66, 86.49 90.14, 80.98 88.2 M80.98 88.2 C83.35 85.77, 85.73 83.34, 89.85 79.14 M80.98 88.2 C84.51 84.59, 88.05 80.98, 89.85 79.14 M89.85 79.14 C91.84 84.44, 93.83 89.74, 95.12 93.18 M89.85 79.14 C91.48 83.47, 93.1 87.8, 95.12 93.18 M95.12 93.18 C95.12 93.18, 95.12 93.18, 95.12 93.18 M95.12 93.18 C95.12 93.18, 95.12 93.18, 95.12 93.18" stroke="#ffff" stroke-width="4" fill="none"></path></g></g><g stroke-linecap="round"><g transform="translate(1048.209841971085 405.31596867601144) rotate(0 1.455978244043763 45.13532556535503)"><path d="M0 0 C0.49 15.05, 2.43 75.23, 2.91 90.27 M0 0 C0.49 15.05, 2.43 75.23, 2.91 90.27" stroke="#ffff" stroke-width="4" fill="none"></path></g></g><g stroke-linecap="round" transform="translate(1246.7082092423773 535.3833584772497) rotate(0 22.32499974200357 20.869021497959864)"><path d="M44.65 20.87 C44.65 22.08, 44.54 23.3, 44.31 24.49 C44.09 25.68, 43.75 26.87, 43.3 28.01 C42.86 29.14, 42.31 30.26, 41.66 31.3 C41.01 32.35, 40.26 33.36, 39.43 34.28 C38.6 35.21, 37.67 36.08, 36.68 36.86 C35.69 37.63, 34.61 38.34, 33.49 38.94 C32.37 39.55, 31.17 40.07, 29.96 40.48 C28.75 40.89, 27.47 41.21, 26.2 41.42 C24.93 41.63, 23.62 41.74, 22.32 41.74 C21.03 41.74, 19.72 41.63, 18.45 41.42 C17.18 41.21, 15.9 40.89, 14.69 40.48 C13.48 40.07, 12.28 39.55, 11.16 38.94 C10.04 38.34, 8.96 37.63, 7.97 36.86 C6.98 36.08, 6.05 35.21, 5.22 34.28 C4.39 33.36, 3.64 32.35, 2.99 31.3 C2.34 30.26, 1.79 29.14, 1.35 28.01 C0.9 26.87, 0.56 25.68, 0.34 24.49 C0.11 23.3, 0 22.08, 0 20.87 C0 19.66, 0.11 18.43, 0.34 17.25 C0.56 16.06, 0.9 14.87, 1.35 13.73 C1.79 12.6, 2.34 11.48, 2.99 10.43 C3.64 9.39, 4.39 8.38, 5.22 7.45 C6.05 6.53, 6.98 5.66, 7.97 4.88 C8.96 4.11, 10.04 3.4, 11.16 2.8 C12.28 2.19, 13.48 1.67, 14.69 1.26 C15.9 0.85, 17.18 0.53, 18.45 0.32 C19.72 0.11, 21.03 0, 22.32 0 C23.62 0, 24.93 0.11, 26.2 0.32 C27.47 0.53, 28.75 0.85, 29.96 1.26 C31.17 1.67, 32.37 2.19, 33.49 2.8 C34.61 3.4, 35.69 4.11, 36.68 4.88 C37.67 5.66, 38.6 6.53, 39.43 7.45 C40.26 8.38, 41.01 9.39, 41.66 10.43 C42.31 11.48, 42.86 12.6, 43.3 13.73 C43.75 14.87, 44.09 16.06, 44.31 17.25 C44.54 18.43, 44.59 20.27, 44.65 20.87 C44.71 21.47, 44.71 20.27, 44.65 20.87" stroke="#ffff" stroke-width="4" fill="none"></path></g><g stroke-linecap="round"><g transform="translate(1245.737557079682 563.0469451140802) rotate(0 -96.57989018823287 -49.50326029748621)"><path d="M0 0 C-32.19 -16.5, -160.97 -82.51, -193.16 -99.01 M0 0 C-32.19 -16.5, -160.97 -82.51, -193.16 -99.01" stroke="#ffff" stroke-width="4" fill="none"></path></g><g transform="translate(1245.737557079682 563.0469451140802) rotate(0 -96.57989018823287 -49.50326029748621)"><path d="M-193.16 -99.01 L-178.17 -98.45 L-183.95 -87.16 L-193.16 -99.01" stroke="none" stroke-width="0" fill="#ffff" fill-rule="evenodd"></path><path d="M-193.16 -99.01 C-187.59 -98.8, -182.02 -98.59, -178.17 -98.45 M-193.16 -99.01 C-189.85 -98.88, -186.54 -98.76, -178.17 -98.45 M-178.17 -98.45 C-179.38 -96.1, -180.58 -93.75, -183.95 -87.16 M-178.17 -98.45 C-180.33 -94.24, -182.48 -90.03, -183.95 -87.16 M-183.95 -87.16 C-187.13 -91.26, -190.31 -95.35, -193.16 -99.01 M-183.95 -87.16 C-187.61 -91.87, -191.27 -96.58, -193.16 -99.01 M-193.16 -99.01 C-193.16 -99.01, -193.16 -99.01, -193.16 -99.01 M-193.16 -99.01 C-193.16 -99.01, -193.16 -99.01, -193.16 -99.01" stroke="#ffff" stroke-width="4" fill="none"></path></g></g><g stroke-linecap="round"><g transform="translate(1055.9750592726514 443.65672910249583) rotate(0 81.04945558509996 -1.9413043253916271)"><path d="M0 0 C27.02 -0.65, 135.08 -3.24, 162.1 -3.88 M0 0 C27.02 -0.65, 135.08 -3.24, 162.1 -3.88" stroke="#ffff" stroke-width="4" fill="none"></path></g><g transform="translate(1055.9750592726514 443.65672910249583) rotate(0 81.04945558509996 -1.9413043253916271)"><path d="M162.1 -3.88 L148.66 2.78 L148.36 -9.89 L162.1 -3.88" stroke="none" stroke-width="0" fill="#ffff" fill-rule="evenodd"></path><path d="M162.1 -3.88 C159.15 -2.42, 156.2 -0.96, 148.66 2.78 M162.1 -3.88 C159.29 -2.49, 156.48 -1.09, 148.66 2.78 M148.66 2.78 C148.59 -0.02, 148.53 -2.82, 148.36 -9.89 M148.66 2.78 C148.58 -0.51, 148.5 -3.79, 148.36 -9.89 M148.36 -9.89 C153.44 -7.67, 158.53 -5.44, 162.1 -3.88 M148.36 -9.89 C151.77 -8.4, 155.18 -6.91, 162.1 -3.88 M162.1 -3.88 C162.1 -3.88, 162.1 -3.88, 162.1 -3.88 M162.1 -3.88 C162.1 -3.88, 162.1 -3.88, 162.1 -3.88" stroke="#ffff" stroke-width="4" fill="none"></path></g></g><g stroke-linecap="round" transform="translate(1228.2658181511572 417.93444679105687) rotate(0 22.32499974200357 20.869021497959835)"><path d="M44.65 20.87 C44.65 22.08, 44.54 23.3, 44.31 24.49 C44.09 25.68, 43.75 26.87, 43.3 28.01 C42.86 29.14, 42.31 30.26, 41.66 31.3 C41.01 32.35, 40.26 33.36, 39.43 34.28 C38.6 35.21, 37.67 36.08, 36.68 36.86 C35.69 37.63, 34.61 38.34, 33.49 38.94 C32.37 39.55, 31.17 40.07, 29.96 40.48 C28.75 40.89, 27.47 41.21, 26.2 41.42 C24.93 41.63, 23.62 41.74, 22.32 41.74 C21.03 41.74, 19.72 41.63, 18.45 41.42 C17.18 41.21, 15.9 40.89, 14.69 40.48 C13.48 40.07, 12.28 39.55, 11.16 38.94 C10.04 38.34, 8.96 37.63, 7.97 36.86 C6.98 36.08, 6.05 35.21, 5.22 34.28 C4.39 33.36, 3.64 32.35, 2.99 31.3 C2.34 30.26, 1.79 29.14, 1.35 28.01 C0.9 26.87, 0.56 25.68, 0.34 24.49 C0.11 23.3, 0 22.08, 0 20.87 C0 19.66, 0.11 18.43, 0.34 17.25 C0.56 16.06, 0.9 14.87, 1.35 13.73 C1.79 12.6, 2.34 11.48, 2.99 10.43 C3.64 9.39, 4.39 8.38, 5.22 7.45 C6.05 6.53, 6.98 5.66, 7.97 4.88 C8.96 4.11, 10.04 3.4, 11.16 2.8 C12.28 2.19, 13.48 1.67, 14.69 1.26 C15.9 0.85, 17.18 0.53, 18.45 0.32 C19.72 0.11, 21.03 0, 22.32 0 C23.62 0, 24.93 0.11, 26.2 0.32 C27.47 0.53, 28.75 0.85, 29.96 1.26 C31.17 1.67, 32.37 2.19, 33.49 2.8 C34.61 3.4, 35.69 4.11, 36.68 4.88 C37.67 5.66, 38.6 6.53, 39.43 7.45 C40.26 8.38, 41.01 9.39, 41.66 10.43 C42.31 11.48, 42.86 12.6, 43.3 13.73 C43.75 14.87, 44.09 16.06, 44.31 17.25 C44.54 18.43, 44.59 20.27, 44.65 20.87 C44.71 21.47, 44.71 20.27, 44.65 20.87" stroke="#ffff" stroke-width="4" fill="none"></path></g><g stroke-linecap="round" transform="translate(1263.598128948365 550.9967709238356) rotate(0 6.540943904801225 5.995865246067865)"><path d="M13.08 6 C13.08 6.34, 13.05 6.7, 12.98 7.04 C12.92 7.38, 12.82 7.72, 12.69 8.05 C12.56 8.37, 12.39 8.69, 12.21 8.99 C12.02 9.29, 11.79 9.58, 11.55 9.85 C11.31 10.12, 11.04 10.37, 10.75 10.59 C10.46 10.81, 10.14 11.01, 9.81 11.19 C9.48 11.36, 9.13 11.51, 8.78 11.63 C8.42 11.75, 8.05 11.84, 7.68 11.9 C7.3 11.96, 6.92 11.99, 6.54 11.99 C6.16 11.99, 5.78 11.96, 5.41 11.9 C5.03 11.84, 4.66 11.75, 4.3 11.63 C3.95 11.51, 3.6 11.36, 3.27 11.19 C2.94 11.01, 2.63 10.81, 2.34 10.59 C2.05 10.37, 1.77 10.12, 1.53 9.85 C1.29 9.58, 1.07 9.29, 0.88 8.99 C0.69 8.69, 0.52 8.37, 0.39 8.05 C0.26 7.72, 0.17 7.38, 0.1 7.04 C0.03 6.7, 0 6.34, 0 6 C0 5.65, 0.03 5.3, 0.1 4.95 C0.17 4.61, 0.26 4.27, 0.39 3.95 C0.52 3.62, 0.69 3.3, 0.88 3 C1.07 2.7, 1.29 2.41, 1.53 2.14 C1.77 1.88, 2.05 1.63, 2.34 1.4 C2.63 1.18, 2.94 0.98, 3.27 0.8 C3.6 0.63, 3.95 0.48, 4.3 0.36 C4.66 0.24, 5.03 0.15, 5.41 0.09 C5.78 0.03, 6.16 0, 6.54 0 C6.92 0, 7.3 0.03, 7.68 0.09 C8.05 0.15, 8.42 0.24, 8.78 0.36 C9.13 0.48, 9.48 0.63, 9.81 0.8 C10.14 0.98, 10.46 1.18, 10.75 1.4 C11.04 1.63, 11.31 1.88, 11.55 2.14 C11.79 2.41, 12.02 2.7, 12.21 3 C12.39 3.3, 12.56 3.62, 12.69 3.95 C12.82 4.27, 12.92 4.61, 12.98 4.95 C13.05 5.3, 13.07 5.82, 13.08 6 C13.1 6.17, 13.1 5.82, 13.08 6" stroke="none" stroke-width="0" fill="#ffff"></path><path d="M13.08 6 C13.08 6.34, 13.05 6.7, 12.98 7.04 C12.92 7.38, 12.82 7.72, 12.69 8.05 C12.56 8.37, 12.39 8.69, 12.21 8.99 C12.02 9.29, 11.79 9.58, 11.55 9.85 C11.31 10.12, 11.04 10.37, 10.75 10.59 C10.46 10.81, 10.14 11.01, 9.81 11.19 C9.48 11.36, 9.13 11.51, 8.78 11.63 C8.42 11.75, 8.05 11.84, 7.68 11.9 C7.3 11.96, 6.92 11.99, 6.54 11.99 C6.16 11.99, 5.78 11.96, 5.41 11.9 C5.03 11.84, 4.66 11.75, 4.3 11.63 C3.95 11.51, 3.6 11.36, 3.27 11.19 C2.94 11.01, 2.63 10.81, 2.34 10.59 C2.05 10.37, 1.77 10.12, 1.53 9.85 C1.29 9.58, 1.07 9.29, 0.88 8.99 C0.69 8.69, 0.52 8.37, 0.39 8.05 C0.26 7.72, 0.17 7.38, 0.1 7.04 C0.03 6.7, 0 6.34, 0 6 C0 5.65, 0.03 5.3, 0.1 4.95 C0.17 4.61, 0.26 4.27, 0.39 3.95 C0.52 3.62, 0.69 3.3, 0.88 3 C1.07 2.7, 1.29 2.41, 1.53 2.14 C1.77 1.88, 2.05 1.63, 2.34 1.4 C2.63 1.18, 2.94 0.98, 3.27 0.8 C3.6 0.63, 3.95 0.48, 4.3 0.36 C4.66 0.24, 5.03 0.15, 5.41 0.09 C5.78 0.03, 6.16 0, 6.54 0 C6.92 0, 7.3 0.03, 7.68 0.09 C8.05 0.15, 8.42 0.24, 8.78 0.36 C9.13 0.48, 9.48 0.63, 9.81 0.8 C10.14 0.98, 10.46 1.18, 10.75 1.4 C11.04 1.63, 11.31 1.88, 11.55 2.14 C11.79 2.41, 12.02 2.7, 12.21 3 C12.39 3.3, 12.56 3.62, 12.69 3.95 C12.82 4.27, 12.92 4.61, 12.98 4.95 C13.05 5.3, 13.07 5.82, 13.08 6 C13.1 6.17, 13.1 5.82, 13.08 6" stroke="#ffff" stroke-width="4" fill="none"></path></g><g stroke-linecap="round" transform="translate(1240.7048252815603 75.14310184954408) rotate(0 6.540943904801225 5.995865246067865)"><path d="M13.08 6 C13.08 6.34, 13.05 6.7, 12.98 7.04 C12.92 7.38, 12.82 7.72, 12.69 8.05 C12.56 8.37, 12.39 8.69, 12.21 8.99 C12.02 9.29, 11.79 9.58, 11.55 9.85 C11.31 10.12, 11.04 10.37, 10.75 10.59 C10.46 10.81, 10.14 11.01, 9.81 11.19 C9.48 11.36, 9.13 11.51, 8.78 11.63 C8.42 11.75, 8.05 11.84, 7.68 11.9 C7.3 11.96, 6.92 11.99, 6.54 11.99 C6.16 11.99, 5.78 11.96, 5.41 11.9 C5.03 11.84, 4.66 11.75, 4.3 11.63 C3.95 11.51, 3.6 11.36, 3.27 11.19 C2.94 11.01, 2.63 10.81, 2.34 10.59 C2.05 10.37, 1.77 10.12, 1.53 9.85 C1.29 9.58, 1.07 9.29, 0.88 8.99 C0.69 8.69, 0.52 8.37, 0.39 8.05 C0.26 7.72, 0.17 7.38, 0.1 7.04 C0.03 6.7, 0 6.34, 0 6 C0 5.65, 0.03 5.3, 0.1 4.95 C0.17 4.61, 0.26 4.27, 0.39 3.95 C0.52 3.62, 0.69 3.3, 0.88 3 C1.07 2.7, 1.29 2.41, 1.53 2.14 C1.77 1.88, 2.05 1.63, 2.34 1.4 C2.63 1.18, 2.94 0.98, 3.27 0.8 C3.6 0.63, 3.95 0.48, 4.3 0.36 C4.66 0.24, 5.03 0.15, 5.41 0.09 C5.78 0.03, 6.16 0, 6.54 0 C6.92 0, 7.3 0.03, 7.68 0.09 C8.05 0.15, 8.42 0.24, 8.78 0.36 C9.13 0.48, 9.48 0.63, 9.81 0.8 C10.14 0.98, 10.46 1.18, 10.75 1.4 C11.04 1.63, 11.31 1.88, 11.55 2.14 C11.79 2.41, 12.02 2.7, 12.21 3 C12.39 3.3, 12.56 3.62, 12.69 3.95 C12.82 4.27, 12.92 4.61, 12.98 4.95 C13.05 5.3, 13.07 5.82, 13.08 6 C13.1 6.17, 13.1 5.82, 13.08 6" stroke="none" stroke-width="0" fill="#ffff"></path><path d="M13.08 6 C13.08 6.34, 13.05 6.7, 12.98 7.04 C12.92 7.38, 12.82 7.72, 12.69 8.05 C12.56 8.37, 12.39 8.69, 12.21 8.99 C12.02 9.29, 11.79 9.58, 11.55 9.85 C11.31 10.12, 11.04 10.37, 10.75 10.59 C10.46 10.81, 10.14 11.01, 9.81 11.19 C9.48 11.36, 9.13 11.51, 8.78 11.63 C8.42 11.75, 8.05 11.84, 7.68 11.9 C7.3 11.96, 6.92 11.99, 6.54 11.99 C6.16 11.99, 5.78 11.96, 5.41 11.9 C5.03 11.84, 4.66 11.75, 4.3 11.63 C3.95 11.51, 3.6 11.36, 3.27 11.19 C2.94 11.01, 2.63 10.81, 2.34 10.59 C2.05 10.37, 1.77 10.12, 1.53 9.85 C1.29 9.58, 1.07 9.29, 0.88 8.99 C0.69 8.69, 0.52 8.37, 0.39 8.05 C0.26 7.72, 0.17 7.38, 0.1 7.04 C0.03 6.7, 0 6.34, 0 6 C0 5.65, 0.03 5.3, 0.1 4.95 C0.17 4.61, 0.26 4.27, 0.39 3.95 C0.52 3.62, 0.69 3.3, 0.88 3 C1.07 2.7, 1.29 2.41, 1.53 2.14 C1.77 1.88, 2.05 1.63, 2.34 1.4 C2.63 1.18, 2.94 0.98, 3.27 0.8 C3.6 0.63, 3.95 0.48, 4.3 0.36 C4.66 0.24, 5.03 0.15, 5.41 0.09 C5.78 0.03, 6.16 0, 6.54 0 C6.92 0, 7.3 0.03, 7.68 0.09 C8.05 0.15, 8.42 0.24, 8.78 0.36 C9.13 0.48, 9.48 0.63, 9.81 0.8 C10.14 0.98, 10.46 1.18, 10.75 1.4 C11.04 1.63, 11.31 1.88, 11.55 2.14 C11.79 2.41, 12.02 2.7, 12.21 3 C12.39 3.3, 12.56 3.62, 12.69 3.95 C12.82 4.27, 12.92 4.61, 12.98 4.95 C13.05 5.3, 13.07 5.82, 13.08 6 C13.1 6.17, 13.1 5.82, 13.08 6" stroke="#ffff" stroke-width="4" fill="none"></path></g><g transform="translate(1138.2300374396743 10) rotate(0 101.5 12.5)"><text x="0" y="18" font-family="Virgil, Segoe UI Emoji" font-size="20px" fill="#ffff" text-anchor="start" style="white-space: pre;" direction="ltr">Opereraio disponibles</text></g><g transform="translate(1165.3686009007654 622.438884368785) rotate(0 101.5 12.5)"><text x="0" y="18" font-family="Virgil, Segoe UI Emoji" font-size="20px" fill="#ffff" text-anchor="start" style="white-space: pre;" direction="ltr">Opereraio disponibles</text></g><g stroke-linecap="round"><g transform="translate(1294.8348770623534 231.34166659649873) rotate(0 52.70536533096117 1.3291676270089852)"><path d="M0 0 C17.57 0.44, 87.84 2.22, 105.41 2.66 M0 0 C17.57 0.44, 87.84 2.22, 105.41 2.66" stroke="#ffff" stroke-width="4" fill="none"></path></g><g transform="translate(1294.8348770623534 231.34166659649873) rotate(0 52.70536533096117 1.3291676270089852)"><path d="M105.41 2.66 L91.66 8.65 L91.98 -4.02 L105.41 2.66" stroke="none" stroke-width="0" fill="#ffff" fill-rule="evenodd"></path><path d="M105.41 2.66 C100.51 4.8, 95.61 6.93, 91.66 8.65 M105.41 2.66 C100.57 4.77, 95.73 6.88, 91.66 8.65 M91.66 8.65 C91.77 4.2, 91.89 -0.25, 91.98 -4.02 M91.66 8.65 C91.79 3.6, 91.92 -1.45, 91.98 -4.02 M91.98 -4.02 C97.26 -1.4, 102.54 1.23, 105.41 2.66 M91.98 -4.02 C96.07 -1.99, 100.17 0.05, 105.41 2.66 M105.41 2.66 C105.41 2.66, 105.41 2.66, 105.41 2.66 M105.41 2.66 C105.41 2.66, 105.41 2.66, 105.41 2.66" stroke="#ffff" stroke-width="4" fill="none"></path></g></g><g stroke-linecap="round"><g transform="translate(1412.5838605147499 188.6256659756196) rotate(0 1.455978244043763 45.13532556535503)"><path d="M0 0 C0.49 15.05, 2.43 75.23, 2.91 90.27 M0 0 C0.49 15.05, 2.43 75.23, 2.91 90.27" stroke="#ffff" stroke-width="4" fill="none"></path></g></g><g stroke-linecap="round"><g transform="translate(1410.7693668063932 204.32674396936892) rotate(0 -70.3151469766135 -56.688180508277554)"><path d="M0 0 C-23.44 -18.9, -117.19 -94.48, -140.63 -113.38 M0 0 C-23.44 -18.9, -117.19 -94.48, -140.63 -113.38" stroke="#ffff" stroke-width="4" fill="none"></path></g><g transform="translate(1410.7693668063932 204.32674396936892) rotate(0 -70.3151469766135 -56.688180508277554)"><path d="M-140.63 -113.38 L-126.07 -109.78 L-134.03 -99.91 L-140.63 -113.38" stroke="none" stroke-width="0" fill="#ffff" fill-rule="evenodd"></path><path d="M-140.63 -113.38 C-136.52 -112.36, -132.42 -111.35, -126.07 -109.78 M-140.63 -113.38 C-136.31 -112.31, -131.99 -111.24, -126.07 -109.78 M-126.07 -109.78 C-127.92 -107.48, -129.77 -105.18, -134.03 -99.91 M-126.07 -109.78 C-128.01 -107.37, -129.96 -104.95, -134.03 -99.91 M-134.03 -99.91 C-136.01 -103.96, -138 -108.01, -140.63 -113.38 M-134.03 -99.91 C-135.56 -103.04, -137.09 -106.16, -140.63 -113.38 M-140.63 -113.38 C-140.63 -113.38, -140.63 -113.38, -140.63 -113.38 M-140.63 -113.38 C-140.63 -113.38, -140.63 -113.38, -140.63 -113.38" stroke="#ffff" stroke-width="4" fill="none"></path></g></g><g stroke-linecap="round"><g transform="translate(1415.1299960762608 223.9495756837727) rotate(0 90.48305734975077 67.58975368294631)"><path d="M0 0 C30.16 22.53, 150.81 112.65, 180.97 135.18 M0 0 C30.16 22.53, 150.81 112.65, 180.97 135.18" stroke="#ffff" stroke-width="4" fill="none"></path></g><g transform="translate(1415.1299960762608 223.9495756837727) rotate(0 90.48305734975077 67.58975368294631)"><path d="M180.97 135.18 L166.28 132.12 L173.87 121.96 L180.97 135.18" stroke="none" stroke-width="0" fill="#ffff" fill-rule="evenodd"></path><path d="M180.97 135.18 C175.57 134.06, 170.18 132.93, 166.28 132.12 M180.97 135.18 C176.78 134.31, 172.59 133.44, 166.28 132.12 M166.28 132.12 C168.49 129.16, 170.7 126.2, 173.87 121.96 M166.28 132.12 C168.71 128.87, 171.14 125.62, 173.87 121.96 M173.87 121.96 C175.65 125.29, 177.44 128.61, 180.97 135.18 M173.87 121.96 C175.89 125.73, 177.91 129.49, 180.97 135.18 M180.97 135.18 C180.97 135.18, 180.97 135.18, 180.97 135.18 M180.97 135.18 C180.97 135.18, 180.97 135.18, 180.97 135.18" stroke="#ffff" stroke-width="4" fill="none"></path></g></g><g stroke-linecap="round" transform="translate(1602.6370546805636 362.39955500206594) rotate(0 23.98346098427146 20.167910373137204)"><path d="M47.97 20.17 C47.97 21.34, 47.84 22.52, 47.6 23.67 C47.36 24.82, 47 25.97, 46.52 27.07 C46.05 28.16, 45.45 29.24, 44.75 30.25 C44.06 31.26, 43.25 32.24, 42.36 33.13 C41.46 34.03, 40.46 34.87, 39.4 35.62 C38.34 36.37, 37.18 37.05, 35.98 37.63 C34.77 38.22, 33.49 38.72, 32.19 39.12 C30.88 39.52, 29.52 39.83, 28.15 40.03 C26.78 40.23, 25.37 40.34, 23.98 40.34 C22.6 40.34, 21.19 40.23, 19.82 40.03 C18.45 39.83, 17.09 39.52, 15.78 39.12 C14.48 38.72, 13.19 38.22, 11.99 37.63 C10.79 37.05, 9.63 36.37, 8.57 35.62 C7.5 34.87, 6.5 34.03, 5.61 33.13 C4.72 32.24, 3.91 31.26, 3.21 30.25 C2.52 29.24, 1.92 28.16, 1.45 27.07 C0.97 25.97, 0.61 24.82, 0.36 23.67 C0.12 22.52, 0 21.34, 0 20.17 C0 19, 0.12 17.82, 0.36 16.67 C0.61 15.52, 0.97 14.37, 1.45 13.27 C1.92 12.17, 2.52 11.09, 3.21 10.08 C3.91 9.07, 4.72 8.1, 5.61 7.2 C6.5 6.31, 7.5 5.47, 8.57 4.72 C9.63 3.97, 10.79 3.29, 11.99 2.7 C13.19 2.12, 14.48 1.62, 15.78 1.22 C17.09 0.82, 18.45 0.51, 19.82 0.31 C21.19 0.1, 22.6 0, 23.98 0 C25.37 0, 26.78 0.1, 28.15 0.31 C29.52 0.51, 30.88 0.82, 32.19 1.22 C33.49 1.62, 34.77 2.12, 35.98 2.7 C37.18 3.29, 38.34 3.97, 39.4 4.72 C40.46 5.47, 41.46 6.31, 42.36 7.2 C43.25 8.1, 44.06 9.07, 44.75 10.08 C45.45 11.09, 46.05 12.17, 46.52 13.27 C47 14.37, 47.36 15.52, 47.6 16.67 C47.84 17.82, 47.91 19.58, 47.97 20.17 C48.03 20.75, 48.03 19.58, 47.97 20.17" stroke="#ffff" stroke-width="4" fill="none"></path></g><g stroke-linecap="round"><g transform="translate(1654.9646059189738 382.0223867164697) rotate(0 53.962787214610216 0.5450786587334449)"><path d="M0 0 C17.99 0.18, 89.94 0.91, 107.93 1.09 M0 0 C17.99 0.18, 89.94 0.91, 107.93 1.09" stroke="#ffff" stroke-width="4" fill="none"></path></g><g transform="translate(1654.9646059189738 382.0223867164697) rotate(0 53.962787214610216 0.5450786587334449)"><path d="M107.93 1.09 L94.27 7.29 L94.4 -5.39 L107.93 1.09" stroke="none" stroke-width="0" fill="#ffff" fill-rule="evenodd"></path><path d="M107.93 1.09 C104.61 2.6, 101.29 4.11, 94.27 7.29 M107.93 1.09 C104.71 2.55, 101.5 4.01, 94.27 7.29 M94.27 7.29 C94.29 4.61, 94.32 1.93, 94.4 -5.39 M94.27 7.29 C94.3 4.46, 94.32 1.63, 94.4 -5.39 M94.4 -5.39 C97.88 -3.72, 101.36 -2.05, 107.93 1.09 M94.4 -5.39 C97.14 -4.07, 99.89 -2.76, 107.93 1.09 M107.93 1.09 C107.93 1.09, 107.93 1.09, 107.93 1.09 M107.93 1.09 C107.93 1.09, 107.93 1.09, 107.93 1.09" stroke="#ffff" stroke-width="4" fill="none"></path></g></g><g stroke-linecap="round"><g transform="translate(1769.431124252996 342.7767232876622) rotate(0 1.6352359762001925 43.60629269867505)"><path d="M0 0 C0.55 14.54, 2.73 72.68, 3.27 87.21 M0 0 C0.55 14.54, 2.73 72.68, 3.27 87.21" stroke="#ffff" stroke-width="4" fill="none"></path></g></g><g stroke-linecap="round"><g transform="translate(1277.3923599828836 441.7420288676058) rotate(0 53.795522648428005 -1.9413043253916555)"><path d="M0 0 C17.93 -0.65, 89.66 -3.24, 107.59 -3.88 M0 0 C17.93 -0.65, 89.66 -3.24, 107.59 -3.88" stroke="#ffff" stroke-width="4" fill="none"></path></g><g transform="translate(1277.3923599828836 441.7420288676058) rotate(0 53.795522648428005 -1.9413043253916555)"><path d="M107.59 -3.88 L94.23 2.94 L93.78 -9.73 L107.59 -3.88" stroke="none" stroke-width="0" fill="#ffff" fill-rule="evenodd"></path><path d="M107.59 -3.88 C102.3 -1.18, 97.01 1.52, 94.23 2.94 M107.59 -3.88 C102.85 -1.46, 98.11 0.96, 94.23 2.94 M94.23 2.94 C94.08 -1.29, 93.93 -5.51, 93.78 -9.73 M94.23 2.94 C94.07 -1.69, 93.9 -6.32, 93.78 -9.73 M93.78 -9.73 C98.96 -7.54, 104.14 -5.34, 107.59 -3.88 M93.78 -9.73 C98.33 -7.8, 102.89 -5.87, 107.59 -3.88 M107.59 -3.88 C107.59 -3.88, 107.59 -3.88, 107.59 -3.88 M107.59 -3.88 C107.59 -3.88, 107.59 -3.88, 107.59 -3.88" stroke="#ffff" stroke-width="4" fill="none"></path></g></g><g stroke-linecap="round"><g transform="translate(1392.9610288003464 392.4850843419254) rotate(0 1.455978244043763 45.13532556535503)"><path d="M0 0 C0.49 15.05, 2.43 75.23, 2.91 90.27 M0 0 C0.49 15.05, 2.43 75.23, 2.91 90.27" stroke="#ffff" stroke-width="4" fill="none"></path></g></g><g stroke-linecap="round"><g transform="translate(1393.3268497269232 474.68575870115416) rotate(0 -49.60215794474277 40.88089940500788)"><path d="M0 0 C-16.53 13.63, -82.67 68.13, -99.2 81.76 M0 0 C-16.53 13.63, -82.67 68.13, -99.2 81.76" stroke="#ffff" stroke-width="4" fill="none"></path></g><g transform="translate(1393.3268497269232 474.68575870115416) rotate(0 -49.60215794474277 40.88089940500788)"><path d="M-99.2 81.76 L-92.75 68.22 L-84.68 78.01 L-99.2 81.76" stroke="none" stroke-width="0" fill="#ffff" fill-rule="evenodd"></path><path d="M-99.2 81.76 C-96.66 76.44, -94.12 71.11, -92.75 68.22 M-99.2 81.76 C-97.01 77.16, -94.82 72.56, -92.75 68.22 M-92.75 68.22 C-91.05 70.28, -89.36 72.34, -84.68 78.01 M-92.75 68.22 C-89.66 71.96, -86.58 75.7, -84.68 78.01 M-84.68 78.01 C-87.59 78.76, -90.49 79.51, -99.2 81.76 M-84.68 78.01 C-89.27 79.19, -93.85 80.38, -99.2 81.76 M-99.2 81.76 C-99.2 81.76, -99.2 81.76, -99.2 81.76 M-99.2 81.76 C-99.2 81.76, -99.2 81.76, -99.2 81.76" stroke="#ffff" stroke-width="4" fill="none"></path></g></g><g stroke-linecap="round"><g transform="translate(1397.4257672343963 460.14674953008904) rotate(0 98.49518917783348 -30.588568067650158)"><path d="M0 0 C32.83 -10.2, 164.16 -50.98, 196.99 -61.18 M0 0 C32.83 -10.2, 164.16 -50.98, 196.99 -61.18" stroke="#ffff" stroke-width="4" fill="none"></path></g><g transform="translate(1397.4257672343963 460.14674953008904) rotate(0 98.49518917783348 -30.588568067650158)"><path d="M196.99 -61.18 L185.89 -51.09 L182.13 -63.2 L196.99 -61.18" stroke="none" stroke-width="0" fill="#ffff" fill-rule="evenodd"></path><path d="M196.99 -61.18 C193.62 -58.11, 190.25 -55.05, 185.89 -51.09 M196.99 -61.18 C192.75 -57.32, 188.5 -53.47, 185.89 -51.09 M185.89 -51.09 C184.41 -55.84, 182.94 -60.59, 182.13 -63.2 M185.89 -51.09 C185.06 -53.76, 184.23 -56.42, 182.13 -63.2 M182.13 -63.2 C186.69 -62.58, 191.26 -61.96, 196.99 -61.18 M182.13 -63.2 C185.69 -62.71, 189.26 -62.23, 196.99 -61.18 M196.99 -61.18 C196.99 -61.18, 196.99 -61.18, 196.99 -61.18 M196.99 -61.18 C196.99 -61.18, 196.99 -61.18, 196.99 -61.18" stroke="#ffff" stroke-width="4" fill="none"></path></g></g><g transform="translate(1201.907992179981 267.8238196611259) rotate(0 67.5 12.5)"><text x="0" y="18" font-family="Virgil, Segoe UI Emoji" font-size="20px" fill="#ffff" text-anchor="start" style="white-space: pre;" direction="ltr">Armando caja</text></g><g transform="translate(1186.6457897354446 464.0521368051637) rotate(0 67.5 12.5)"><text x="0" y="18" font-family="Virgil, Segoe UI Emoji" font-size="20px" fill="#ffff" text-anchor="start" style="white-space: pre;" direction="ltr">Armando caja</text></g><g transform="translate(243.65971012659702 229.66831354978513) rotate(0 54.5 12.5)"><text x="0" y="18" font-family="Virgil, Segoe UI Emoji" font-size="20px" fill="#ffff" text-anchor="start" style="white-space: pre;" direction="ltr">Contenedor</text></g><g transform="translate(244.75773331740766 498.7076429165042) rotate(0 54.5 12.5)"><text x="0" y="18" font-family="Virgil, Segoe UI Emoji" font-size="20px" fill="#ffff" text-anchor="start" style="white-space: pre;" direction="ltr">Contenedor</text></g><g transform="translate(1580.1925813409869 417.17537215408794) rotate(0 41.5 12.5)"><text x="0" y="18" font-family="Virgil, Segoe UI Emoji" font-size="20px" fill="#ffff" text-anchor="start" style="white-space: pre;" direction="ltr">deposito</text></g><g transform="translate(1773.1504265326246 369.2084501855454) rotate(0 62.5 12.5)"><text x="0" y="18" font-family="Virgil, Segoe UI Emoji" font-size="20px" fill="#ffff" text-anchor="start" style="white-space: pre;" direction="ltr">Se despacha</text></g><g stroke-linecap="round" transform="translate(567.3926006406771 11.998569360127817) rotate(0 26.207608392786824 22.81032582335149)"><path d="M52.42 22.81 C52.42 24.13, 52.28 25.47, 52.02 26.77 C51.75 28.07, 51.35 29.37, 50.83 30.61 C50.32 31.85, 49.66 33.07, 48.9 34.22 C48.15 35.36, 47.26 36.46, 46.28 37.47 C45.31 38.48, 44.22 39.44, 43.05 40.28 C41.89 41.13, 40.63 41.9, 39.31 42.56 C38 43.22, 36.6 43.79, 35.17 44.25 C33.75 44.7, 32.25 45.04, 30.76 45.27 C29.26 45.5, 27.72 45.62, 26.21 45.62 C24.69 45.62, 23.15 45.5, 21.66 45.27 C20.16 45.04, 18.67 44.7, 17.24 44.25 C15.82 43.79, 14.42 43.22, 13.1 42.56 C11.79 41.9, 10.52 41.13, 9.36 40.28 C8.2 39.44, 7.11 38.48, 6.13 37.47 C5.16 36.46, 4.27 35.36, 3.51 34.22 C2.75 33.07, 2.1 31.85, 1.58 30.61 C1.06 29.37, 0.66 28.07, 0.4 26.77 C0.13 25.47, 0 24.13, 0 22.81 C0 21.49, 0.13 20.15, 0.4 18.85 C0.66 17.55, 1.06 16.25, 1.58 15.01 C2.1 13.77, 2.75 12.55, 3.51 11.41 C4.27 10.26, 5.16 9.16, 6.13 8.15 C7.11 7.14, 8.2 6.19, 9.36 5.34 C10.52 4.49, 11.79 3.72, 13.1 3.06 C14.42 2.4, 15.82 1.83, 17.24 1.38 C18.67 0.92, 20.16 0.58, 21.66 0.35 C23.15 0.12, 24.69 0, 26.21 0 C27.72 0, 29.26 0.12, 30.76 0.35 C32.25 0.58, 33.75 0.92, 35.17 1.38 C36.6 1.83, 38 2.4, 39.31 3.06 C40.63 3.72, 41.89 4.49, 43.05 5.34 C44.22 6.19, 45.31 7.14, 46.28 8.15 C47.26 9.16, 48.15 10.26, 48.9 11.41 C49.66 12.55, 50.32 13.77, 50.83 15.01 C51.35 16.25, 51.75 17.55, 52.02 18.85 C52.28 20.15, 52.35 22.15, 52.42 22.81 C52.48 23.47, 52.48 22.15, 52.42 22.81" stroke="#ffff" stroke-width="4" fill="none"></path></g><g stroke-linecap="round"><g transform="translate(569.6167480491927 45.71046835814812) rotate(0 -59.958652460678195 53.96278721461036)"><path d="M0 0 C-19.99 17.99, -99.93 89.94, -119.92 107.93 M0 0 C-19.99 17.99, -99.93 89.94, -119.92 107.93" stroke="#ffff" stroke-width="4" fill="none"></path></g><g transform="translate(569.6167480491927 45.71046835814812) rotate(0 -59.958652460678195 53.96278721461036)"><path d="M-119.92 107.93 L-114.05 94.12 L-105.57 103.54 L-119.92 107.93" stroke="none" stroke-width="0" fill="#ffff" fill-rule="evenodd"></path><path d="M-119.92 107.93 C-117.6 102.48, -115.29 97.03, -114.05 94.12 M-119.92 107.93 C-118.37 104.28, -116.82 100.64, -114.05 94.12 M-114.05 94.12 C-111.37 97.1, -108.68 100.09, -105.57 103.54 M-114.05 94.12 C-110.98 97.53, -107.91 100.95, -105.57 103.54 M-105.57 103.54 C-110.18 104.95, -114.78 106.36, -119.92 107.93 M-105.57 103.54 C-110.83 105.15, -116.1 106.76, -119.92 107.93 M-119.92 107.93 C-119.92 107.93, -119.92 107.93, -119.92 107.93 M-119.92 107.93 C-119.92 107.93, -119.92 107.93, -119.92 107.93" stroke="#ffff" stroke-width="4" fill="none"></path></g></g><g stroke-linecap="round"><g transform="translate(762.5745932408297 246.29941477205332) rotate(0 -67.58975368294625 -100.2944732069526)"><path d="M0 0 C-22.53 -33.43, -112.65 -167.16, -135.18 -200.59 M0 0 C-22.53 -33.43, -112.65 -167.16, -135.18 -200.59" stroke="#ffff" stroke-width="4" fill="none"></path></g><g transform="translate(762.5745932408297 246.29941477205332) rotate(0 -67.58975368294625 -100.2944732069526)"><path d="M-135.18 -200.59 L-122.33 -192.86 L-132.84 -185.77 L-135.18 -200.59" stroke="none" stroke-width="0" fill="#ffff" fill-rule="evenodd"></path><path d="M-135.18 -200.59 C-130.46 -197.75, -125.75 -194.92, -122.33 -192.86 M-135.18 -200.59 C-132.38 -198.9, -129.58 -197.22, -122.33 -192.86 M-122.33 -192.86 C-126.46 -190.07, -130.6 -187.28, -132.84 -185.77 M-122.33 -192.86 C-125.31 -190.85, -128.3 -188.83, -132.84 -185.77 M-132.84 -185.77 C-133.58 -190.47, -134.32 -195.18, -135.18 -200.59 M-132.84 -185.77 C-133.5 -189.98, -134.17 -194.2, -135.18 -200.59 M-135.18 -200.59 C-135.18 -200.59, -135.18 -200.59, -135.18 -200.59 M-135.18 -200.59 C-135.18 -200.59, -135.18 -200.59, -135.18 -200.59" stroke="#ffff" stroke-width="4" fill="none"></path></g></g><g stroke-linecap="round" transform="translate(582.0907121783177 175.25838651824083) rotate(0 8.17617988100153 8.721258539735018)"><path d="M16.35 8.72 C16.35 9.23, 16.31 9.74, 16.23 10.24 C16.15 10.73, 16.02 11.23, 15.86 11.7 C15.7 12.18, 15.49 12.64, 15.26 13.08 C15.02 13.52, 14.74 13.94, 14.44 14.33 C14.14 14.71, 13.79 15.08, 13.43 15.4 C13.07 15.73, 12.67 16.02, 12.26 16.27 C11.85 16.53, 11.42 16.74, 10.97 16.92 C10.53 17.09, 10.06 17.22, 9.6 17.31 C9.13 17.4, 8.65 17.44, 8.18 17.44 C7.7 17.44, 7.22 17.4, 6.76 17.31 C6.29 17.22, 5.82 17.09, 5.38 16.92 C4.94 16.74, 4.5 16.53, 4.09 16.27 C3.68 16.02, 3.28 15.73, 2.92 15.4 C2.56 15.08, 2.22 14.71, 1.91 14.33 C1.61 13.94, 1.33 13.52, 1.1 13.08 C0.86 12.64, 0.65 12.18, 0.49 11.7 C0.33 11.23, 0.21 10.73, 0.12 10.24 C0.04 9.74, 0 9.23, 0 8.72 C0 8.22, 0.04 7.7, 0.12 7.21 C0.21 6.71, 0.33 6.21, 0.49 5.74 C0.65 5.26, 0.86 4.8, 1.1 4.36 C1.33 3.92, 1.61 3.5, 1.91 3.12 C2.22 2.73, 2.56 2.36, 2.92 2.04 C3.28 1.72, 3.68 1.42, 4.09 1.17 C4.5 0.92, 4.94 0.7, 5.38 0.53 C5.82 0.35, 6.29 0.22, 6.76 0.13 C7.22 0.04, 7.7 0, 8.18 0 C8.65 0, 9.13 0.04, 9.6 0.13 C10.06 0.22, 10.53 0.35, 10.97 0.53 C11.42 0.7, 11.85 0.92, 12.26 1.17 C12.67 1.42, 13.07 1.72, 13.43 2.04 C13.79 2.36, 14.14 2.73, 14.44 3.12 C14.74 3.5, 15.02 3.92, 15.26 4.36 C15.49 4.8, 15.7 5.26, 15.86 5.74 C16.02 6.21, 16.15 6.71, 16.23 7.21 C16.31 7.7, 16.33 8.47, 16.35 8.72 C16.37 8.97, 16.37 8.47, 16.35 8.72" stroke="none" stroke-width="0" fill="#ffff"></path><path d="M16.35 8.72 C16.35 9.23, 16.31 9.74, 16.23 10.24 C16.15 10.73, 16.02 11.23, 15.86 11.7 C15.7 12.18, 15.49 12.64, 15.26 13.08 C15.02 13.52, 14.74 13.94, 14.44 14.33 C14.14 14.71, 13.79 15.08, 13.43 15.4 C13.07 15.73, 12.67 16.02, 12.26 16.27 C11.85 16.53, 11.42 16.74, 10.97 16.92 C10.53 17.09, 10.06 17.22, 9.6 17.31 C9.13 17.4, 8.65 17.44, 8.18 17.44 C7.7 17.44, 7.22 17.4, 6.76 17.31 C6.29 17.22, 5.82 17.09, 5.38 16.92 C4.94 16.74, 4.5 16.53, 4.09 16.27 C3.68 16.02, 3.28 15.73, 2.92 15.4 C2.56 15.08, 2.22 14.71, 1.91 14.33 C1.61 13.94, 1.33 13.52, 1.1 13.08 C0.86 12.64, 0.65 12.18, 0.49 11.7 C0.33 11.23, 0.21 10.73, 0.12 10.24 C0.04 9.74, 0 9.23, 0 8.72 C0 8.22, 0.04 7.7, 0.12 7.21 C0.21 6.71, 0.33 6.21, 0.49 5.74 C0.65 5.26, 0.86 4.8, 1.1 4.36 C1.33 3.92, 1.61 3.5, 1.91 3.12 C2.22 2.73, 2.56 2.36, 2.92 2.04 C3.28 1.72, 3.68 1.42, 4.09 1.17 C4.5 0.92, 4.94 0.7, 5.38 0.53 C5.82 0.35, 6.29 0.22, 6.76 0.13 C7.22 0.04, 7.7 0, 8.18 0 C8.65 0, 9.13 0.04, 9.6 0.13 C10.06 0.22, 10.53 0.35, 10.97 0.53 C11.42 0.7, 11.85 0.92, 12.26 1.17 C12.67 1.42, 13.07 1.72, 13.43 2.04 C13.79 2.36, 14.14 2.73, 14.44 3.12 C14.74 3.5, 15.02 3.92, 15.26 4.36 C15.49 4.8, 15.7 5.26, 15.86 5.74 C16.02 6.21, 16.15 6.71, 16.23 7.21 C16.31 7.7, 16.33 8.47, 16.35 8.72 C16.37 8.97, 16.37 8.47, 16.35 8.72" stroke="#ffff" stroke-width="4" fill="none"></path></g><g stroke-linecap="round" transform="translate(581.5646457677465 587.6016329826386) rotate(0 26.207608392786824 22.81032582335149)"><path d="M52.42 22.81 C52.42 24.13, 52.28 25.47, 52.02 26.77 C51.75 28.07, 51.35 29.37, 50.83 30.61 C50.32 31.85, 49.66 33.07, 48.9 34.22 C48.15 35.36, 47.26 36.46, 46.28 37.47 C45.31 38.48, 44.22 39.44, 43.05 40.28 C41.89 41.13, 40.63 41.9, 39.31 42.56 C38 43.22, 36.6 43.79, 35.17 44.25 C33.75 44.7, 32.25 45.04, 30.76 45.27 C29.26 45.5, 27.72 45.62, 26.21 45.62 C24.69 45.62, 23.15 45.5, 21.66 45.27 C20.16 45.04, 18.67 44.7, 17.24 44.25 C15.82 43.79, 14.42 43.22, 13.1 42.56 C11.79 41.9, 10.52 41.13, 9.36 40.28 C8.2 39.44, 7.11 38.48, 6.13 37.47 C5.16 36.46, 4.27 35.36, 3.51 34.22 C2.75 33.07, 2.1 31.85, 1.58 30.61 C1.06 29.37, 0.66 28.07, 0.4 26.77 C0.13 25.47, 0 24.13, 0 22.81 C0 21.49, 0.13 20.15, 0.4 18.85 C0.66 17.55, 1.06 16.25, 1.58 15.01 C2.1 13.77, 2.75 12.55, 3.51 11.41 C4.27 10.26, 5.16 9.16, 6.13 8.15 C7.11 7.14, 8.2 6.19, 9.36 5.34 C10.52 4.49, 11.79 3.72, 13.1 3.06 C14.42 2.4, 15.82 1.83, 17.24 1.38 C18.67 0.92, 20.16 0.58, 21.66 0.35 C23.15 0.12, 24.69 0, 26.21 0 C27.72 0, 29.26 0.12, 30.76 0.35 C32.25 0.58, 33.75 0.92, 35.17 1.38 C36.6 1.83, 38 2.4, 39.31 3.06 C40.63 3.72, 41.89 4.49, 43.05 5.34 C44.22 6.19, 45.31 7.14, 46.28 8.15 C47.26 9.16, 48.15 10.26, 48.9 11.41 C49.66 12.55, 50.32 13.77, 50.83 15.01 C51.35 16.25, 51.75 17.55, 52.02 18.85 C52.28 20.15, 52.35 22.15, 52.42 22.81 C52.48 23.47, 52.48 22.15, 52.42 22.81" stroke="#ffff" stroke-width="4" fill="none"></path></g><g stroke-linecap="round"><g transform="translate(577.2478492714608 609.3218014885231) rotate(0 -62.68404575434539 -61.5938884368785)"><path d="M0 0 C-20.89 -20.53, -104.47 -102.66, -125.37 -123.19 M0 0 C-20.89 -20.53, -104.47 -102.66, -125.37 -123.19" stroke="#ffff" stroke-width="4" fill="none"></path></g><g transform="translate(577.2478492714608 609.3218014885231) rotate(0 -62.68404575434539 -61.5938884368785)"><path d="M-125.37 -123.19 L-111.23 -118.18 L-120.11 -109.14 L-125.37 -123.19" stroke="none" stroke-width="0" fill="#ffff" fill-rule="evenodd"></path><path d="M-125.37 -123.19 C-121.34 -121.76, -117.31 -120.34, -111.23 -118.18 M-125.37 -123.19 C-120.28 -121.39, -115.19 -119.58, -111.23 -118.18 M-111.23 -118.18 C-113.42 -115.95, -115.62 -113.71, -120.11 -109.14 M-111.23 -118.18 C-114.37 -114.98, -117.51 -111.79, -120.11 -109.14 M-120.11 -109.14 C-121.25 -112.18, -122.39 -115.23, -125.37 -123.19 M-120.11 -109.14 C-121.6 -113.12, -123.09 -117.1, -125.37 -123.19 M-125.37 -123.19 C-125.37 -123.19, -125.37 -123.19, -125.37 -123.19 M-125.37 -123.19 C-125.37 -123.19, -125.37 -123.19, -125.37 -123.19" stroke="#ffff" stroke-width="4" fill="none"></path></g></g><g stroke-linecap="round" transform="translate(600.686231596999 602.7808575837219) rotate(0 8.17617988100153 8.721258539735004)"><path d="M16.35 8.72 C16.35 9.23, 16.31 9.74, 16.23 10.24 C16.15 10.73, 16.02 11.23, 15.86 11.7 C15.7 12.18, 15.49 12.64, 15.26 13.08 C15.02 13.52, 14.74 13.94, 14.44 14.33 C14.14 14.71, 13.79 15.08, 13.43 15.4 C13.07 15.73, 12.67 16.02, 12.26 16.27 C11.85 16.53, 11.42 16.74, 10.97 16.92 C10.53 17.09, 10.06 17.22, 9.6 17.31 C9.13 17.4, 8.65 17.44, 8.18 17.44 C7.7 17.44, 7.22 17.4, 6.76 17.31 C6.29 17.22, 5.82 17.09, 5.38 16.92 C4.94 16.74, 4.5 16.53, 4.09 16.27 C3.68 16.02, 3.28 15.73, 2.92 15.4 C2.56 15.08, 2.22 14.71, 1.91 14.33 C1.61 13.94, 1.33 13.52, 1.1 13.08 C0.86 12.64, 0.65 12.18, 0.49 11.7 C0.33 11.23, 0.21 10.73, 0.12 10.24 C0.04 9.74, 0 9.23, 0 8.72 C0 8.22, 0.04 7.7, 0.12 7.21 C0.21 6.71, 0.33 6.21, 0.49 5.74 C0.65 5.26, 0.86 4.8, 1.1 4.36 C1.33 3.92, 1.61 3.5, 1.91 3.12 C2.22 2.73, 2.56 2.36, 2.92 2.04 C3.28 1.72, 3.68 1.42, 4.09 1.17 C4.5 0.92, 4.94 0.7, 5.38 0.53 C5.82 0.35, 6.29 0.22, 6.76 0.13 C7.22 0.04, 7.7 0, 8.18 0 C8.65 0, 9.13 0.04, 9.6 0.13 C10.06 0.22, 10.53 0.35, 10.97 0.53 C11.42 0.7, 11.85 0.92, 12.26 1.17 C12.67 1.42, 13.07 1.72, 13.43 2.04 C13.79 2.36, 14.14 2.73, 14.44 3.12 C14.74 3.5, 15.02 3.92, 15.26 4.36 C15.49 4.8, 15.7 5.26, 15.86 5.74 C16.02 6.21, 16.15 6.71, 16.23 7.21 C16.31 7.7, 16.33 8.47, 16.35 8.72 C16.37 8.97, 16.37 8.47, 16.35 8.72" stroke="none" stroke-width="0" fill="#ffff"></path><path d="M16.35 8.72 C16.35 9.23, 16.31 9.74, 16.23 10.24 C16.15 10.73, 16.02 11.23, 15.86 11.7 C15.7 12.18, 15.49 12.64, 15.26 13.08 C15.02 13.52, 14.74 13.94, 14.44 14.33 C14.14 14.71, 13.79 15.08, 13.43 15.4 C13.07 15.73, 12.67 16.02, 12.26 16.27 C11.85 16.53, 11.42 16.74, 10.97 16.92 C10.53 17.09, 10.06 17.22, 9.6 17.31 C9.13 17.4, 8.65 17.44, 8.18 17.44 C7.7 17.44, 7.22 17.4, 6.76 17.31 C6.29 17.22, 5.82 17.09, 5.38 16.92 C4.94 16.74, 4.5 16.53, 4.09 16.27 C3.68 16.02, 3.28 15.73, 2.92 15.4 C2.56 15.08, 2.22 14.71, 1.91 14.33 C1.61 13.94, 1.33 13.52, 1.1 13.08 C0.86 12.64, 0.65 12.18, 0.49 11.7 C0.33 11.23, 0.21 10.73, 0.12 10.24 C0.04 9.74, 0 9.23, 0 8.72 C0 8.22, 0.04 7.7, 0.12 7.21 C0.21 6.71, 0.33 6.21, 0.49 5.74 C0.65 5.26, 0.86 4.8, 1.1 4.36 C1.33 3.92, 1.61 3.5, 1.91 3.12 C2.22 2.73, 2.56 2.36, 2.92 2.04 C3.28 1.72, 3.68 1.42, 4.09 1.17 C4.5 0.92, 4.94 0.7, 5.38 0.53 C5.82 0.35, 6.29 0.22, 6.76 0.13 C7.22 0.04, 7.7 0, 8.18 0 C8.65 0, 9.13 0.04, 9.6 0.13 C10.06 0.22, 10.53 0.35, 10.97 0.53 C11.42 0.7, 11.85 0.92, 12.26 1.17 C12.67 1.42, 13.07 1.72, 13.43 2.04 C13.79 2.36, 14.14 2.73, 14.44 3.12 C14.74 3.5, 15.02 3.92, 15.26 4.36 C15.49 4.8, 15.7 5.26, 15.86 5.74 C16.02 6.21, 16.15 6.71, 16.23 7.21 C16.31 7.7, 16.33 8.47, 16.35 8.72 C16.37 8.97, 16.37 8.47, 16.35 8.72" stroke="#ffff" stroke-width="4" fill="none"></path></g><g stroke-linecap="round"><g transform="translate(769.1155371456309 409.82301239208476) rotate(0 -65.40943904801259 93.2084506434179)"><path d="M0 0 C-21.8 31.07, -109.02 155.35, -130.82 186.42 M0 0 C-21.8 31.07, -109.02 155.35, -130.82 186.42" stroke="#ffff" stroke-width="4" fill="none"></path></g><g transform="translate(769.1155371456309 409.82301239208476) rotate(0 -65.40943904801259 93.2084506434179)"><path d="M-130.82 186.42 L-128.2 171.65 L-117.82 178.93 L-130.82 186.42" stroke="none" stroke-width="0" fill="#ffff" fill-rule="evenodd"></path><path d="M-130.82 186.42 C-130.26 183.24, -129.69 180.06, -128.2 171.65 M-130.82 186.42 C-130.21 183.01, -129.61 179.61, -128.2 171.65 M-128.2 171.65 C-124.36 174.34, -120.53 177.03, -117.82 178.93 M-128.2 171.65 C-126.12 173.1, -124.05 174.56, -117.82 178.93 M-117.82 178.93 C-121.82 181.24, -125.83 183.54, -130.82 186.42 M-117.82 178.93 C-122.62 181.7, -127.43 184.46, -130.82 186.42 M-130.82 186.42 C-130.82 186.42, -130.82 186.42, -130.82 186.42 M-130.82 186.42 C-130.82 186.42, -130.82 186.42, -130.82 186.42" stroke="#ffff" stroke-width="4" fill="none"></path></g></g></svg>