<svg version="1.1" xmlns="http://www.w3.org/2000/svg" viewBox="0 0 1857.8452380952385 399.3214285714284" width="1857.8452380952385" height="399.3214285714284">
  <!-- svg-source:excalidraw -->
  
  <defs>
    <style>
      @font-face {
        font-family: "Virgil";
        src: url("https://excalidraw.com/Virgil.woff2");
      }
      @font-face {
        font-family: "Cascadia";
        src: url("https://excalidraw.com/Cascadia.woff2");
      }
    </style>
  </defs>
  <rect x="0" y="0" width="1857.8452380952385" height="399.3214285714284" fill="#ffffff"></rect><g stroke-linecap="round"><g transform="translate(80.36754176610975 197.33097511080786) rotate(0 0.4343675417661075 50.38663484486875)"><path d="M0 0 C0.14 16.8, 0.72 83.98, 0.87 100.77 M0 0 C0.14 16.8, 0.72 83.98, 0.87 100.77" stroke="#000000" stroke-width="2" fill="none"></path></g></g><g stroke-linecap="round"><g transform="translate(81.23627684964197 245.1114047050799) rotate(0 54.73031030728879 -0.43436754212083883)"><path d="M0 0 C18.24 -0.14, 91.22 -0.72, 109.46 -0.87 M0 0 C18.24 -0.14, 91.22 -0.72, 109.46 -0.87" stroke="#000000" stroke-width="2" fill="none"></path></g><g transform="translate(81.23627684964197 245.1114047050799) rotate(0 54.73031030728879 -0.43436754212083883)"><path d="M109.46 -0.87 L95.92 5.58 L95.82 -7.1 L109.46 -0.87" stroke="none" stroke-width="0" fill="#000000" fill-rule="evenodd"></path><path d="M109.46 -0.87 C106.66 0.46, 103.87 1.79, 95.92 5.58 M109.46 -0.87 C104.97 1.27, 100.49 3.4, 95.92 5.58 M95.92 5.58 C95.89 2.28, 95.86 -1.01, 95.82 -7.1 M95.92 5.58 C95.89 2.62, 95.87 -0.35, 95.82 -7.1 M95.82 -7.1 C99 -5.64, 102.19 -4.19, 109.46 -0.87 M95.82 -7.1 C101.14 -4.67, 106.46 -2.24, 109.46 -0.87 M109.46 -0.87 C109.46 -0.87, 109.46 -0.87, 109.46 -0.87 M109.46 -0.87 C109.46 -0.87, 109.46 -0.87, 109.46 -0.87" stroke="#000000" stroke-width="2" fill="none"></path></g></g><g stroke-linecap="round" transform="translate(194.1718377088306 206.88706102966228) rotate(0 37.78997613365158 38.22434367541766)"><path d="M75.58 38.22 C75.58 40.22, 75.42 42.24, 75.11 44.2 C74.81 46.17, 74.34 48.14, 73.73 50.04 C73.12 51.93, 72.36 53.8, 71.46 55.58 C70.57 57.35, 69.52 59.08, 68.36 60.69 C67.2 62.3, 65.9 63.84, 64.51 65.25 C63.12 66.66, 61.6 67.98, 60 69.15 C58.41 70.32, 56.7 71.38, 54.95 72.28 C53.19 73.19, 51.34 73.96, 49.47 74.58 C47.59 75.19, 45.65 75.67, 43.7 75.98 C41.76 76.29, 39.76 76.45, 37.79 76.45 C35.82 76.45, 33.82 76.29, 31.88 75.98 C29.93 75.67, 27.99 75.19, 26.11 74.58 C24.24 73.96, 22.39 73.19, 20.63 72.28 C18.88 71.38, 17.17 70.32, 15.58 69.15 C13.98 67.98, 12.46 66.66, 11.07 65.25 C9.68 63.84, 8.38 62.3, 7.22 60.69 C6.06 59.08, 5.01 57.35, 4.12 55.58 C3.22 53.8, 2.46 51.93, 1.85 50.04 C1.24 48.14, 0.77 46.17, 0.47 44.2 C0.16 42.24, 0 40.22, 0 38.22 C0 36.23, 0.16 34.21, 0.47 32.24 C0.77 30.28, 1.24 28.31, 1.85 26.41 C2.46 24.52, 3.22 22.65, 4.12 20.87 C5.01 19.09, 6.06 17.37, 7.22 15.76 C8.38 14.14, 9.68 12.61, 11.07 11.2 C12.46 9.79, 13.98 8.47, 15.58 7.3 C17.17 6.13, 18.88 5.07, 20.63 4.17 C22.39 3.26, 24.24 2.49, 26.11 1.87 C27.99 1.25, 29.93 0.78, 31.88 0.47 C33.82 0.16, 35.82 0, 37.79 0 C39.76 0, 41.76 0.16, 43.7 0.47 C45.65 0.78, 47.59 1.25, 49.47 1.87 C51.34 2.49, 53.19 3.26, 54.95 4.17 C56.7 5.07, 58.41 6.13, 60 7.3 C61.6 8.47, 63.12 9.79, 64.51 11.2 C65.9 12.61, 67.2 14.14, 68.36 15.76 C69.52 17.37, 70.57 19.09, 71.46 20.87 C72.36 22.65, 73.12 24.52, 73.73 26.41 C74.34 28.31, 74.81 30.28, 75.11 32.24 C75.42 34.21, 75.5 37.23, 75.58 38.22 C75.66 39.22, 75.66 37.23, 75.58 38.22" stroke="#000000" stroke-width="2" fill="none"></path></g><g stroke-linecap="round"><g transform="translate(270.62052505966585 246.41450733037829) rotate(0 54.73031026252983 -0.4343675417661075)"><path d="M0 0 C18.24 -0.14, 91.22 -0.72, 109.46 -0.87 M0 0 C18.24 -0.14, 91.22 -0.72, 109.46 -0.87" stroke="#000000" stroke-width="2" fill="none"></path></g><g transform="translate(270.62052505966585 246.41450733037829) rotate(0 54.73031026252983 -0.4343675417661075)"><path d="M109.46 -0.87 L95.92 5.58 L95.82 -7.1 L109.46 -0.87" stroke="none" stroke-width="0" fill="#000000" fill-rule="evenodd"></path><path d="M109.46 -0.87 C105.09 1.21, 100.72 3.29, 95.92 5.58 M109.46 -0.87 C105.47 1.03, 101.48 2.93, 95.92 5.58 M95.92 5.58 C95.88 1.32, 95.85 -2.94, 95.82 -7.1 M95.92 5.58 C95.89 2.72, 95.87 -0.13, 95.82 -7.1 M95.82 -7.1 C99.51 -5.41, 103.2 -3.73, 109.46 -0.87 M95.82 -7.1 C100 -5.19, 104.18 -3.28, 109.46 -0.87 M109.46 -0.87 C109.46 -0.87, 109.46 -0.87, 109.46 -0.87 M109.46 -0.87 C109.46 -0.87, 109.46 -0.87, 109.46 -0.87" stroke="#000000" stroke-width="2" fill="none"></path></g></g><g stroke-linecap="round"><g transform="translate(383.99045346062053 203.41212069553336) rotate(0 0.4343675417661075 50.38663484486875)"><path d="M0 0 C0.14 16.8, 0.72 83.98, 0.87 100.77 M0 0 C0.14 16.8, 0.72 83.98, 0.87 100.77" stroke="#000000" stroke-width="2" fill="none"></path></g></g><g stroke-linecap="round"><g transform="translate(386.1622911694511 248.15197749744272) rotate(0 54.73031056989362 -0.4343675442055428)"><path d="M0 0 C18.24 -0.14, 91.22 -0.72, 109.46 -0.87 M0 0 C18.24 -0.14, 91.22 -0.72, 109.46 -0.87" stroke="#000000" stroke-width="2" fill="none"></path></g><g transform="translate(386.1622911694511 248.15197749744272) rotate(0 54.73031056989362 -0.4343675442055428)"><path d="M109.46 -0.87 L95.92 5.58 L95.82 -7.1 L109.46 -0.87" stroke="none" stroke-width="0" fill="#000000" fill-rule="evenodd"></path><path d="M109.46 -0.87 C106 0.78, 102.55 2.42, 95.92 5.58 M109.46 -0.87 C105.23 1.14, 101 3.16, 95.92 5.58 M95.92 5.58 C95.89 2.73, 95.87 -0.12, 95.82 -7.1 M95.92 5.58 C95.88 1.52, 95.85 -2.53, 95.82 -7.1 M95.82 -7.1 C101.09 -4.69, 106.37 -2.28, 109.46 -0.87 M95.82 -7.1 C99.09 -5.6, 102.36 -4.11, 109.46 -0.87 M109.46 -0.87 C109.46 -0.87, 109.46 -0.87, 109.46 -0.87 M109.46 -0.87 C109.46 -0.87, 109.46 -0.87, 109.46 -0.87" stroke="#000000" stroke-width="2" fill="none"></path></g></g><g stroke-linecap="round" transform="translate(499.5322195704057 211.23073644732335) rotate(0 37.78997613365152 38.22434367541766)"><path d="M75.58 38.22 C75.58 40.22, 75.42 42.24, 75.11 44.2 C74.81 46.17, 74.34 48.14, 73.73 50.04 C73.12 51.93, 72.36 53.8, 71.46 55.58 C70.57 57.35, 69.52 59.08, 68.36 60.69 C67.2 62.3, 65.9 63.84, 64.51 65.25 C63.12 66.66, 61.6 67.98, 60 69.15 C58.41 70.32, 56.7 71.38, 54.95 72.28 C53.19 73.19, 51.34 73.96, 49.47 74.58 C47.59 75.19, 45.65 75.67, 43.7 75.98 C41.76 76.29, 39.76 76.45, 37.79 76.45 C35.82 76.45, 33.82 76.29, 31.88 75.98 C29.93 75.67, 27.99 75.19, 26.11 74.58 C24.24 73.96, 22.39 73.19, 20.63 72.28 C18.88 71.38, 17.17 70.32, 15.58 69.15 C13.98 67.98, 12.46 66.66, 11.07 65.25 C9.68 63.84, 8.38 62.3, 7.22 60.69 C6.06 59.08, 5.01 57.35, 4.12 55.58 C3.22 53.8, 2.46 51.93, 1.85 50.04 C1.24 48.14, 0.77 46.17, 0.47 44.2 C0.16 42.24, 0 40.22, 0 38.22 C0 36.23, 0.16 34.21, 0.47 32.24 C0.77 30.28, 1.24 28.31, 1.85 26.41 C2.46 24.52, 3.22 22.65, 4.12 20.87 C5.01 19.09, 6.06 17.37, 7.22 15.76 C8.38 14.14, 9.68 12.61, 11.07 11.2 C12.46 9.79, 13.98 8.47, 15.58 7.3 C17.17 6.13, 18.88 5.07, 20.63 4.17 C22.39 3.26, 24.24 2.49, 26.11 1.87 C27.99 1.25, 29.93 0.78, 31.88 0.47 C33.82 0.16, 35.82 0, 37.79 0 C39.76 0, 41.76 0.16, 43.7 0.47 C45.65 0.78, 47.59 1.25, 49.47 1.87 C51.34 2.49, 53.19 3.26, 54.95 4.17 C56.7 5.07, 58.41 6.13, 60 7.3 C61.6 8.47, 63.12 9.79, 64.51 11.2 C65.9 12.61, 67.2 14.14, 68.36 15.76 C69.52 17.37, 70.57 19.09, 71.46 20.87 C72.36 22.65, 73.12 24.52, 73.73 26.41 C74.34 28.31, 74.81 30.28, 75.11 32.24 C75.42 34.21, 75.5 37.23, 75.58 38.22 C75.66 39.22, 75.66 37.23, 75.58 38.22" stroke="#000000" stroke-width="2" fill="none"></path></g><g stroke-linecap="round" transform="translate(496.92601431980916 59.20209682918494) rotate(0 37.78997613365152 38.22434367541766)"><path d="M75.58 38.22 C75.58 40.22, 75.42 42.24, 75.11 44.2 C74.81 46.17, 74.34 48.14, 73.73 50.04 C73.12 51.93, 72.36 53.8, 71.46 55.58 C70.57 57.35, 69.52 59.08, 68.36 60.69 C67.2 62.3, 65.9 63.84, 64.51 65.25 C63.12 66.66, 61.6 67.98, 60 69.15 C58.41 70.32, 56.7 71.38, 54.95 72.28 C53.19 73.19, 51.34 73.96, 49.47 74.58 C47.59 75.19, 45.65 75.67, 43.7 75.98 C41.76 76.29, 39.76 76.45, 37.79 76.45 C35.82 76.45, 33.82 76.29, 31.88 75.98 C29.93 75.67, 27.99 75.19, 26.11 74.58 C24.24 73.96, 22.39 73.19, 20.63 72.28 C18.88 71.38, 17.17 70.32, 15.58 69.15 C13.98 67.98, 12.46 66.66, 11.07 65.25 C9.68 63.84, 8.38 62.3, 7.22 60.69 C6.06 59.08, 5.01 57.35, 4.12 55.58 C3.22 53.8, 2.46 51.93, 1.85 50.04 C1.24 48.14, 0.77 46.17, 0.47 44.2 C0.16 42.24, 0 40.22, 0 38.22 C0 36.23, 0.16 34.21, 0.47 32.24 C0.77 30.28, 1.24 28.31, 1.85 26.41 C2.46 24.52, 3.22 22.65, 4.12 20.87 C5.01 19.09, 6.06 17.37, 7.22 15.76 C8.38 14.14, 9.68 12.61, 11.07 11.2 C12.46 9.79, 13.98 8.47, 15.58 7.3 C17.17 6.13, 18.88 5.07, 20.63 4.17 C22.39 3.26, 24.24 2.49, 26.11 1.87 C27.99 1.25, 29.93 0.78, 31.88 0.47 C33.82 0.16, 35.82 0, 37.79 0 C39.76 0, 41.76 0.16, 43.7 0.47 C45.65 0.78, 47.59 1.25, 49.47 1.87 C51.34 2.49, 53.19 3.26, 54.95 4.17 C56.7 5.07, 58.41 6.13, 60 7.3 C61.6 8.47, 63.12 9.79, 64.51 11.2 C65.9 12.61, 67.2 14.14, 68.36 15.76 C69.52 17.37, 70.57 19.09, 71.46 20.87 C72.36 22.65, 73.12 24.52, 73.73 26.41 C74.34 28.31, 74.81 30.28, 75.11 32.24 C75.42 34.21, 75.5 37.23, 75.58 38.22 C75.66 39.22, 75.66 37.23, 75.58 38.22" stroke="#000000" stroke-width="2" fill="none"></path></g><g stroke-linecap="round"><g transform="translate(505.17899761336525 123.48849301056919) rotate(0 -59.508353221957066 51.25536992840097)"><path d="M0 0 C-19.84 17.09, -99.18 85.43, -119.02 102.51 M0 0 C-19.84 17.09, -99.18 85.43, -119.02 102.51" stroke="#000000" stroke-width="2" fill="none"></path></g><g transform="translate(505.17899761336525 123.48849301056919) rotate(0 -59.508353221957066 51.25536992840097)"><path d="M-119.02 102.51 L-112.85 88.84 L-104.58 98.44 L-119.02 102.51" stroke="none" stroke-width="0" fill="#000000" fill-rule="evenodd"></path><path d="M-119.02 102.51 C-116.74 97.47, -114.47 92.42, -112.85 88.84 M-119.02 102.51 C-117.07 98.2, -115.13 93.89, -112.85 88.84 M-112.85 88.84 C-110.63 91.42, -108.41 94, -104.58 98.44 M-112.85 88.84 C-109.77 92.42, -106.68 96.01, -104.58 98.44 M-104.58 98.44 C-109.87 99.93, -115.17 101.43, -119.02 102.51 M-104.58 98.44 C-108.94 99.67, -113.3 100.9, -119.02 102.51 M-119.02 102.51 C-119.02 102.51, -119.02 102.51, -119.02 102.51 M-119.02 102.51 C-119.02 102.51, -119.02 102.51, -119.02 102.51" stroke="#000000" stroke-width="2" fill="none"></path></g></g><g stroke-linecap="round" transform="translate(542.5346062052506 79.183003750426) rotate(0 6.515513126491669 5.646778042959426)"><path d="M13.03 5.65 C13.03 5.97, 13 6.31, 12.93 6.63 C12.87 6.95, 12.77 7.27, 12.64 7.58 C12.51 7.89, 12.35 8.19, 12.16 8.47 C11.97 8.75, 11.75 9.03, 11.51 9.28 C11.26 9.53, 10.99 9.76, 10.7 9.97 C10.41 10.18, 10.1 10.37, 9.77 10.54 C9.45 10.7, 9.1 10.84, 8.74 10.95 C8.39 11.06, 8.02 11.15, 7.65 11.21 C7.28 11.26, 6.89 11.29, 6.52 11.29 C6.14 11.29, 5.76 11.26, 5.38 11.21 C5.01 11.15, 4.64 11.06, 4.29 10.95 C3.93 10.84, 3.58 10.7, 3.26 10.54 C2.93 10.37, 2.62 10.18, 2.33 9.97 C2.04 9.76, 1.77 9.53, 1.52 9.28 C1.28 9.03, 1.06 8.75, 0.87 8.47 C0.68 8.19, 0.52 7.89, 0.39 7.58 C0.26 7.27, 0.16 6.95, 0.1 6.63 C0.03 6.31, 0 5.97, 0 5.65 C0 5.32, 0.03 4.99, 0.1 4.67 C0.16 4.34, 0.26 4.02, 0.39 3.72 C0.52 3.41, 0.68 3.11, 0.87 2.82 C1.06 2.54, 1.28 2.27, 1.52 2.02 C1.77 1.77, 2.04 1.53, 2.33 1.32 C2.62 1.11, 2.93 0.92, 3.26 0.76 C3.58 0.59, 3.93 0.45, 4.29 0.34 C4.64 0.23, 5.01 0.14, 5.38 0.09 C5.76 0.03, 6.14 0, 6.52 0 C6.89 0, 7.28 0.03, 7.65 0.09 C8.02 0.14, 8.39 0.23, 8.74 0.34 C9.1 0.45, 9.45 0.59, 9.77 0.76 C10.1 0.92, 10.41 1.11, 10.7 1.32 C10.99 1.53, 11.26 1.77, 11.51 2.02 C11.75 2.27, 11.97 2.54, 12.16 2.82 C12.35 3.11, 12.51 3.41, 12.64 3.72 C12.77 4.02, 12.87 4.34, 12.93 4.67 C13 4.99, 13.01 5.48, 13.03 5.65 C13.05 5.81, 13.05 5.48, 13.03 5.65" stroke="none" stroke-width="0" fill="#000"></path><path d="M13.03 5.65 C13.03 5.97, 13 6.31, 12.93 6.63 C12.87 6.95, 12.77 7.27, 12.64 7.58 C12.51 7.89, 12.35 8.19, 12.16 8.47 C11.97 8.75, 11.75 9.03, 11.51 9.28 C11.26 9.53, 10.99 9.76, 10.7 9.97 C10.41 10.18, 10.1 10.37, 9.77 10.54 C9.45 10.7, 9.1 10.84, 8.74 10.95 C8.39 11.06, 8.02 11.15, 7.65 11.21 C7.28 11.26, 6.89 11.29, 6.52 11.29 C6.14 11.29, 5.76 11.26, 5.38 11.21 C5.01 11.15, 4.64 11.06, 4.29 10.95 C3.93 10.84, 3.58 10.7, 3.26 10.54 C2.93 10.37, 2.62 10.18, 2.33 9.97 C2.04 9.76, 1.77 9.53, 1.52 9.28 C1.28 9.03, 1.06 8.75, 0.87 8.47 C0.68 8.19, 0.52 7.89, 0.39 7.58 C0.26 7.27, 0.16 6.95, 0.1 6.63 C0.03 6.31, 0 5.97, 0 5.65 C0 5.32, 0.03 4.99, 0.1 4.67 C0.16 4.34, 0.26 4.02, 0.39 3.72 C0.52 3.41, 0.68 3.11, 0.87 2.82 C1.06 2.54, 1.28 2.27, 1.52 2.02 C1.77 1.77, 2.04 1.53, 2.33 1.32 C2.62 1.11, 2.93 0.92, 3.26 0.76 C3.58 0.59, 3.93 0.45, 4.29 0.34 C4.64 0.23, 5.01 0.14, 5.38 0.09 C5.76 0.03, 6.14 0, 6.52 0 C6.89 0, 7.28 0.03, 7.65 0.09 C8.02 0.14, 8.39 0.23, 8.74 0.34 C9.1 0.45, 9.45 0.59, 9.77 0.76 C10.1 0.92, 10.41 1.11, 10.7 1.32 C10.99 1.53, 11.26 1.77, 11.51 2.02 C11.75 2.27, 11.97 2.54, 12.16 2.82 C12.35 3.11, 12.51 3.41, 12.64 3.72 C12.77 4.02, 12.87 4.34, 12.93 4.67 C13 4.99, 13.01 5.48, 13.03 5.65 C13.05 5.81, 13.05 5.48, 13.03 5.65" stroke="#000000" stroke-width="2" fill="none"></path></g><g stroke-linecap="round" transform="translate(516.0381861575179 79.6173712921921) rotate(0 6.515513126491669 5.646778042959426)"><path d="M13.03 5.65 C13.03 5.97, 13 6.31, 12.93 6.63 C12.87 6.95, 12.77 7.27, 12.64 7.58 C12.51 7.89, 12.35 8.19, 12.16 8.47 C11.97 8.75, 11.75 9.03, 11.51 9.28 C11.26 9.53, 10.99 9.76, 10.7 9.97 C10.41 10.18, 10.1 10.37, 9.77 10.54 C9.45 10.7, 9.1 10.84, 8.74 10.95 C8.39 11.06, 8.02 11.15, 7.65 11.21 C7.28 11.26, 6.89 11.29, 6.52 11.29 C6.14 11.29, 5.76 11.26, 5.38 11.21 C5.01 11.15, 4.64 11.06, 4.29 10.95 C3.93 10.84, 3.58 10.7, 3.26 10.54 C2.93 10.37, 2.62 10.18, 2.33 9.97 C2.04 9.76, 1.77 9.53, 1.52 9.28 C1.28 9.03, 1.06 8.75, 0.87 8.47 C0.68 8.19, 0.52 7.89, 0.39 7.58 C0.26 7.27, 0.16 6.95, 0.1 6.63 C0.03 6.31, 0 5.97, 0 5.65 C0 5.32, 0.03 4.99, 0.1 4.67 C0.16 4.34, 0.26 4.02, 0.39 3.72 C0.52 3.41, 0.68 3.11, 0.87 2.82 C1.06 2.54, 1.28 2.27, 1.52 2.02 C1.77 1.77, 2.04 1.53, 2.33 1.32 C2.62 1.11, 2.93 0.92, 3.26 0.76 C3.58 0.59, 3.93 0.45, 4.29 0.34 C4.64 0.23, 5.01 0.14, 5.38 0.09 C5.76 0.03, 6.14 0, 6.52 0 C6.89 0, 7.28 0.03, 7.65 0.09 C8.02 0.14, 8.39 0.23, 8.74 0.34 C9.1 0.45, 9.45 0.59, 9.77 0.76 C10.1 0.92, 10.41 1.11, 10.7 1.32 C10.99 1.53, 11.26 1.77, 11.51 2.02 C11.75 2.27, 11.97 2.54, 12.16 2.82 C12.35 3.11, 12.51 3.41, 12.64 3.72 C12.77 4.02, 12.87 4.34, 12.93 4.67 C13 4.99, 13.01 5.48, 13.03 5.65 C13.05 5.81, 13.05 5.48, 13.03 5.65" stroke="none" stroke-width="0" fill="#000"></path><path d="M13.03 5.65 C13.03 5.97, 13 6.31, 12.93 6.63 C12.87 6.95, 12.77 7.27, 12.64 7.58 C12.51 7.89, 12.35 8.19, 12.16 8.47 C11.97 8.75, 11.75 9.03, 11.51 9.28 C11.26 9.53, 10.99 9.76, 10.7 9.97 C10.41 10.18, 10.1 10.37, 9.77 10.54 C9.45 10.7, 9.1 10.84, 8.74 10.95 C8.39 11.06, 8.02 11.15, 7.65 11.21 C7.28 11.26, 6.89 11.29, 6.52 11.29 C6.14 11.29, 5.76 11.26, 5.38 11.21 C5.01 11.15, 4.64 11.06, 4.29 10.95 C3.93 10.84, 3.58 10.7, 3.26 10.54 C2.93 10.37, 2.62 10.18, 2.33 9.97 C2.04 9.76, 1.77 9.53, 1.52 9.28 C1.28 9.03, 1.06 8.75, 0.87 8.47 C0.68 8.19, 0.52 7.89, 0.39 7.58 C0.26 7.27, 0.16 6.95, 0.1 6.63 C0.03 6.31, 0 5.97, 0 5.65 C0 5.32, 0.03 4.99, 0.1 4.67 C0.16 4.34, 0.26 4.02, 0.39 3.72 C0.52 3.41, 0.68 3.11, 0.87 2.82 C1.06 2.54, 1.28 2.27, 1.52 2.02 C1.77 1.77, 2.04 1.53, 2.33 1.32 C2.62 1.11, 2.93 0.92, 3.26 0.76 C3.58 0.59, 3.93 0.45, 4.29 0.34 C4.64 0.23, 5.01 0.14, 5.38 0.09 C5.76 0.03, 6.14 0, 6.52 0 C6.89 0, 7.28 0.03, 7.65 0.09 C8.02 0.14, 8.39 0.23, 8.74 0.34 C9.1 0.45, 9.45 0.59, 9.77 0.76 C10.1 0.92, 10.41 1.11, 10.7 1.32 C10.99 1.53, 11.26 1.77, 11.51 2.02 C11.75 2.27, 11.97 2.54, 12.16 2.82 C12.35 3.11, 12.51 3.41, 12.64 3.72 C12.77 4.02, 12.87 4.34, 12.93 4.67 C13 4.99, 13.01 5.48, 13.03 5.65 C13.05 5.81, 13.05 5.48, 13.03 5.65" stroke="#000000" stroke-width="2" fill="none"></path></g><g stroke-linecap="round" transform="translate(525.5942720763724 106.54815888169088) rotate(0 6.515513126491669 5.646778042959426)"><path d="M13.03 5.65 C13.03 5.97, 13 6.31, 12.93 6.63 C12.87 6.95, 12.77 7.27, 12.64 7.58 C12.51 7.89, 12.35 8.19, 12.16 8.47 C11.97 8.75, 11.75 9.03, 11.51 9.28 C11.26 9.53, 10.99 9.76, 10.7 9.97 C10.41 10.18, 10.1 10.37, 9.77 10.54 C9.45 10.7, 9.1 10.84, 8.74 10.95 C8.39 11.06, 8.02 11.15, 7.65 11.21 C7.28 11.26, 6.89 11.29, 6.52 11.29 C6.14 11.29, 5.76 11.26, 5.38 11.21 C5.01 11.15, 4.64 11.06, 4.29 10.95 C3.93 10.84, 3.58 10.7, 3.26 10.54 C2.93 10.37, 2.62 10.18, 2.33 9.97 C2.04 9.76, 1.77 9.53, 1.52 9.28 C1.28 9.03, 1.06 8.75, 0.87 8.47 C0.68 8.19, 0.52 7.89, 0.39 7.58 C0.26 7.27, 0.16 6.95, 0.1 6.63 C0.03 6.31, 0 5.97, 0 5.65 C0 5.32, 0.03 4.99, 0.1 4.67 C0.16 4.34, 0.26 4.02, 0.39 3.72 C0.52 3.41, 0.68 3.11, 0.87 2.82 C1.06 2.54, 1.28 2.27, 1.52 2.02 C1.77 1.77, 2.04 1.53, 2.33 1.32 C2.62 1.11, 2.93 0.92, 3.26 0.76 C3.58 0.59, 3.93 0.45, 4.29 0.34 C4.64 0.23, 5.01 0.14, 5.38 0.09 C5.76 0.03, 6.14 0, 6.52 0 C6.89 0, 7.28 0.03, 7.65 0.09 C8.02 0.14, 8.39 0.23, 8.74 0.34 C9.1 0.45, 9.45 0.59, 9.77 0.76 C10.1 0.92, 10.41 1.11, 10.7 1.32 C10.99 1.53, 11.26 1.77, 11.51 2.02 C11.75 2.27, 11.97 2.54, 12.16 2.82 C12.35 3.11, 12.51 3.41, 12.64 3.72 C12.77 4.02, 12.87 4.34, 12.93 4.67 C13 4.99, 13.01 5.48, 13.03 5.65 C13.05 5.81, 13.05 5.48, 13.03 5.65" stroke="none" stroke-width="0" fill="#000"></path><path d="M13.03 5.65 C13.03 5.97, 13 6.31, 12.93 6.63 C12.87 6.95, 12.77 7.27, 12.64 7.58 C12.51 7.89, 12.35 8.19, 12.16 8.47 C11.97 8.75, 11.75 9.03, 11.51 9.28 C11.26 9.53, 10.99 9.76, 10.7 9.97 C10.41 10.18, 10.1 10.37, 9.77 10.54 C9.45 10.7, 9.1 10.84, 8.74 10.95 C8.39 11.06, 8.02 11.15, 7.65 11.21 C7.28 11.26, 6.89 11.29, 6.52 11.29 C6.14 11.29, 5.76 11.26, 5.38 11.21 C5.01 11.15, 4.64 11.06, 4.29 10.95 C3.93 10.84, 3.58 10.7, 3.26 10.54 C2.93 10.37, 2.62 10.18, 2.33 9.97 C2.04 9.76, 1.77 9.53, 1.52 9.28 C1.28 9.03, 1.06 8.75, 0.87 8.47 C0.68 8.19, 0.52 7.89, 0.39 7.58 C0.26 7.27, 0.16 6.95, 0.1 6.63 C0.03 6.31, 0 5.97, 0 5.65 C0 5.32, 0.03 4.99, 0.1 4.67 C0.16 4.34, 0.26 4.02, 0.39 3.72 C0.52 3.41, 0.68 3.11, 0.87 2.82 C1.06 2.54, 1.28 2.27, 1.52 2.02 C1.77 1.77, 2.04 1.53, 2.33 1.32 C2.62 1.11, 2.93 0.92, 3.26 0.76 C3.58 0.59, 3.93 0.45, 4.29 0.34 C4.64 0.23, 5.01 0.14, 5.38 0.09 C5.76 0.03, 6.14 0, 6.52 0 C6.89 0, 7.28 0.03, 7.65 0.09 C8.02 0.14, 8.39 0.23, 8.74 0.34 C9.1 0.45, 9.45 0.59, 9.77 0.76 C10.1 0.92, 10.41 1.11, 10.7 1.32 C10.99 1.53, 11.26 1.77, 11.51 2.02 C11.75 2.27, 11.97 2.54, 12.16 2.82 C12.35 3.11, 12.51 3.41, 12.64 3.72 C12.77 4.02, 12.87 4.34, 12.93 4.67 C13 4.99, 13.01 5.48, 13.03 5.65 C13.05 5.81, 13.05 5.48, 13.03 5.65" stroke="#000000" stroke-width="2" fill="none"></path></g><g stroke-linecap="round"><g transform="translate(386.1622911694511 247.2832424139105) rotate(0 54.73031026252983 -0.4343675417661075)"><path d="M0 0 C18.24 -0.14, 91.22 -0.72, 109.46 -0.87 M0 0 C18.24 -0.14, 91.22 -0.72, 109.46 -0.87" stroke="#000000" stroke-width="2" fill="none"></path></g><g transform="translate(386.1622911694511 247.2832424139105) rotate(0 54.73031026252983 -0.4343675417661075)"><path d="M109.46 -0.87 L95.92 5.58 L95.82 -7.1 L109.46 -0.87" stroke="none" stroke-width="0" fill="#000000" fill-rule="evenodd"></path><path d="M109.46 -0.87 C105.68 0.93, 101.9 2.73, 95.92 5.58 M109.46 -0.87 C105.85 0.85, 102.24 2.57, 95.92 5.58 M95.92 5.58 C95.88 1.22, 95.85 -3.14, 95.82 -7.1 M95.92 5.58 C95.89 1.87, 95.86 -1.84, 95.82 -7.1 M95.82 -7.1 C101.27 -4.61, 106.72 -2.12, 109.46 -0.87 M95.82 -7.1 C101.27 -4.61, 106.72 -2.12, 109.46 -0.87 M109.46 -0.87 C109.46 -0.87, 109.46 -0.87, 109.46 -0.87 M109.46 -0.87 C109.46 -0.87, 109.46 -0.87, 109.46 -0.87" stroke="#000000" stroke-width="2" fill="none"></path></g></g><g stroke-linecap="round"><g transform="translate(576.4152744630073 249.02071258097493) rotate(0 48.649164677804265 -0.4343675417661075)"><path d="M0 0 C16.22 -0.14, 81.08 -0.72, 97.3 -0.87 M0 0 C16.22 -0.14, 81.08 -0.72, 97.3 -0.87" stroke="#000000" stroke-width="2" fill="none"></path></g><g transform="translate(576.4152744630073 249.02071258097493) rotate(0 48.649164677804265 -0.4343675417661075)"><path d="M97.3 -0.87 L83.76 5.59 L83.65 -7.09 L97.3 -0.87" stroke="none" stroke-width="0" fill="#000000" fill-rule="evenodd"></path><path d="M97.3 -0.87 C92.66 1.35, 88.02 3.56, 83.76 5.59 M97.3 -0.87 C92.12 1.6, 86.94 4.07, 83.76 5.59 M83.76 5.59 C83.73 2.37, 83.7 -0.85, 83.65 -7.09 M83.76 5.59 C83.73 2.58, 83.71 -0.44, 83.65 -7.09 M83.65 -7.09 C87.66 -5.26, 91.67 -3.43, 97.3 -0.87 M83.65 -7.09 C87.37 -5.39, 91.09 -3.7, 97.3 -0.87 M97.3 -0.87 C97.3 -0.87, 97.3 -0.87, 97.3 -0.87 M97.3 -0.87 C97.3 -0.87, 97.3 -0.87, 97.3 -0.87" stroke="#000000" stroke-width="2" fill="none"></path></g></g><g stroke-linecap="round"><g transform="translate(675.0167064439142 203.41212069553336) rotate(0 0.4343675417661643 50.38663484486875)"><path d="M0 0 C0.14 16.8, 0.72 83.98, 0.87 100.77 M0 0 C0.14 16.8, 0.72 83.98, 0.87 100.77" stroke="#000000" stroke-width="2" fill="none"></path></g></g><g stroke-linecap="round"><g transform="translate(674.582338902148 219.04935219911334) rotate(0 -52.55847255369929 -49.952267303102644)"><path d="M0 0 C-17.52 -16.65, -87.6 -83.25, -105.12 -99.9 M0 0 C-17.52 -16.65, -87.6 -83.25, -105.12 -99.9" stroke="#000000" stroke-width="2" fill="none"></path></g><g transform="translate(674.582338902148 219.04935219911334) rotate(0 -52.55847255369929 -49.952267303102644)"><path d="M-105.12 -99.9 L-90.9 -95.13 L-99.63 -85.94 L-105.12 -99.9" stroke="none" stroke-width="0" fill="#000000" fill-rule="evenodd"></path><path d="M-105.12 -99.9 C-101.28 -98.62, -97.44 -97.33, -90.9 -95.13 M-105.12 -99.9 C-101.28 -98.62, -97.45 -97.33, -90.9 -95.13 M-90.9 -95.13 C-94.39 -91.46, -97.88 -87.79, -99.63 -85.94 M-90.9 -95.13 C-93.77 -92.11, -96.64 -89.09, -99.63 -85.94 M-99.63 -85.94 C-101.02 -89.47, -102.4 -93, -105.12 -99.9 M-99.63 -85.94 C-101.43 -90.52, -103.23 -95.1, -105.12 -99.9 M-105.12 -99.9 C-105.12 -99.9, -105.12 -99.9, -105.12 -99.9 M-105.12 -99.9 C-105.12 -99.9, -105.12 -99.9, -105.12 -99.9" stroke="#000000" stroke-width="2" fill="none"></path></g></g><g transform="translate(10 154.7629560177291) rotate(0 79.48926014319807 10.859188544152744)"><text x="0" y="15.718377088305491" font-family="Virgil, Segoe UI Emoji" font-size="17.37470167064439px" fill="#000000" text-anchor="start" style="white-space: pre;" direction="ltr">Llegan los clientes</text></g><g transform="translate(187.22195704057276 294.62930446641644) rotate(0 42.13365155131265 43.436754176611004)"><text x="0" y="15.718377088305491" font-family="Virgil, Segoe UI Emoji" font-size="17.37470167064439px" fill="#000000" text-anchor="start" style="white-space: pre;" direction="ltr">Clientes</text><text x="0" y="37.43675417661098" font-family="Virgil, Segoe UI Emoji" font-size="17.37470167064439px" fill="#000000" text-anchor="start" style="white-space: pre;" direction="ltr">esperando</text><text x="0" y="59.15513126491648" font-family="Virgil, Segoe UI Emoji" font-size="17.37470167064439px" fill="#000000" text-anchor="start" style="white-space: pre;" direction="ltr">fuera del</text><text x="0" y="80.87350835322196" font-family="Virgil, Segoe UI Emoji" font-size="17.37470167064439px" fill="#000000" text-anchor="start" style="white-space: pre;" direction="ltr">local.</text></g><g transform="translate(485.1980906921242 25.321428571428385) rotate(0 49.08353221957043 10.859188544152744)"><text x="0" y="15.718377088305491" font-family="Virgil, Segoe UI Emoji" font-size="17.37470167064439px" fill="#000000" text-anchor="start" style="white-space: pre;" direction="ltr">Sillas libres</text></g><g transform="translate(500.83532219570407 299.8417149676098) rotate(0 37.78997613365152 43.436754176610975)"><text x="0" y="15.718377088305491" font-family="Virgil, Segoe UI Emoji" font-size="17.374701670644395px" fill="#000000" text-anchor="start" style="white-space: pre;" direction="ltr">Clientes </text><text x="0" y="37.43675417661098" font-family="Virgil, Segoe UI Emoji" font-size="17.374701670644395px" fill="#000000" text-anchor="start" style="white-space: pre;" direction="ltr">en la</text><text x="0" y="59.15513126491648" font-family="Virgil, Segoe UI Emoji" font-size="17.374701670644395px" fill="#000000" text-anchor="start" style="white-space: pre;" direction="ltr">sala de</text><text x="0" y="80.87350835322196" font-family="Virgil, Segoe UI Emoji" font-size="17.374701670644395px" fill="#000000" text-anchor="start" style="white-space: pre;" direction="ltr">espera.</text></g><g transform="translate(626.801909307876 331.11617797476964) rotate(0 53.427207637231504 21.718377088305488)"><text x="0" y="15.718377088305491" font-family="Virgil, Segoe UI Emoji" font-size="17.37470167064439px" fill="#000000" text-anchor="start" style="white-space: pre;" direction="ltr">Se libera</text><text x="0" y="37.43675417661098" font-family="Virgil, Segoe UI Emoji" font-size="17.37470167064439px" fill="#000000" text-anchor="start" style="white-space: pre;" direction="ltr">un peluquero</text></g><g stroke-linecap="round"><g transform="translate(677.1885441527447 250.75818274803936) rotate(0 48.64916597427191 -0.4343675533417013)"><path d="M0 0 C16.22 -0.14, 81.08 -0.72, 97.3 -0.87 M0 0 C16.22 -0.14, 81.08 -0.72, 97.3 -0.87" stroke="#000000" stroke-width="2" fill="none"></path></g><g transform="translate(677.1885441527447 250.75818274803936) rotate(0 48.64916597427191 -0.4343675533417013)"><path d="M97.3 -0.87 L83.76 5.59 L83.65 -7.09 L97.3 -0.87" stroke="none" stroke-width="0" fill="#000000" fill-rule="evenodd"></path><path d="M97.3 -0.87 C92.6 1.37, 87.9 3.62, 83.76 5.59 M97.3 -0.87 C92.19 1.57, 87.08 4.01, 83.76 5.59 M83.76 5.59 C83.72 1.43, 83.69 -2.72, 83.65 -7.09 M83.76 5.59 C83.72 0.95, 83.68 -3.7, 83.65 -7.09 M83.65 -7.09 C86.45 -5.81, 89.24 -4.54, 97.3 -0.87 M83.65 -7.09 C88.52 -4.87, 93.38 -2.65, 97.3 -0.87 M97.3 -0.87 C97.3 -0.87, 97.3 -0.87, 97.3 -0.87 M97.3 -0.87 C97.3 -0.87, 97.3 -0.87, 97.3 -0.87" stroke="#000000" stroke-width="2" fill="none"></path></g></g><g stroke-linecap="round" transform="translate(777.5274463007161 216.4431469485167) rotate(0 37.78997613365152 38.22434367541766)"><path d="M75.58 38.22 C75.58 40.22, 75.42 42.24, 75.11 44.2 C74.81 46.17, 74.34 48.14, 73.73 50.04 C73.12 51.93, 72.36 53.8, 71.46 55.58 C70.57 57.35, 69.52 59.08, 68.36 60.69 C67.2 62.3, 65.9 63.84, 64.51 65.25 C63.12 66.66, 61.6 67.98, 60 69.15 C58.41 70.32, 56.7 71.38, 54.95 72.28 C53.19 73.19, 51.34 73.96, 49.47 74.58 C47.59 75.19, 45.65 75.67, 43.7 75.98 C41.76 76.29, 39.76 76.45, 37.79 76.45 C35.82 76.45, 33.82 76.29, 31.88 75.98 C29.93 75.67, 27.99 75.19, 26.11 74.58 C24.24 73.96, 22.39 73.19, 20.63 72.28 C18.88 71.38, 17.17 70.32, 15.58 69.15 C13.98 67.98, 12.46 66.66, 11.07 65.25 C9.68 63.84, 8.38 62.3, 7.22 60.69 C6.06 59.08, 5.01 57.35, 4.12 55.58 C3.22 53.8, 2.46 51.93, 1.85 50.04 C1.24 48.14, 0.77 46.17, 0.47 44.2 C0.16 42.24, 0 40.22, 0 38.22 C0 36.23, 0.16 34.21, 0.47 32.24 C0.77 30.28, 1.24 28.31, 1.85 26.41 C2.46 24.52, 3.22 22.65, 4.12 20.87 C5.01 19.09, 6.06 17.37, 7.22 15.76 C8.38 14.14, 9.68 12.61, 11.07 11.2 C12.46 9.79, 13.98 8.47, 15.58 7.3 C17.17 6.13, 18.88 5.07, 20.63 4.17 C22.39 3.26, 24.24 2.49, 26.11 1.87 C27.99 1.25, 29.93 0.78, 31.88 0.47 C33.82 0.16, 35.82 0, 37.79 0 C39.76 0, 41.76 0.16, 43.7 0.47 C45.65 0.78, 47.59 1.25, 49.47 1.87 C51.34 2.49, 53.19 3.26, 54.95 4.17 C56.7 5.07, 58.41 6.13, 60 7.3 C61.6 8.47, 63.12 9.79, 64.51 11.2 C65.9 12.61, 67.2 14.14, 68.36 15.76 C69.52 17.37, 70.57 19.09, 71.46 20.87 C72.36 22.65, 73.12 24.52, 73.73 26.41 C74.34 28.31, 74.81 30.28, 75.11 32.24 C75.42 34.21, 75.5 37.23, 75.58 38.22 C75.66 39.22, 75.66 37.23, 75.58 38.22" stroke="#000000" stroke-width="2" fill="none"></path></g><g stroke-linecap="round" transform="translate(774.9212410501195 54.85842141152381) rotate(0 37.78997613365152 38.22434367541766)"><path d="M75.58 38.22 C75.58 40.22, 75.42 42.24, 75.11 44.2 C74.81 46.17, 74.34 48.14, 73.73 50.04 C73.12 51.93, 72.36 53.8, 71.46 55.58 C70.57 57.35, 69.52 59.08, 68.36 60.69 C67.2 62.3, 65.9 63.84, 64.51 65.25 C63.12 66.66, 61.6 67.98, 60 69.15 C58.41 70.32, 56.7 71.38, 54.95 72.28 C53.19 73.19, 51.34 73.96, 49.47 74.58 C47.59 75.19, 45.65 75.67, 43.7 75.98 C41.76 76.29, 39.76 76.45, 37.79 76.45 C35.82 76.45, 33.82 76.29, 31.88 75.98 C29.93 75.67, 27.99 75.19, 26.11 74.58 C24.24 73.96, 22.39 73.19, 20.63 72.28 C18.88 71.38, 17.17 70.32, 15.58 69.15 C13.98 67.98, 12.46 66.66, 11.07 65.25 C9.68 63.84, 8.38 62.3, 7.22 60.69 C6.06 59.08, 5.01 57.35, 4.12 55.58 C3.22 53.8, 2.46 51.93, 1.85 50.04 C1.24 48.14, 0.77 46.17, 0.47 44.2 C0.16 42.24, 0 40.22, 0 38.22 C0 36.23, 0.16 34.21, 0.47 32.24 C0.77 30.28, 1.24 28.31, 1.85 26.41 C2.46 24.52, 3.22 22.65, 4.12 20.87 C5.01 19.09, 6.06 17.37, 7.22 15.76 C8.38 14.14, 9.68 12.61, 11.07 11.2 C12.46 9.79, 13.98 8.47, 15.58 7.3 C17.17 6.13, 18.88 5.07, 20.63 4.17 C22.39 3.26, 24.24 2.49, 26.11 1.87 C27.99 1.25, 29.93 0.78, 31.88 0.47 C33.82 0.16, 35.82 0, 37.79 0 C39.76 0, 41.76 0.16, 43.7 0.47 C45.65 0.78, 47.59 1.25, 49.47 1.87 C51.34 2.49, 53.19 3.26, 54.95 4.17 C56.7 5.07, 58.41 6.13, 60 7.3 C61.6 8.47, 63.12 9.79, 64.51 11.2 C65.9 12.61, 67.2 14.14, 68.36 15.76 C69.52 17.37, 70.57 19.09, 71.46 20.87 C72.36 22.65, 73.12 24.52, 73.73 26.41 C74.34 28.31, 74.81 30.28, 75.11 32.24 C75.42 34.21, 75.5 37.23, 75.58 38.22 C75.66 39.22, 75.66 37.23, 75.58 38.22" stroke="#000000" stroke-width="2" fill="none"></path></g><g stroke-linecap="round"><g transform="translate(779.2649164677805 122.61975792703697) rotate(0 -52.55847255369929 49.952267303102616)"><path d="M0 0 C-17.52 16.65, -87.6 83.25, -105.12 99.9 M0 0 C-17.52 16.65, -87.6 83.25, -105.12 99.9" stroke="#000000" stroke-width="2" fill="none"></path></g><g transform="translate(779.2649164677805 122.61975792703697) rotate(0 -52.55847255369929 49.952267303102616)"><path d="M-105.12 99.9 L-99.63 85.94 L-90.9 95.13 L-105.12 99.9" stroke="none" stroke-width="0" fill="#000000" fill-rule="evenodd"></path><path d="M-105.12 99.9 C-103.61 96.07, -102.1 92.24, -99.63 85.94 M-105.12 99.9 C-103.22 95.08, -101.33 90.26, -99.63 85.94 M-99.63 85.94 C-97.43 88.26, -95.23 90.58, -90.9 95.13 M-99.63 85.94 C-97.14 88.56, -94.65 91.18, -90.9 95.13 M-90.9 95.13 C-95.59 96.71, -100.28 98.28, -105.12 99.9 M-90.9 95.13 C-96.5 97.01, -102.1 98.89, -105.12 99.9 M-105.12 99.9 C-105.12 99.9, -105.12 99.9, -105.12 99.9 M-105.12 99.9 C-105.12 99.9, -105.12 99.9, -105.12 99.9" stroke="#000000" stroke-width="2" fill="none"></path></g></g><g stroke-linecap="round" transform="translate(796.6396181384248 81.35484145925653) rotate(0 6.515513126491669 5.646778042959426)"><path d="M13.03 5.65 C13.03 5.97, 13 6.31, 12.93 6.63 C12.87 6.95, 12.77 7.27, 12.64 7.58 C12.51 7.89, 12.35 8.19, 12.16 8.47 C11.97 8.75, 11.75 9.03, 11.51 9.28 C11.26 9.53, 10.99 9.76, 10.7 9.97 C10.41 10.18, 10.1 10.37, 9.77 10.54 C9.45 10.7, 9.1 10.84, 8.74 10.95 C8.39 11.06, 8.02 11.15, 7.65 11.21 C7.28 11.26, 6.89 11.29, 6.52 11.29 C6.14 11.29, 5.76 11.26, 5.38 11.21 C5.01 11.15, 4.64 11.06, 4.29 10.95 C3.93 10.84, 3.58 10.7, 3.26 10.54 C2.93 10.37, 2.62 10.18, 2.33 9.97 C2.04 9.76, 1.77 9.53, 1.52 9.28 C1.28 9.03, 1.06 8.75, 0.87 8.47 C0.68 8.19, 0.52 7.89, 0.39 7.58 C0.26 7.27, 0.16 6.95, 0.1 6.63 C0.03 6.31, 0 5.97, 0 5.65 C0 5.32, 0.03 4.99, 0.1 4.67 C0.16 4.34, 0.26 4.02, 0.39 3.72 C0.52 3.41, 0.68 3.11, 0.87 2.82 C1.06 2.54, 1.28 2.27, 1.52 2.02 C1.77 1.77, 2.04 1.53, 2.33 1.32 C2.62 1.11, 2.93 0.92, 3.26 0.76 C3.58 0.59, 3.93 0.45, 4.29 0.34 C4.64 0.23, 5.01 0.14, 5.38 0.09 C5.76 0.03, 6.14 0, 6.52 0 C6.89 0, 7.28 0.03, 7.65 0.09 C8.02 0.14, 8.39 0.23, 8.74 0.34 C9.1 0.45, 9.45 0.59, 9.77 0.76 C10.1 0.92, 10.41 1.11, 10.7 1.32 C10.99 1.53, 11.26 1.77, 11.51 2.02 C11.75 2.27, 11.97 2.54, 12.16 2.82 C12.35 3.11, 12.51 3.41, 12.64 3.72 C12.77 4.02, 12.87 4.34, 12.93 4.67 C13 4.99, 13.01 5.48, 13.03 5.65 C13.05 5.81, 13.05 5.48, 13.03 5.65" stroke="none" stroke-width="0" fill="#000"></path><path d="M13.03 5.65 C13.03 5.97, 13 6.31, 12.93 6.63 C12.87 6.95, 12.77 7.27, 12.64 7.58 C12.51 7.89, 12.35 8.19, 12.16 8.47 C11.97 8.75, 11.75 9.03, 11.51 9.28 C11.26 9.53, 10.99 9.76, 10.7 9.97 C10.41 10.18, 10.1 10.37, 9.77 10.54 C9.45 10.7, 9.1 10.84, 8.74 10.95 C8.39 11.06, 8.02 11.15, 7.65 11.21 C7.28 11.26, 6.89 11.29, 6.52 11.29 C6.14 11.29, 5.76 11.26, 5.38 11.21 C5.01 11.15, 4.64 11.06, 4.29 10.95 C3.93 10.84, 3.58 10.7, 3.26 10.54 C2.93 10.37, 2.62 10.18, 2.33 9.97 C2.04 9.76, 1.77 9.53, 1.52 9.28 C1.28 9.03, 1.06 8.75, 0.87 8.47 C0.68 8.19, 0.52 7.89, 0.39 7.58 C0.26 7.27, 0.16 6.95, 0.1 6.63 C0.03 6.31, 0 5.97, 0 5.65 C0 5.32, 0.03 4.99, 0.1 4.67 C0.16 4.34, 0.26 4.02, 0.39 3.72 C0.52 3.41, 0.68 3.11, 0.87 2.82 C1.06 2.54, 1.28 2.27, 1.52 2.02 C1.77 1.77, 2.04 1.53, 2.33 1.32 C2.62 1.11, 2.93 0.92, 3.26 0.76 C3.58 0.59, 3.93 0.45, 4.29 0.34 C4.64 0.23, 5.01 0.14, 5.38 0.09 C5.76 0.03, 6.14 0, 6.52 0 C6.89 0, 7.28 0.03, 7.65 0.09 C8.02 0.14, 8.39 0.23, 8.74 0.34 C9.1 0.45, 9.45 0.59, 9.77 0.76 C10.1 0.92, 10.41 1.11, 10.7 1.32 C10.99 1.53, 11.26 1.77, 11.51 2.02 C11.75 2.27, 11.97 2.54, 12.16 2.82 C12.35 3.11, 12.51 3.41, 12.64 3.72 C12.77 4.02, 12.87 4.34, 12.93 4.67 C13 4.99, 13.01 5.48, 13.03 5.65 C13.05 5.81, 13.05 5.48, 13.03 5.65" stroke="#000000" stroke-width="2" fill="none"></path></g><g stroke-linecap="round" transform="translate(818.3579952267305 79.6173712921921) rotate(0 6.515513126491669 5.646778042959426)"><path d="M13.03 5.65 C13.03 5.97, 13 6.31, 12.93 6.63 C12.87 6.95, 12.77 7.27, 12.64 7.58 C12.51 7.89, 12.35 8.19, 12.16 8.47 C11.97 8.75, 11.75 9.03, 11.51 9.28 C11.26 9.53, 10.99 9.76, 10.7 9.97 C10.41 10.18, 10.1 10.37, 9.77 10.54 C9.45 10.7, 9.1 10.84, 8.74 10.95 C8.39 11.06, 8.02 11.15, 7.65 11.21 C7.28 11.26, 6.89 11.29, 6.52 11.29 C6.14 11.29, 5.76 11.26, 5.38 11.21 C5.01 11.15, 4.64 11.06, 4.29 10.95 C3.93 10.84, 3.58 10.7, 3.26 10.54 C2.93 10.37, 2.62 10.18, 2.33 9.97 C2.04 9.76, 1.77 9.53, 1.52 9.28 C1.28 9.03, 1.06 8.75, 0.87 8.47 C0.68 8.19, 0.52 7.89, 0.39 7.58 C0.26 7.27, 0.16 6.95, 0.1 6.63 C0.03 6.31, 0 5.97, 0 5.65 C0 5.32, 0.03 4.99, 0.1 4.67 C0.16 4.34, 0.26 4.02, 0.39 3.72 C0.52 3.41, 0.68 3.11, 0.87 2.82 C1.06 2.54, 1.28 2.27, 1.52 2.02 C1.77 1.77, 2.04 1.53, 2.33 1.32 C2.62 1.11, 2.93 0.92, 3.26 0.76 C3.58 0.59, 3.93 0.45, 4.29 0.34 C4.64 0.23, 5.01 0.14, 5.38 0.09 C5.76 0.03, 6.14 0, 6.52 0 C6.89 0, 7.28 0.03, 7.65 0.09 C8.02 0.14, 8.39 0.23, 8.74 0.34 C9.1 0.45, 9.45 0.59, 9.77 0.76 C10.1 0.92, 10.41 1.11, 10.7 1.32 C10.99 1.53, 11.26 1.77, 11.51 2.02 C11.75 2.27, 11.97 2.54, 12.16 2.82 C12.35 3.11, 12.51 3.41, 12.64 3.72 C12.77 4.02, 12.87 4.34, 12.93 4.67 C13 4.99, 13.01 5.48, 13.03 5.65 C13.05 5.81, 13.05 5.48, 13.03 5.65" stroke="none" stroke-width="0" fill="#000"></path><path d="M13.03 5.65 C13.03 5.97, 13 6.31, 12.93 6.63 C12.87 6.95, 12.77 7.27, 12.64 7.58 C12.51 7.89, 12.35 8.19, 12.16 8.47 C11.97 8.75, 11.75 9.03, 11.51 9.28 C11.26 9.53, 10.99 9.76, 10.7 9.97 C10.41 10.18, 10.1 10.37, 9.77 10.54 C9.45 10.7, 9.1 10.84, 8.74 10.95 C8.39 11.06, 8.02 11.15, 7.65 11.21 C7.28 11.26, 6.89 11.29, 6.52 11.29 C6.14 11.29, 5.76 11.26, 5.38 11.21 C5.01 11.15, 4.64 11.06, 4.29 10.95 C3.93 10.84, 3.58 10.7, 3.26 10.54 C2.93 10.37, 2.62 10.18, 2.33 9.97 C2.04 9.76, 1.77 9.53, 1.52 9.28 C1.28 9.03, 1.06 8.75, 0.87 8.47 C0.68 8.19, 0.52 7.89, 0.39 7.58 C0.26 7.27, 0.16 6.95, 0.1 6.63 C0.03 6.31, 0 5.97, 0 5.65 C0 5.32, 0.03 4.99, 0.1 4.67 C0.16 4.34, 0.26 4.02, 0.39 3.72 C0.52 3.41, 0.68 3.11, 0.87 2.82 C1.06 2.54, 1.28 2.27, 1.52 2.02 C1.77 1.77, 2.04 1.53, 2.33 1.32 C2.62 1.11, 2.93 0.92, 3.26 0.76 C3.58 0.59, 3.93 0.45, 4.29 0.34 C4.64 0.23, 5.01 0.14, 5.38 0.09 C5.76 0.03, 6.14 0, 6.52 0 C6.89 0, 7.28 0.03, 7.65 0.09 C8.02 0.14, 8.39 0.23, 8.74 0.34 C9.1 0.45, 9.45 0.59, 9.77 0.76 C10.1 0.92, 10.41 1.11, 10.7 1.32 C10.99 1.53, 11.26 1.77, 11.51 2.02 C11.75 2.27, 11.97 2.54, 12.16 2.82 C12.35 3.11, 12.51 3.41, 12.64 3.72 C12.77 4.02, 12.87 4.34, 12.93 4.67 C13 4.99, 13.01 5.48, 13.03 5.65 C13.05 5.81, 13.05 5.48, 13.03 5.65" stroke="#000000" stroke-width="2" fill="none"></path></g><g transform="translate(734 10.321428571428385) rotate(0 81.5 12.5)"><text x="0" y="18" font-family="Virgil, Segoe UI Emoji" font-size="20px" fill="#000000" text-anchor="start" style="white-space: pre;" direction="ltr">peluqueros libres</text></g><g stroke-linecap="round"><g transform="translate(857.8854415274463 253.364387998636) rotate(0 48.649164677804265 -0.4343675417661075)"><path d="M0 0 C16.22 -0.14, 81.08 -0.72, 97.3 -0.87 M0 0 C16.22 -0.14, 81.08 -0.72, 97.3 -0.87" stroke="#000000" stroke-width="2" fill="none"></path></g><g transform="translate(857.8854415274463 253.364387998636) rotate(0 48.649164677804265 -0.4343675417661075)"><path d="M97.3 -0.87 L83.76 5.59 L83.65 -7.09 L97.3 -0.87" stroke="none" stroke-width="0" fill="#000000" fill-rule="evenodd"></path><path d="M97.3 -0.87 C92.86 1.25, 88.41 3.37, 83.76 5.59 M97.3 -0.87 C93.36 1.01, 89.42 2.89, 83.76 5.59 M83.76 5.59 C83.73 1.61, 83.69 -2.38, 83.65 -7.09 M83.76 5.59 C83.72 0.72, 83.67 -4.15, 83.65 -7.09 M83.65 -7.09 C88.26 -4.98, 92.88 -2.88, 97.3 -0.87 M83.65 -7.09 C89.06 -4.62, 94.48 -2.15, 97.3 -0.87 M97.3 -0.87 C97.3 -0.87, 97.3 -0.87, 97.3 -0.87 M97.3 -0.87 C97.3 -0.87, 97.3 -0.87, 97.3 -0.87" stroke="#000000" stroke-width="2" fill="none"></path></g></g><g stroke-linecap="round"><g transform="translate(956.4868735083533 210.36200136379114) rotate(0 0.4343675417661643 50.38663484486872)"><path d="M0 0 C0.14 16.8, 0.72 83.98, 0.87 100.77 M0 0 C0.14 16.8, 0.72 83.98, 0.87 100.77" stroke="#000000" stroke-width="2" fill="none"></path></g></g><g stroke-linecap="round"><g transform="translate(956.0525059665872 225.99923286737106) rotate(0 -55.5990453460621 -50.38663484486875)"><path d="M0 0 C-18.53 -16.8, -92.67 -83.98, -111.2 -100.77 M0 0 C-18.53 -16.8, -92.67 -83.98, -111.2 -100.77" stroke="#000000" stroke-width="2" fill="none"></path></g><g transform="translate(956.0525059665872 225.99923286737106) rotate(0 -55.5990453460621 -50.38663484486875)"><path d="M-111.2 -100.77 L-96.87 -96.34 L-105.38 -86.95 L-111.2 -100.77" stroke="none" stroke-width="0" fill="#000000" fill-rule="evenodd"></path><path d="M-111.2 -100.77 C-107.26 -99.56, -103.32 -98.34, -96.87 -96.34 M-111.2 -100.77 C-107.8 -99.72, -104.41 -98.67, -96.87 -96.34 M-96.87 -96.34 C-100.03 -92.85, -103.19 -89.36, -105.38 -86.95 M-96.87 -96.34 C-99.36 -93.59, -101.86 -90.83, -105.38 -86.95 M-105.38 -86.95 C-107.48 -91.93, -109.57 -96.91, -111.2 -100.77 M-105.38 -86.95 C-107.52 -92.02, -109.65 -97.1, -111.2 -100.77 M-111.2 -100.77 C-111.2 -100.77, -111.2 -100.77, -111.2 -100.77 M-111.2 -100.77 C-111.2 -100.77, -111.2 -100.77, -111.2 -100.77" stroke="#000000" stroke-width="2" fill="none"></path></g></g><g stroke-linecap="round"><g transform="translate(959.5274463007161 255.10185816570043) rotate(0 58.11863734759072 0.3012223346239864)"><path d="M0 0 C19.37 0.1, 96.86 0.5, 116.24 0.6 M0 0 C19.37 0.1, 96.86 0.5, 116.24 0.6" stroke="#000000" stroke-width="2" fill="none"></path></g><g transform="translate(959.5274463007161 255.10185816570043) rotate(0 58.11863734759072 0.3012223346239864)"><path d="M116.24 0.6 L102.61 6.87 L102.68 -5.81 L116.24 0.6" stroke="none" stroke-width="0" fill="#000000" fill-rule="evenodd"></path><path d="M116.24 0.6 C113.48 1.87, 110.73 3.14, 102.61 6.87 M116.24 0.6 C111.63 2.72, 107.02 4.84, 102.61 6.87 M102.61 6.87 C102.63 3.08, 102.65 -0.72, 102.68 -5.81 M102.61 6.87 C102.63 2.4, 102.66 -2.08, 102.68 -5.81 M102.68 -5.81 C107.23 -3.65, 111.79 -1.5, 116.24 0.6 M102.68 -5.81 C107.78 -3.4, 112.88 -0.98, 116.24 0.6 M116.24 0.6 C116.24 0.6, 116.24 0.6, 116.24 0.6 M116.24 0.6 C116.24 0.6, 116.24 0.6, 116.24 0.6" stroke="#000000" stroke-width="2" fill="none"></path></g></g><g transform="translate(778.8305489260142 306.7915956358675) rotate(0 43.436754176610975 21.718377088305488)"><text x="0" y="15.718377088305491" font-family="Virgil, Segoe UI Emoji" font-size="17.37470167064439px" fill="#000000" text-anchor="start" style="white-space: pre;" direction="ltr">Cortando </text><text x="0" y="37.43675417661098" font-family="Virgil, Segoe UI Emoji" font-size="17.37470167064439px" fill="#000000" text-anchor="start" style="white-space: pre;" direction="ltr">el pelo </text></g><g transform="translate(345.3317422434368 317.21641663825415) rotate(0 42.13365155131265 21.718377088305516)"><text x="0" y="15.718377088305491" font-family="Virgil, Segoe UI Emoji" font-size="17.37470167064439px" fill="#000000" text-anchor="start" style="white-space: pre;" direction="ltr">Se libera </text><text x="0" y="37.43675417661098" font-family="Virgil, Segoe UI Emoji" font-size="17.37470167064439px" fill="#000000" text-anchor="start" style="white-space: pre;" direction="ltr">una silla</text></g><g transform="translate(927.384248210024 324.1662973065119) rotate(0 31.274463007159852 32.57756563245823)"><text x="0" y="15.718377088305491" font-family="Virgil, Segoe UI Emoji" font-size="17.37470167064439px" fill="#000000" text-anchor="start" style="white-space: pre;" direction="ltr">Cliente</text><text x="0" y="37.43675417661098" font-family="Virgil, Segoe UI Emoji" font-size="17.37470167064439px" fill="#000000" text-anchor="start" style="white-space: pre;" direction="ltr">pasa a</text><text x="0" y="59.15513126491648" font-family="Virgil, Segoe UI Emoji" font-size="17.37470167064439px" fill="#000000" text-anchor="start" style="white-space: pre;" direction="ltr">pagar</text></g><g stroke-linecap="round" transform="translate(1091.2100238663484 215.0970848960107) rotate(0 37.78997613365152 38.22434367541766)"><path d="M75.58 38.22 C75.58 40.22, 75.42 42.24, 75.11 44.2 C74.81 46.17, 74.34 48.14, 73.73 50.04 C73.12 51.93, 72.36 53.8, 71.46 55.58 C70.57 57.35, 69.52 59.08, 68.36 60.69 C67.2 62.3, 65.9 63.84, 64.51 65.25 C63.12 66.66, 61.6 67.98, 60 69.15 C58.41 70.32, 56.7 71.38, 54.95 72.28 C53.19 73.19, 51.34 73.96, 49.47 74.58 C47.59 75.19, 45.65 75.67, 43.7 75.98 C41.76 76.29, 39.76 76.45, 37.79 76.45 C35.82 76.45, 33.82 76.29, 31.88 75.98 C29.93 75.67, 27.99 75.19, 26.11 74.58 C24.24 73.96, 22.39 73.19, 20.63 72.28 C18.88 71.38, 17.17 70.32, 15.58 69.15 C13.98 67.98, 12.46 66.66, 11.07 65.25 C9.68 63.84, 8.38 62.3, 7.22 60.69 C6.06 59.08, 5.01 57.35, 4.12 55.58 C3.22 53.8, 2.46 51.93, 1.85 50.04 C1.24 48.14, 0.77 46.17, 0.47 44.2 C0.16 42.24, 0 40.22, 0 38.22 C0 36.23, 0.16 34.21, 0.47 32.24 C0.77 30.28, 1.24 28.31, 1.85 26.41 C2.46 24.52, 3.22 22.65, 4.12 20.87 C5.01 19.09, 6.06 17.37, 7.22 15.76 C8.38 14.14, 9.68 12.61, 11.07 11.2 C12.46 9.79, 13.98 8.47, 15.58 7.3 C17.17 6.13, 18.88 5.07, 20.63 4.17 C22.39 3.26, 24.24 2.49, 26.11 1.87 C27.99 1.25, 29.93 0.78, 31.88 0.47 C33.82 0.16, 35.82 0, 37.79 0 C39.76 0, 41.76 0.16, 43.7 0.47 C45.65 0.78, 47.59 1.25, 49.47 1.87 C51.34 2.49, 53.19 3.26, 54.95 4.17 C56.7 5.07, 58.41 6.13, 60 7.3 C61.6 8.47, 63.12 9.79, 64.51 11.2 C65.9 12.61, 67.2 14.14, 68.36 15.76 C69.52 17.37, 70.57 19.09, 71.46 20.87 C72.36 22.65, 73.12 24.52, 73.73 26.41 C74.34 28.31, 74.81 30.28, 75.11 32.24 C75.42 34.21, 75.5 37.23, 75.58 38.22 C75.66 39.22, 75.66 37.23, 75.58 38.22" stroke="#000000" stroke-width="2" fill="none"></path></g><g stroke-linecap="round"><g transform="translate(1172.884806259434 253.95134294101484) rotate(0 58.113684825213454 1.0071087329766044)"><path d="M0 0 C19.37 0.34, 96.86 1.68, 116.23 2.01 M0 0 C19.37 0.34, 96.86 1.68, 116.23 2.01" stroke="#000000" stroke-width="2" fill="none"></path></g><g transform="translate(1172.884806259434 253.95134294101484) rotate(0 58.113684825213454 1.0071087329766044)"><path d="M116.23 2.01 L102.52 8.12 L102.74 -4.56 L116.23 2.01" stroke="none" stroke-width="0" fill="#000000" fill-rule="evenodd"></path><path d="M116.23 2.01 C112.27 3.78, 108.3 5.54, 102.52 8.12 M116.23 2.01 C111.03 4.33, 105.84 6.64, 102.52 8.12 M102.52 8.12 C102.58 5.09, 102.63 2.07, 102.74 -4.56 M102.52 8.12 C102.6 3.86, 102.67 -0.4, 102.74 -4.56 M102.74 -4.56 C106.96 -2.51, 111.17 -0.45, 116.23 2.01 M102.74 -4.56 C106.49 -2.73, 110.24 -0.9, 116.23 2.01 M116.23 2.01 C116.23 2.01, 116.23 2.01, 116.23 2.01 M116.23 2.01 C116.23 2.01, 116.23 2.01, 116.23 2.01" stroke="#000000" stroke-width="2" fill="none"></path></g></g><g stroke-linecap="round"><g transform="translate(1294.5656324582337 210.93479372655975) rotate(0 0.4343675417661643 50.38663484486872)"><path d="M0 0 C0.14 16.8, 0.72 83.98, 0.87 100.77 M0 0 C0.14 16.8, 0.72 83.98, 0.87 100.77" stroke="#000000" stroke-width="2" fill="none"></path></g></g><g stroke-linecap="round"><g transform="translate(1174.8878240901392 255.67729673588866) rotate(0 58.112175909861094 0.6441318355396959)"><path d="M0 0 C19.37 0.21, 96.85 1.07, 116.22 1.29 M0 0 C19.37 0.21, 96.85 1.07, 116.22 1.29" stroke="#000000" stroke-width="2" fill="none"></path></g><g transform="translate(1174.8878240901392 255.67729673588866) rotate(0 58.112175909861094 0.6441318355396959)"><path d="M116.22 1.29 L102.56 7.48 L102.7 -5.2 L116.22 1.29" stroke="none" stroke-width="0" fill="#000000" fill-rule="evenodd"></path><path d="M116.22 1.29 C111.35 3.5, 106.47 5.71, 102.56 7.48 M116.22 1.29 C112.78 2.85, 109.34 4.41, 102.56 7.48 M102.56 7.48 C102.61 3.17, 102.66 -1.14, 102.7 -5.2 M102.56 7.48 C102.59 4.48, 102.63 1.47, 102.7 -5.2 M102.7 -5.2 C107.6 -2.85, 112.5 -0.5, 116.22 1.29 M102.7 -5.2 C106.23 -3.51, 109.77 -1.81, 116.22 1.29 M116.22 1.29 C116.22 1.29, 116.22 1.29, 116.22 1.29 M116.22 1.29 C116.22 1.29, 116.22 1.29, 116.22 1.29" stroke="#000000" stroke-width="2" fill="none"></path></g></g><g stroke-linecap="round"><g transform="translate(1295.8878240901388 256.67729673588866) rotate(0 55.112175909861094 -0.3558681644603041)"><path d="M0 0 C18.37 -0.12, 91.85 -0.59, 110.22 -0.71 M0 0 C18.37 -0.12, 91.85 -0.59, 110.22 -0.71" stroke="#000000" stroke-width="2" fill="none"></path></g><g transform="translate(1295.8878240901388 256.67729673588866) rotate(0 55.112175909861094 -0.3558681644603041)"><path d="M110.22 -0.71 L96.67 5.72 L96.59 -6.96 L110.22 -0.71" stroke="none" stroke-width="0" fill="#000000" fill-rule="evenodd"></path><path d="M110.22 -0.71 C106.93 0.85, 103.63 2.41, 96.67 5.72 M110.22 -0.71 C104.99 1.77, 99.76 4.25, 96.67 5.72 M96.67 5.72 C96.65 1.95, 96.62 -1.82, 96.59 -6.96 M96.67 5.72 C96.65 2.4, 96.63 -0.92, 96.59 -6.96 M96.59 -6.96 C100.58 -5.13, 104.57 -3.3, 110.22 -0.71 M96.59 -6.96 C99.52 -5.62, 102.45 -4.28, 110.22 -0.71 M110.22 -0.71 C110.22 -0.71, 110.22 -0.71, 110.22 -0.71 M110.22 -0.71 C110.22 -0.71, 110.22 -0.71, 110.22 -0.71" stroke="#000000" stroke-width="2" fill="none"></path></g></g><g stroke-linecap="round" transform="translate(1408.2100238663484 217.0970848960107) rotate(0 37.78997613365152 38.22434367541766)"><path d="M75.58 38.22 C75.58 40.22, 75.42 42.24, 75.11 44.2 C74.81 46.17, 74.34 48.14, 73.73 50.04 C73.12 51.93, 72.36 53.8, 71.46 55.58 C70.57 57.35, 69.52 59.08, 68.36 60.69 C67.2 62.3, 65.9 63.84, 64.51 65.25 C63.12 66.66, 61.6 67.98, 60 69.15 C58.41 70.32, 56.7 71.38, 54.95 72.28 C53.19 73.19, 51.34 73.96, 49.47 74.58 C47.59 75.19, 45.65 75.67, 43.7 75.98 C41.76 76.29, 39.76 76.45, 37.79 76.45 C35.82 76.45, 33.82 76.29, 31.88 75.98 C29.93 75.67, 27.99 75.19, 26.11 74.58 C24.24 73.96, 22.39 73.19, 20.63 72.28 C18.88 71.38, 17.17 70.32, 15.58 69.15 C13.98 67.98, 12.46 66.66, 11.07 65.25 C9.68 63.84, 8.38 62.3, 7.22 60.69 C6.06 59.08, 5.01 57.35, 4.12 55.58 C3.22 53.8, 2.46 51.93, 1.85 50.04 C1.24 48.14, 0.77 46.17, 0.47 44.2 C0.16 42.24, 0 40.22, 0 38.22 C0 36.23, 0.16 34.21, 0.47 32.24 C0.77 30.28, 1.24 28.31, 1.85 26.41 C2.46 24.52, 3.22 22.65, 4.12 20.87 C5.01 19.09, 6.06 17.37, 7.22 15.76 C8.38 14.14, 9.68 12.61, 11.07 11.2 C12.46 9.79, 13.98 8.47, 15.58 7.3 C17.17 6.13, 18.88 5.07, 20.63 4.17 C22.39 3.26, 24.24 2.49, 26.11 1.87 C27.99 1.25, 29.93 0.78, 31.88 0.47 C33.82 0.16, 35.82 0, 37.79 0 C39.76 0, 41.76 0.16, 43.7 0.47 C45.65 0.78, 47.59 1.25, 49.47 1.87 C51.34 2.49, 53.19 3.26, 54.95 4.17 C56.7 5.07, 58.41 6.13, 60 7.3 C61.6 8.47, 63.12 9.79, 64.51 11.2 C65.9 12.61, 67.2 14.14, 68.36 15.76 C69.52 17.37, 70.57 19.09, 71.46 20.87 C72.36 22.65, 73.12 24.52, 73.73 26.41 C74.34 28.31, 74.81 30.28, 75.11 32.24 C75.42 34.21, 75.5 37.23, 75.58 38.22 C75.66 39.22, 75.66 37.23, 75.58 38.22" stroke="#000000" stroke-width="2" fill="none"></path></g><g stroke-linecap="round" transform="translate(1414.2100238663484 60.09708489601073) rotate(0 37.78997613365152 38.22434367541767)"><path d="M75.58 38.22 C75.58 40.22, 75.42 42.24, 75.11 44.2 C74.81 46.17, 74.34 48.14, 73.73 50.04 C73.12 51.93, 72.36 53.8, 71.46 55.58 C70.57 57.35, 69.52 59.08, 68.36 60.69 C67.2 62.3, 65.9 63.84, 64.51 65.25 C63.12 66.66, 61.6 67.98, 60 69.15 C58.41 70.32, 56.7 71.38, 54.95 72.28 C53.19 73.19, 51.34 73.96, 49.47 74.58 C47.59 75.19, 45.65 75.67, 43.7 75.98 C41.76 76.29, 39.76 76.45, 37.79 76.45 C35.82 76.45, 33.82 76.29, 31.88 75.98 C29.93 75.67, 27.99 75.19, 26.11 74.58 C24.24 73.96, 22.39 73.19, 20.63 72.28 C18.88 71.38, 17.17 70.32, 15.58 69.15 C13.98 67.98, 12.46 66.66, 11.07 65.25 C9.68 63.84, 8.38 62.3, 7.22 60.69 C6.06 59.08, 5.01 57.35, 4.12 55.58 C3.22 53.8, 2.46 51.93, 1.85 50.04 C1.24 48.14, 0.77 46.17, 0.47 44.2 C0.16 42.24, 0 40.22, 0 38.22 C0 36.23, 0.16 34.21, 0.47 32.24 C0.77 30.28, 1.24 28.31, 1.85 26.41 C2.46 24.52, 3.22 22.65, 4.12 20.87 C5.01 19.09, 6.06 17.37, 7.22 15.76 C8.38 14.14, 9.68 12.61, 11.07 11.2 C12.46 9.79, 13.98 8.47, 15.58 7.3 C17.17 6.13, 18.88 5.07, 20.63 4.17 C22.39 3.26, 24.24 2.49, 26.11 1.87 C27.99 1.25, 29.93 0.78, 31.88 0.47 C33.82 0.16, 35.82 0, 37.79 0 C39.76 0, 41.76 0.16, 43.7 0.47 C45.65 0.78, 47.59 1.25, 49.47 1.87 C51.34 2.49, 53.19 3.26, 54.95 4.17 C56.7 5.07, 58.41 6.13, 60 7.3 C61.6 8.47, 63.12 9.79, 64.51 11.2 C65.9 12.61, 67.2 14.14, 68.36 15.76 C69.52 17.37, 70.57 19.09, 71.46 20.87 C72.36 22.65, 73.12 24.52, 73.73 26.41 C74.34 28.31, 74.81 30.28, 75.11 32.24 C75.42 34.21, 75.5 37.23, 75.58 38.22 C75.66 39.22, 75.66 37.23, 75.58 38.22" stroke="#000000" stroke-width="2" fill="none"></path></g><g stroke-linecap="round"><g transform="translate(1417.2104530731417 119.02190458332046) rotate(0 -62.105226536570854 58.64976199405396)"><path d="M0 0 C-20.7 19.55, -103.51 97.75, -124.21 117.3 M0 0 C-20.7 19.55, -103.51 97.75, -124.21 117.3" stroke="#000000" stroke-width="2" fill="none"></path></g><g transform="translate(1417.2104530731417 119.02190458332046) rotate(0 -62.105226536570854 58.64976199405396)"><path d="M-124.21 117.3 L-118.68 103.36 L-109.97 112.57 L-124.21 117.3" stroke="none" stroke-width="0" fill="#000000" fill-rule="evenodd"></path><path d="M-124.21 117.3 C-122.62 113.28, -121.02 109.26, -118.68 103.36 M-124.21 117.3 C-122.18 112.18, -120.15 107.06, -118.68 103.36 M-118.68 103.36 C-116.24 105.94, -113.79 108.53, -109.97 112.57 M-118.68 103.36 C-115.21 107.03, -111.75 110.69, -109.97 112.57 M-109.97 112.57 C-114.46 114.06, -118.94 115.55, -124.21 117.3 M-109.97 112.57 C-113.2 113.65, -116.43 114.72, -124.21 117.3 M-124.21 117.3 C-124.21 117.3, -124.21 117.3, -124.21 117.3 M-124.21 117.3 C-124.21 117.3, -124.21 117.3, -124.21 117.3" stroke="#000000" stroke-width="2" fill="none"></path></g></g><g stroke-linecap="round" transform="translate(1449.4844868735086 90.67465052846896) rotate(0 6.515513126491669 5.64677804295944)"><path d="M13.03 5.65 C13.03 5.97, 13 6.31, 12.93 6.63 C12.87 6.95, 12.77 7.27, 12.64 7.58 C12.51 7.89, 12.35 8.19, 12.16 8.47 C11.97 8.75, 11.75 9.03, 11.51 9.28 C11.26 9.53, 10.99 9.76, 10.7 9.97 C10.41 10.18, 10.1 10.37, 9.77 10.54 C9.45 10.7, 9.1 10.84, 8.74 10.95 C8.39 11.06, 8.02 11.15, 7.65 11.21 C7.28 11.26, 6.89 11.29, 6.52 11.29 C6.14 11.29, 5.76 11.26, 5.38 11.21 C5.01 11.15, 4.64 11.06, 4.29 10.95 C3.93 10.84, 3.58 10.7, 3.26 10.54 C2.93 10.37, 2.62 10.18, 2.33 9.97 C2.04 9.76, 1.77 9.53, 1.52 9.28 C1.28 9.03, 1.06 8.75, 0.87 8.47 C0.68 8.19, 0.52 7.89, 0.39 7.58 C0.26 7.27, 0.16 6.95, 0.1 6.63 C0.03 6.31, 0 5.97, 0 5.65 C0 5.32, 0.03 4.99, 0.1 4.67 C0.16 4.34, 0.26 4.02, 0.39 3.72 C0.52 3.41, 0.68 3.11, 0.87 2.82 C1.06 2.54, 1.28 2.27, 1.52 2.02 C1.77 1.77, 2.04 1.53, 2.33 1.32 C2.62 1.11, 2.93 0.92, 3.26 0.76 C3.58 0.59, 3.93 0.45, 4.29 0.34 C4.64 0.23, 5.01 0.14, 5.38 0.09 C5.76 0.03, 6.14 0, 6.52 0 C6.89 0, 7.28 0.03, 7.65 0.09 C8.02 0.14, 8.39 0.23, 8.74 0.34 C9.1 0.45, 9.45 0.59, 9.77 0.76 C10.1 0.92, 10.41 1.11, 10.7 1.32 C10.99 1.53, 11.26 1.77, 11.51 2.02 C11.75 2.27, 11.97 2.54, 12.16 2.82 C12.35 3.11, 12.51 3.41, 12.64 3.72 C12.77 4.02, 12.87 4.34, 12.93 4.67 C13 4.99, 13.01 5.48, 13.03 5.65 C13.05 5.81, 13.05 5.48, 13.03 5.65" stroke="none" stroke-width="0" fill="#000"></path><path d="M13.03 5.65 C13.03 5.97, 13 6.31, 12.93 6.63 C12.87 6.95, 12.77 7.27, 12.64 7.58 C12.51 7.89, 12.35 8.19, 12.16 8.47 C11.97 8.75, 11.75 9.03, 11.51 9.28 C11.26 9.53, 10.99 9.76, 10.7 9.97 C10.41 10.18, 10.1 10.37, 9.77 10.54 C9.45 10.7, 9.1 10.84, 8.74 10.95 C8.39 11.06, 8.02 11.15, 7.65 11.21 C7.28 11.26, 6.89 11.29, 6.52 11.29 C6.14 11.29, 5.76 11.26, 5.38 11.21 C5.01 11.15, 4.64 11.06, 4.29 10.95 C3.93 10.84, 3.58 10.7, 3.26 10.54 C2.93 10.37, 2.62 10.18, 2.33 9.97 C2.04 9.76, 1.77 9.53, 1.52 9.28 C1.28 9.03, 1.06 8.75, 0.87 8.47 C0.68 8.19, 0.52 7.89, 0.39 7.58 C0.26 7.27, 0.16 6.95, 0.1 6.63 C0.03 6.31, 0 5.97, 0 5.65 C0 5.32, 0.03 4.99, 0.1 4.67 C0.16 4.34, 0.26 4.02, 0.39 3.72 C0.52 3.41, 0.68 3.11, 0.87 2.82 C1.06 2.54, 1.28 2.27, 1.52 2.02 C1.77 1.77, 2.04 1.53, 2.33 1.32 C2.62 1.11, 2.93 0.92, 3.26 0.76 C3.58 0.59, 3.93 0.45, 4.29 0.34 C4.64 0.23, 5.01 0.14, 5.38 0.09 C5.76 0.03, 6.14 0, 6.52 0 C6.89 0, 7.28 0.03, 7.65 0.09 C8.02 0.14, 8.39 0.23, 8.74 0.34 C9.1 0.45, 9.45 0.59, 9.77 0.76 C10.1 0.92, 10.41 1.11, 10.7 1.32 C10.99 1.53, 11.26 1.77, 11.51 2.02 C11.75 2.27, 11.97 2.54, 12.16 2.82 C12.35 3.11, 12.51 3.41, 12.64 3.72 C12.77 4.02, 12.87 4.34, 12.93 4.67 C13 4.99, 13.01 5.48, 13.03 5.65 C13.05 5.81, 13.05 5.48, 13.03 5.65" stroke="#000000" stroke-width="2" fill="none"></path></g><g stroke-linecap="round"><g transform="translate(1487.8878240901392 254.67729673588872) rotate(0 55.112175909861094 -0.3558681644603041)"><path d="M0 0 C18.37 -0.12, 91.85 -0.59, 110.22 -0.71 M0 0 C18.37 -0.12, 91.85 -0.59, 110.22 -0.71" stroke="#000000" stroke-width="2" fill="none"></path></g><g transform="translate(1487.8878240901392 254.67729673588872) rotate(0 55.112175909861094 -0.3558681644603041)"><path d="M110.22 -0.71 L96.67 5.72 L96.59 -6.96 L110.22 -0.71" stroke="none" stroke-width="0" fill="#000000" fill-rule="evenodd"></path><path d="M110.22 -0.71 C105.52 1.52, 100.81 3.75, 96.67 5.72 M110.22 -0.71 C106.88 0.87, 103.54 2.46, 96.67 5.72 M96.67 5.72 C96.65 2.3, 96.63 -1.11, 96.59 -6.96 M96.67 5.72 C96.65 1.76, 96.62 -2.2, 96.59 -6.96 M96.59 -6.96 C101.78 -4.58, 106.97 -2.2, 110.22 -0.71 M96.59 -6.96 C100.72 -5.07, 104.85 -3.17, 110.22 -0.71 M110.22 -0.71 C110.22 -0.71, 110.22 -0.71, 110.22 -0.71 M110.22 -0.71 C110.22 -0.71, 110.22 -0.71, 110.22 -0.71" stroke="#000000" stroke-width="2" fill="none"></path></g></g><g stroke-linecap="round"><g transform="translate(1601.5656324582337 213.93479372655963) rotate(0 0.43436754176605064 50.38663484486872)"><path d="M0 0 C0.14 16.8, 0.72 83.98, 0.87 100.77 M0 0 C0.14 16.8, 0.72 83.98, 0.87 100.77" stroke="#000000" stroke-width="2" fill="none"></path></g></g><g stroke-linecap="round"><g transform="translate(1601 234.32142857142838) rotate(0 -51.5 -60)"><path d="M0 0 C-17.17 -20, -85.83 -100, -103 -120 M0 0 C-17.17 -20, -85.83 -100, -103 -120" stroke="#000000" stroke-width="2" fill="none"></path></g><g transform="translate(1601 234.32142857142838) rotate(0 -51.5 -60)"><path d="M-103 -120 L-89.34 -113.81 L-98.96 -105.56 L-103 -120" stroke="none" stroke-width="0" fill="#000000" fill-rule="evenodd"></path><path d="M-103 -120 C-99.5 -118.41, -96 -116.83, -89.34 -113.81 M-103 -120 C-98.08 -117.77, -93.15 -115.54, -89.34 -113.81 M-89.34 -113.81 C-92.03 -111.5, -94.72 -109.19, -98.96 -105.56 M-89.34 -113.81 C-91.81 -111.69, -94.29 -109.56, -98.96 -105.56 M-98.96 -105.56 C-100.52 -111.16, -102.09 -116.76, -103 -120 M-98.96 -105.56 C-99.92 -109, -100.88 -112.44, -103 -120 M-103 -120 C-103 -120, -103 -120, -103 -120 M-103 -120 C-103 -120, -103 -120, -103 -120" stroke="#000000" stroke-width="2" fill="none"></path></g></g><g transform="translate(1081.8452380952383 297.00000000000006) rotate(0 56 37.5)"><text x="0" y="18" font-family="Virgil, Segoe UI Emoji" font-size="20px" fill="#000000" text-anchor="start" style="white-space: pre;" direction="ltr">Cliente </text><text x="0" y="43" font-family="Virgil, Segoe UI Emoji" font-size="20px" fill="#000000" text-anchor="start" style="white-space: pre;" direction="ltr">esperando</text><text x="0" y="68" font-family="Virgil, Segoe UI Emoji" font-size="20px" fill="#000000" text-anchor="start" style="white-space: pre;" direction="ltr">para pagar</text></g><g transform="translate(1252.8452380952383 323) rotate(0 44.5 24.99999999999997)"><text x="0" y="18" font-family="Virgil, Segoe UI Emoji" font-size="20px" fill="#000000" text-anchor="start" style="white-space: pre;" direction="ltr">Se libera</text><text x="0" y="43" font-family="Virgil, Segoe UI Emoji" font-size="20px" fill="#000000" text-anchor="start" style="white-space: pre;" direction="ltr">una caja</text></g><g transform="translate(1410.8452380952383 309) rotate(0 43 24.99999999999997)"><text x="0" y="18" font-family="Virgil, Segoe UI Emoji" font-size="20px" fill="#000000" text-anchor="start" style="white-space: pre;" direction="ltr">Cliente</text><text x="0" y="43" font-family="Virgil, Segoe UI Emoji" font-size="20px" fill="#000000" text-anchor="start" style="white-space: pre;" direction="ltr">pagando.</text></g><g transform="translate(1387.845238095238 10) rotate(0 59.5 12.5)"><text x="0" y="18" font-family="Virgil, Segoe UI Emoji" font-size="20px" fill="#000000" text-anchor="start" style="white-space: pre;" direction="ltr">Cajas libres</text></g><g transform="translate(1583.8452380952385 325) rotate(0 132 12.499999999999972)"><text x="0" y="18" font-family="Virgil, Segoe UI Emoji" font-size="20px" fill="#000000" text-anchor="start" style="white-space: pre;" direction="ltr">Cliente se retira del local.</text></g></svg>