<svg version="1.1" xmlns="http://www.w3.org/2000/svg" viewBox="0 0 2245.0653766650175 986.7503262608798" width="2245.0653766650175" height="986.7503262608798">
  <!-- svg-source:excalidraw -->
  
  <defs>
    <style>
      @font-face {
        font-family: "Virgil";
        src: url("https://excalidraw.com/Virgil.woff2");
      }
      @font-face {
        font-family: "Cascadia";
        src: url("https://excalidraw.com/Cascadia.woff2");
      }
    </style>
  </defs>
  <rect x="0" y="0" width="2245.0653766650175" height="986.7503262608798" fill="#ffffff"></rect><g stroke-linecap="round"><g transform="translate(91.77686853505543 486.2782084511402) rotate(0 0 59.5)"><path d="M0 0 C0 19.83, 0 99.17, 0 119 M0 0 C0 19.83, 0 99.17, 0 119" stroke="#000000" stroke-width="2" fill="none"></path></g></g><g stroke-linecap="round"><g transform="translate(91.77686853505543 541.2782084511402) rotate(0 57.5 0)"><path d="M0 0 C19.17 0, 95.83 0, 115 0 M0 0 C19.17 0, 95.83 0, 115 0" stroke="#000000" stroke-width="2" fill="none"></path></g><g transform="translate(91.77686853505543 541.2782084511402) rotate(0 57.5 0)"><path d="M115 0 L101.41 6.34 L101.41 -6.34 L115 0" stroke="none" stroke-width="0" fill="#000000" fill-rule="evenodd"></path><path d="M115 0 C111.99 1.4, 108.98 2.81, 101.41 6.34 M115 0 C110.93 1.9, 106.86 3.79, 101.41 6.34 M101.41 6.34 C101.41 1.98, 101.41 -2.38, 101.41 -6.34 M101.41 6.34 C101.41 2.34, 101.41 -1.65, 101.41 -6.34 M101.41 -6.34 C105.05 -4.64, 108.69 -2.94, 115 0 M101.41 -6.34 C106.61 -3.91, 111.81 -1.49, 115 0 M115 0 C115 0, 115 0, 115 0 M115 0 C115 0, 115 0, 115 0" stroke="#000000" stroke-width="2" fill="none"></path></g></g><g stroke-linecap="round" transform="translate(210.77686853505543 510.2782084511402) rotate(0 31.5 31.5)"><path d="M63 31.5 C63 33.32, 62.84 35.17, 62.52 36.97 C62.2 38.77, 61.72 40.56, 61.1 42.27 C60.48 43.99, 59.69 45.67, 58.78 47.25 C57.87 48.83, 56.8 50.35, 55.63 51.75 C54.46 53.14, 53.14 54.46, 51.75 55.63 C50.35 56.8, 48.83 57.87, 47.25 58.78 C45.67 59.69, 43.99 60.48, 42.27 61.1 C40.56 61.72, 38.77 62.2, 36.97 62.52 C35.17 62.84, 33.32 63, 31.5 63 C29.68 63, 27.83 62.84, 26.03 62.52 C24.23 62.2, 22.44 61.72, 20.73 61.1 C19.01 60.48, 17.33 59.69, 15.75 58.78 C14.17 57.87, 12.65 56.8, 11.25 55.63 C9.86 54.46, 8.54 53.14, 7.37 51.75 C6.2 50.35, 5.13 48.83, 4.22 47.25 C3.31 45.67, 2.52 43.99, 1.9 42.27 C1.28 40.56, 0.8 38.77, 0.48 36.97 C0.16 35.17, 0 33.32, 0 31.5 C0 29.68, 0.16 27.83, 0.48 26.03 C0.8 24.23, 1.28 22.44, 1.9 20.73 C2.52 19.01, 3.31 17.33, 4.22 15.75 C5.13 14.17, 6.2 12.65, 7.37 11.25 C8.54 9.86, 9.86 8.54, 11.25 7.37 C12.65 6.2, 14.17 5.13, 15.75 4.22 C17.33 3.31, 19.01 2.52, 20.73 1.9 C22.44 1.28, 24.23 0.8, 26.03 0.48 C27.83 0.16, 29.68 0, 31.5 0 C33.32 0, 35.17 0.16, 36.97 0.48 C38.77 0.8, 40.56 1.28, 42.27 1.9 C43.99 2.52, 45.67 3.31, 47.25 4.22 C48.83 5.13, 50.35 6.2, 51.75 7.37 C53.14 8.54, 54.46 9.86, 55.63 11.25 C56.8 12.65, 57.87 14.17, 58.78 15.75 C59.69 17.33, 60.48 19.01, 61.1 20.73 C61.72 22.44, 62.2 24.23, 62.52 26.03 C62.84 27.83, 62.92 30.59, 63 31.5 C63.08 32.41, 63.08 30.59, 63 31.5" stroke="#000000" stroke-width="2" fill="none"></path></g><g stroke-linecap="round"><g transform="translate(261.7768685350554 512.2782084511402) rotate(0 75.5 -130)"><path d="M0 0 C25.17 -43.33, 125.83 -216.67, 151 -260 M0 0 C25.17 -43.33, 125.83 -216.67, 151 -260" stroke="#000000" stroke-width="2" fill="none"></path></g><g transform="translate(261.7768685350554 512.2782084511402) rotate(0 75.5 -130)"><path d="M151 -260 L149.65 -245.06 L138.69 -251.43 L151 -260" stroke="none" stroke-width="0" fill="#000000" fill-rule="evenodd"></path><path d="M151 -260 C150.62 -255.84, 150.25 -251.67, 149.65 -245.06 M151 -260 C150.54 -254.85, 150.07 -249.7, 149.65 -245.06 M149.65 -245.06 C145.92 -247.23, 142.19 -249.4, 138.69 -251.43 M149.65 -245.06 C146.74 -246.76, 143.82 -248.45, 138.69 -251.43 M138.69 -251.43 C143.46 -254.75, 148.23 -258.07, 151 -260 M138.69 -251.43 C141.83 -253.61, 144.96 -255.8, 151 -260 M151 -260 C151 -260, 151 -260, 151 -260 M151 -260 C151 -260, 151 -260, 151 -260" stroke="#000000" stroke-width="2" fill="none"></path></g></g><g stroke-linecap="round"><g transform="translate(415.7768685350554 204.7782084511402) rotate(0 0 49.5)"><path d="M0 0 C0 16.5, 0 82.5, 0 99 M0 0 C0 16.5, 0 82.5, 0 99" stroke="#000000" stroke-width="2" fill="none"></path></g></g><g stroke-linecap="round"><g transform="translate(276.7768685350554 551.2782084511402) rotate(0 67.5 0.5)"><path d="M0 0 C22.5 0.17, 112.5 0.83, 135 1 M0 0 C22.5 0.17, 112.5 0.83, 135 1" stroke="#000000" stroke-width="2" fill="none"></path></g><g transform="translate(276.7768685350554 551.2782084511402) rotate(0 67.5 0.5)"><path d="M135 1 L121.36 7.24 L121.45 -5.44 L135 1" stroke="none" stroke-width="0" fill="#000000" fill-rule="evenodd"></path><path d="M135 1 C132.05 2.35, 129.09 3.7, 121.36 7.24 M135 1 C129.65 3.45, 124.31 5.89, 121.36 7.24 M121.36 7.24 C121.39 3.57, 121.41 -0.1, 121.45 -5.44 M121.36 7.24 C121.38 4.69, 121.4 2.14, 121.45 -5.44 M121.45 -5.44 C125.48 -3.53, 129.5 -1.61, 135 1 M121.45 -5.44 C125.02 -3.74, 128.59 -2.05, 135 1 M135 1 C135 1, 135 1, 135 1 M135 1 C135 1, 135 1, 135 1" stroke="#000000" stroke-width="2" fill="none"></path></g></g><g stroke-linecap="round"><g transform="translate(417.7768685350554 495.7782084511402) rotate(0 0 59.5)"><path d="M0 0 C0 19.83, 0 99.17, 0 119 M0 0 C0 19.83, 0 99.17, 0 119" stroke="#000000" stroke-width="2" fill="none"></path></g></g><g stroke-linecap="round"><g transform="translate(253.77686853505543 576.2782084511402) rotate(0 73.5 127)"><path d="M0 0 C24.5 42.33, 122.5 211.67, 147 254 M0 0 C24.5 42.33, 122.5 211.67, 147 254" stroke="#000000" stroke-width="2" fill="none"></path></g><g transform="translate(253.77686853505543 576.2782084511402) rotate(0 73.5 127)"><path d="M147 254 L134.7 245.41 L145.68 239.06 L147 254" stroke="none" stroke-width="0" fill="#000000" fill-rule="evenodd"></path><path d="M147 254 C144.32 252.13, 141.65 250.26, 134.7 245.41 M147 254 C142.99 251.2, 138.98 248.4, 134.7 245.41 M134.7 245.41 C138.33 243.31, 141.95 241.22, 145.68 239.06 M134.7 245.41 C138.82 243.03, 142.94 240.64, 145.68 239.06 M145.68 239.06 C145.97 242.39, 146.27 245.72, 147 254 M145.68 239.06 C146.16 244.52, 146.64 249.98, 147 254 M147 254 C147 254, 147 254, 147 254 M147 254 C147 254, 147 254, 147 254" stroke="#000000" stroke-width="2" fill="none"></path></g></g><g stroke-linecap="round"><g transform="translate(406.7768685350554 769.7782084511402) rotate(0 0 59.5)"><path d="M0 0 C0 19.83, 0 99.17, 0 119 M0 0 C0 19.83, 0 99.17, 0 119" stroke="#000000" stroke-width="2" fill="none"></path></g></g><g stroke-linecap="round"><g transform="translate(416.7768685350554 252.2782084511402) rotate(0 46 -1)"><path d="M0 0 C15.33 -0.33, 76.67 -1.67, 92 -2 M0 0 C15.33 -0.33, 76.67 -1.67, 92 -2" stroke="#000000" stroke-width="2" fill="none"></path></g><g transform="translate(416.7768685350554 252.2782084511402) rotate(0 46 -1)"><path d="M92 -2 L78.55 4.63 L78.27 -8.04 L92 -2" stroke="none" stroke-width="0" fill="#000000" fill-rule="evenodd"></path><path d="M92 -2 C87.86 0.04, 83.72 2.08, 78.55 4.63 M92 -2 C88.18 -0.12, 84.36 1.77, 78.55 4.63 M78.55 4.63 C78.49 2.03, 78.43 -0.57, 78.27 -8.04 M78.55 4.63 C78.44 -0.43, 78.33 -5.5, 78.27 -8.04 M78.27 -8.04 C82.78 -6.06, 87.3 -4.07, 92 -2 M78.27 -8.04 C82.47 -6.19, 86.67 -4.35, 92 -2 M92 -2 C92 -2, 92 -2, 92 -2 M92 -2 C92 -2, 92 -2, 92 -2" stroke="#000000" stroke-width="2" fill="none"></path></g></g><g stroke-linecap="round" transform="translate(511.2768685350554 219.7782084511402) rotate(0 31.5 31.5)"><path d="M63 31.5 C63 33.32, 62.84 35.17, 62.52 36.97 C62.2 38.77, 61.72 40.56, 61.1 42.27 C60.48 43.99, 59.69 45.67, 58.78 47.25 C57.87 48.83, 56.8 50.35, 55.63 51.75 C54.46 53.14, 53.14 54.46, 51.75 55.63 C50.35 56.8, 48.83 57.87, 47.25 58.78 C45.67 59.69, 43.99 60.48, 42.27 61.1 C40.56 61.72, 38.77 62.2, 36.97 62.52 C35.17 62.84, 33.32 63, 31.5 63 C29.68 63, 27.83 62.84, 26.03 62.52 C24.23 62.2, 22.44 61.72, 20.73 61.1 C19.01 60.48, 17.33 59.69, 15.75 58.78 C14.17 57.87, 12.65 56.8, 11.25 55.63 C9.86 54.46, 8.54 53.14, 7.37 51.75 C6.2 50.35, 5.13 48.83, 4.22 47.25 C3.31 45.67, 2.52 43.99, 1.9 42.27 C1.28 40.56, 0.8 38.77, 0.48 36.97 C0.16 35.17, 0 33.32, 0 31.5 C0 29.68, 0.16 27.83, 0.48 26.03 C0.8 24.23, 1.28 22.44, 1.9 20.73 C2.52 19.01, 3.31 17.33, 4.22 15.75 C5.13 14.17, 6.2 12.65, 7.37 11.25 C8.54 9.86, 9.86 8.54, 11.25 7.37 C12.65 6.2, 14.17 5.13, 15.75 4.22 C17.33 3.31, 19.01 2.52, 20.73 1.9 C22.44 1.28, 24.23 0.8, 26.03 0.48 C27.83 0.16, 29.68 0, 31.5 0 C33.32 0, 35.17 0.16, 36.97 0.48 C38.77 0.8, 40.56 1.28, 42.27 1.9 C43.99 2.52, 45.67 3.31, 47.25 4.22 C48.83 5.13, 50.35 6.2, 51.75 7.37 C53.14 8.54, 54.46 9.86, 55.63 11.25 C56.8 12.65, 57.87 14.17, 58.78 15.75 C59.69 17.33, 60.48 19.01, 61.1 20.73 C61.72 22.44, 62.2 24.23, 62.52 26.03 C62.84 27.83, 62.92 30.59, 63 31.5 C63.08 32.41, 63.08 30.59, 63 31.5" stroke="#000000" stroke-width="2" fill="none"></path></g><g stroke-linecap="round" transform="translate(502.2768685350554 60.77820845114019) rotate(0 31.5 31.5)"><path d="M63 31.5 C63 33.32, 62.84 35.17, 62.52 36.97 C62.2 38.77, 61.72 40.56, 61.1 42.27 C60.48 43.99, 59.69 45.67, 58.78 47.25 C57.87 48.83, 56.8 50.35, 55.63 51.75 C54.46 53.14, 53.14 54.46, 51.75 55.63 C50.35 56.8, 48.83 57.87, 47.25 58.78 C45.67 59.69, 43.99 60.48, 42.27 61.1 C40.56 61.72, 38.77 62.2, 36.97 62.52 C35.17 62.84, 33.32 63, 31.5 63 C29.68 63, 27.83 62.84, 26.03 62.52 C24.23 62.2, 22.44 61.72, 20.73 61.1 C19.01 60.48, 17.33 59.69, 15.75 58.78 C14.17 57.87, 12.65 56.8, 11.25 55.63 C9.86 54.46, 8.54 53.14, 7.37 51.75 C6.2 50.35, 5.13 48.83, 4.22 47.25 C3.31 45.67, 2.52 43.99, 1.9 42.27 C1.28 40.56, 0.8 38.77, 0.48 36.97 C0.16 35.17, 0 33.32, 0 31.5 C0 29.68, 0.16 27.83, 0.48 26.03 C0.8 24.23, 1.28 22.44, 1.9 20.73 C2.52 19.01, 3.31 17.33, 4.22 15.75 C5.13 14.17, 6.2 12.65, 7.37 11.25 C8.54 9.86, 9.86 8.54, 11.25 7.37 C12.65 6.2, 14.17 5.13, 15.75 4.22 C17.33 3.31, 19.01 2.52, 20.73 1.9 C22.44 1.28, 24.23 0.8, 26.03 0.48 C27.83 0.16, 29.68 0, 31.5 0 C33.32 0, 35.17 0.16, 36.97 0.48 C38.77 0.8, 40.56 1.28, 42.27 1.9 C43.99 2.52, 45.67 3.31, 47.25 4.22 C48.83 5.13, 50.35 6.2, 51.75 7.37 C53.14 8.54, 54.46 9.86, 55.63 11.25 C56.8 12.65, 57.87 14.17, 58.78 15.75 C59.69 17.33, 60.48 19.01, 61.1 20.73 C61.72 22.44, 62.2 24.23, 62.52 26.03 C62.84 27.83, 62.92 30.59, 63 31.5 C63.08 32.41, 63.08 30.59, 63 31.5" stroke="#000000" stroke-width="2" fill="none"></path></g><g stroke-linecap="round"><g transform="translate(519.00395106255 121.74369800087504) rotate(0 -48.613541263747265 46.26725522513257)"><path d="M0 0 C-16.2 15.42, -81.02 77.11, -97.23 92.53 M0 0 C-16.2 15.42, -81.02 77.11, -97.23 92.53" stroke="#000000" stroke-width="2" fill="none"></path></g><g transform="translate(519.00395106255 121.74369800087504) rotate(0 -48.613541263747265 46.26725522513257)"><path d="M-97.23 92.53 L-91.75 78.57 L-83.01 87.75 L-97.23 92.53" stroke="none" stroke-width="0" fill="#000000" fill-rule="evenodd"></path><path d="M-97.23 92.53 C-95.94 89.24, -94.65 85.96, -91.75 78.57 M-97.23 92.53 C-96.01 89.44, -94.8 86.34, -91.75 78.57 M-91.75 78.57 C-89.26 81.19, -86.76 83.81, -83.01 87.75 M-91.75 78.57 C-89.26 81.19, -86.76 83.81, -83.01 87.75 M-83.01 87.75 C-88.04 89.44, -93.07 91.14, -97.23 92.53 M-83.01 87.75 C-86.78 89.02, -90.55 90.29, -97.23 92.53 M-97.23 92.53 C-97.23 92.53, -97.23 92.53, -97.23 92.53 M-97.23 92.53 C-97.23 92.53, -97.23 92.53, -97.23 92.53" stroke="#000000" stroke-width="2" fill="none"></path></g></g><g stroke-linecap="round"><g transform="translate(422.7768685350554 557.2782084511402) rotate(0 46 -1)"><path d="M0 0 C15.33 -0.33, 76.67 -1.67, 92 -2 M0 0 C15.33 -0.33, 76.67 -1.67, 92 -2" stroke="#000000" stroke-width="2" fill="none"></path></g><g transform="translate(422.7768685350554 557.2782084511402) rotate(0 46 -1)"><path d="M92 -2 L78.55 4.63 L78.27 -8.04 L92 -2" stroke="none" stroke-width="0" fill="#000000" fill-rule="evenodd"></path><path d="M92 -2 C86.64 0.64, 81.28 3.28, 78.55 4.63 M92 -2 C87.54 0.2, 83.08 2.4, 78.55 4.63 M78.55 4.63 C78.48 1.64, 78.42 -1.36, 78.27 -8.04 M78.55 4.63 C78.46 0.44, 78.36 -3.75, 78.27 -8.04 M78.27 -8.04 C81.34 -6.69, 84.41 -5.34, 92 -2 M78.27 -8.04 C83.31 -5.82, 88.35 -3.61, 92 -2 M92 -2 C92 -2, 92 -2, 92 -2 M92 -2 C92 -2, 92 -2, 92 -2" stroke="#000000" stroke-width="2" fill="none"></path></g></g><g stroke-linecap="round" transform="translate(516.2768685350554 520.7782084511402) rotate(0 31.5 31.5)"><path d="M63 31.5 C63 33.32, 62.84 35.17, 62.52 36.97 C62.2 38.77, 61.72 40.56, 61.1 42.27 C60.48 43.99, 59.69 45.67, 58.78 47.25 C57.87 48.83, 56.8 50.35, 55.63 51.75 C54.46 53.14, 53.14 54.46, 51.75 55.63 C50.35 56.8, 48.83 57.87, 47.25 58.78 C45.67 59.69, 43.99 60.48, 42.27 61.1 C40.56 61.72, 38.77 62.2, 36.97 62.52 C35.17 62.84, 33.32 63, 31.5 63 C29.68 63, 27.83 62.84, 26.03 62.52 C24.23 62.2, 22.44 61.72, 20.73 61.1 C19.01 60.48, 17.33 59.69, 15.75 58.78 C14.17 57.87, 12.65 56.8, 11.25 55.63 C9.86 54.46, 8.54 53.14, 7.37 51.75 C6.2 50.35, 5.13 48.83, 4.22 47.25 C3.31 45.67, 2.52 43.99, 1.9 42.27 C1.28 40.56, 0.8 38.77, 0.48 36.97 C0.16 35.17, 0 33.32, 0 31.5 C0 29.68, 0.16 27.83, 0.48 26.03 C0.8 24.23, 1.28 22.44, 1.9 20.73 C2.52 19.01, 3.31 17.33, 4.22 15.75 C5.13 14.17, 6.2 12.65, 7.37 11.25 C8.54 9.86, 9.86 8.54, 11.25 7.37 C12.65 6.2, 14.17 5.13, 15.75 4.22 C17.33 3.31, 19.01 2.52, 20.73 1.9 C22.44 1.28, 24.23 0.8, 26.03 0.48 C27.83 0.16, 29.68 0, 31.5 0 C33.32 0, 35.17 0.16, 36.97 0.48 C38.77 0.8, 40.56 1.28, 42.27 1.9 C43.99 2.52, 45.67 3.31, 47.25 4.22 C48.83 5.13, 50.35 6.2, 51.75 7.37 C53.14 8.54, 54.46 9.86, 55.63 11.25 C56.8 12.65, 57.87 14.17, 58.78 15.75 C59.69 17.33, 60.48 19.01, 61.1 20.73 C61.72 22.44, 62.2 24.23, 62.52 26.03 C62.84 27.83, 62.92 30.59, 63 31.5 C63.08 32.41, 63.08 30.59, 63 31.5" stroke="#000000" stroke-width="2" fill="none"></path></g><g stroke-linecap="round" transform="translate(515.2768685350554 383.7782084511402) rotate(0 31.5 31.5)"><path d="M63 31.5 C63 33.32, 62.84 35.17, 62.52 36.97 C62.2 38.77, 61.72 40.56, 61.1 42.27 C60.48 43.99, 59.69 45.67, 58.78 47.25 C57.87 48.83, 56.8 50.35, 55.63 51.75 C54.46 53.14, 53.14 54.46, 51.75 55.63 C50.35 56.8, 48.83 57.87, 47.25 58.78 C45.67 59.69, 43.99 60.48, 42.27 61.1 C40.56 61.72, 38.77 62.2, 36.97 62.52 C35.17 62.84, 33.32 63, 31.5 63 C29.68 63, 27.83 62.84, 26.03 62.52 C24.23 62.2, 22.44 61.72, 20.73 61.1 C19.01 60.48, 17.33 59.69, 15.75 58.78 C14.17 57.87, 12.65 56.8, 11.25 55.63 C9.86 54.46, 8.54 53.14, 7.37 51.75 C6.2 50.35, 5.13 48.83, 4.22 47.25 C3.31 45.67, 2.52 43.99, 1.9 42.27 C1.28 40.56, 0.8 38.77, 0.48 36.97 C0.16 35.17, 0 33.32, 0 31.5 C0 29.68, 0.16 27.83, 0.48 26.03 C0.8 24.23, 1.28 22.44, 1.9 20.73 C2.52 19.01, 3.31 17.33, 4.22 15.75 C5.13 14.17, 6.2 12.65, 7.37 11.25 C8.54 9.86, 9.86 8.54, 11.25 7.37 C12.65 6.2, 14.17 5.13, 15.75 4.22 C17.33 3.31, 19.01 2.52, 20.73 1.9 C22.44 1.28, 24.23 0.8, 26.03 0.48 C27.83 0.16, 29.68 0, 31.5 0 C33.32 0, 35.17 0.16, 36.97 0.48 C38.77 0.8, 40.56 1.28, 42.27 1.9 C43.99 2.52, 45.67 3.31, 47.25 4.22 C48.83 5.13, 50.35 6.2, 51.75 7.37 C53.14 8.54, 54.46 9.86, 55.63 11.25 C56.8 12.65, 57.87 14.17, 58.78 15.75 C59.69 17.33, 60.48 19.01, 61.1 20.73 C61.72 22.44, 62.2 24.23, 62.52 26.03 C62.84 27.83, 62.92 30.59, 63 31.5 C63.08 32.41, 63.08 30.59, 63 31.5" stroke="#000000" stroke-width="2" fill="none"></path></g><g stroke-linecap="round"><g transform="translate(517.7768685350554 433.2782084511402) rotate(0 -50 45)"><path d="M0 0 C-16.67 15, -83.33 75, -100 90 M0 0 C-16.67 15, -83.33 75, -100 90" stroke="#000000" stroke-width="2" fill="none"></path></g><g transform="translate(517.7768685350554 433.2782084511402) rotate(0 -50 45)"><path d="M-100 90 L-94.14 76.19 L-85.65 85.62 L-100 90" stroke="none" stroke-width="0" fill="#000000" fill-rule="evenodd"></path><path d="M-100 90 C-97.95 85.18, -95.91 80.37, -94.14 76.19 M-100 90 C-98.82 87.21, -97.63 84.42, -94.14 76.19 M-94.14 76.19 C-90.9 79.79, -87.66 83.39, -85.65 85.62 M-94.14 76.19 C-91.7 78.9, -89.26 81.61, -85.65 85.62 M-85.65 85.62 C-89.8 86.88, -93.95 88.15, -100 90 M-85.65 85.62 C-91.14 87.29, -96.62 88.97, -100 90 M-100 90 C-100 90, -100 90, -100 90 M-100 90 C-100 90, -100 90, -100 90" stroke="#000000" stroke-width="2" fill="none"></path></g></g><g stroke-linecap="round"><g transform="translate(408.7768685350554 836.2782084511402) rotate(0 46 -1)"><path d="M0 0 C15.33 -0.33, 76.67 -1.67, 92 -2 M0 0 C15.33 -0.33, 76.67 -1.67, 92 -2" stroke="#000000" stroke-width="2" fill="none"></path></g><g transform="translate(408.7768685350554 836.2782084511402) rotate(0 46 -1)"><path d="M92 -2 L78.55 4.63 L78.27 -8.04 L92 -2" stroke="none" stroke-width="0" fill="#000000" fill-rule="evenodd"></path><path d="M92 -2 C88.63 -0.34, 85.26 1.32, 78.55 4.63 M92 -2 C86.67 0.63, 81.34 3.25, 78.55 4.63 M78.55 4.63 C78.47 1.23, 78.4 -2.18, 78.27 -8.04 M78.55 4.63 C78.46 0.65, 78.37 -3.34, 78.27 -8.04 M78.27 -8.04 C83.55 -5.72, 88.83 -3.39, 92 -2 M78.27 -8.04 C83.59 -5.7, 88.9 -3.36, 92 -2 M92 -2 C92 -2, 92 -2, 92 -2 M92 -2 C92 -2, 92 -2, 92 -2" stroke="#000000" stroke-width="2" fill="none"></path></g></g><g stroke-linecap="round" transform="translate(500.2768685350554 803.7782084511402) rotate(0 31.5 31.5)"><path d="M63 31.5 C63 33.32, 62.84 35.17, 62.52 36.97 C62.2 38.77, 61.72 40.56, 61.1 42.27 C60.48 43.99, 59.69 45.67, 58.78 47.25 C57.87 48.83, 56.8 50.35, 55.63 51.75 C54.46 53.14, 53.14 54.46, 51.75 55.63 C50.35 56.8, 48.83 57.87, 47.25 58.78 C45.67 59.69, 43.99 60.48, 42.27 61.1 C40.56 61.72, 38.77 62.2, 36.97 62.52 C35.17 62.84, 33.32 63, 31.5 63 C29.68 63, 27.83 62.84, 26.03 62.52 C24.23 62.2, 22.44 61.72, 20.73 61.1 C19.01 60.48, 17.33 59.69, 15.75 58.78 C14.17 57.87, 12.65 56.8, 11.25 55.63 C9.86 54.46, 8.54 53.14, 7.37 51.75 C6.2 50.35, 5.13 48.83, 4.22 47.25 C3.31 45.67, 2.52 43.99, 1.9 42.27 C1.28 40.56, 0.8 38.77, 0.48 36.97 C0.16 35.17, 0 33.32, 0 31.5 C0 29.68, 0.16 27.83, 0.48 26.03 C0.8 24.23, 1.28 22.44, 1.9 20.73 C2.52 19.01, 3.31 17.33, 4.22 15.75 C5.13 14.17, 6.2 12.65, 7.37 11.25 C8.54 9.86, 9.86 8.54, 11.25 7.37 C12.65 6.2, 14.17 5.13, 15.75 4.22 C17.33 3.31, 19.01 2.52, 20.73 1.9 C22.44 1.28, 24.23 0.8, 26.03 0.48 C27.83 0.16, 29.68 0, 31.5 0 C33.32 0, 35.17 0.16, 36.97 0.48 C38.77 0.8, 40.56 1.28, 42.27 1.9 C43.99 2.52, 45.67 3.31, 47.25 4.22 C48.83 5.13, 50.35 6.2, 51.75 7.37 C53.14 8.54, 54.46 9.86, 55.63 11.25 C56.8 12.65, 57.87 14.17, 58.78 15.75 C59.69 17.33, 60.48 19.01, 61.1 20.73 C61.72 22.44, 62.2 24.23, 62.52 26.03 C62.84 27.83, 62.92 30.59, 63 31.5 C63.08 32.41, 63.08 30.59, 63 31.5" stroke="#000000" stroke-width="2" fill="none"></path></g><g stroke-linecap="round" transform="translate(503.2768685350554 685.7782084511402) rotate(0 31.5 31.5)"><path d="M63 31.5 C63 33.32, 62.84 35.17, 62.52 36.97 C62.2 38.77, 61.72 40.56, 61.1 42.27 C60.48 43.99, 59.69 45.67, 58.78 47.25 C57.87 48.83, 56.8 50.35, 55.63 51.75 C54.46 53.14, 53.14 54.46, 51.75 55.63 C50.35 56.8, 48.83 57.87, 47.25 58.78 C45.67 59.69, 43.99 60.48, 42.27 61.1 C40.56 61.72, 38.77 62.2, 36.97 62.52 C35.17 62.84, 33.32 63, 31.5 63 C29.68 63, 27.83 62.84, 26.03 62.52 C24.23 62.2, 22.44 61.72, 20.73 61.1 C19.01 60.48, 17.33 59.69, 15.75 58.78 C14.17 57.87, 12.65 56.8, 11.25 55.63 C9.86 54.46, 8.54 53.14, 7.37 51.75 C6.2 50.35, 5.13 48.83, 4.22 47.25 C3.31 45.67, 2.52 43.99, 1.9 42.27 C1.28 40.56, 0.8 38.77, 0.48 36.97 C0.16 35.17, 0 33.32, 0 31.5 C0 29.68, 0.16 27.83, 0.48 26.03 C0.8 24.23, 1.28 22.44, 1.9 20.73 C2.52 19.01, 3.31 17.33, 4.22 15.75 C5.13 14.17, 6.2 12.65, 7.37 11.25 C8.54 9.86, 9.86 8.54, 11.25 7.37 C12.65 6.2, 14.17 5.13, 15.75 4.22 C17.33 3.31, 19.01 2.52, 20.73 1.9 C22.44 1.28, 24.23 0.8, 26.03 0.48 C27.83 0.16, 29.68 0, 31.5 0 C33.32 0, 35.17 0.16, 36.97 0.48 C38.77 0.8, 40.56 1.28, 42.27 1.9 C43.99 2.52, 45.67 3.31, 47.25 4.22 C48.83 5.13, 50.35 6.2, 51.75 7.37 C53.14 8.54, 54.46 9.86, 55.63 11.25 C56.8 12.65, 57.87 14.17, 58.78 15.75 C59.69 17.33, 60.48 19.01, 61.1 20.73 C61.72 22.44, 62.2 24.23, 62.52 26.03 C62.84 27.83, 62.92 30.59, 63 31.5 C63.08 32.41, 63.08 30.59, 63 31.5" stroke="#000000" stroke-width="2" fill="none"></path></g><g stroke-linecap="round"><g transform="translate(505.7768685350554 736.2782084511402) rotate(0 -52 35)"><path d="M0 0 C-17.33 11.67, -86.67 58.33, -104 70 M0 0 C-17.33 11.67, -86.67 58.33, -104 70" stroke="#000000" stroke-width="2" fill="none"></path></g><g transform="translate(505.7768685350554 736.2782084511402) rotate(0 -52 35)"><path d="M-104 70 L-96.26 57.15 L-89.18 67.67 L-104 70" stroke="none" stroke-width="0" fill="#000000" fill-rule="evenodd"></path><path d="M-104 70 C-102.09 66.83, -100.18 63.65, -96.26 57.15 M-104 70 C-101.76 66.28, -99.52 62.56, -96.26 57.15 M-96.26 57.15 C-94.49 59.78, -92.72 62.41, -89.18 67.67 M-96.26 57.15 C-94.42 59.89, -92.57 62.63, -89.18 67.67 M-89.18 67.67 C-92.83 68.24, -96.48 68.82, -104 70 M-89.18 67.67 C-94.6 68.52, -100.03 69.37, -104 70 M-104 70 C-104 70, -104 70, -104 70 M-104 70 C-104 70, -104 70, -104 70" stroke="#000000" stroke-width="2" fill="none"></path></g></g><g stroke-linecap="round"><g transform="translate(576.7768685350554 246.2782084511402) rotate(0 47.655583433957645 0.6555834339577018)"><path d="M0 0 C15.89 0.22, 79.43 1.09, 95.31 1.31 M0 0 C15.89 0.22, 79.43 1.09, 95.31 1.31" stroke="#000000" stroke-width="2" fill="none"></path></g><g transform="translate(576.7768685350554 246.2782084511402) rotate(0 47.655583433957645 0.6555834339577018)"><path d="M95.31 1.31 L81.63 7.46 L81.81 -5.21 L95.31 1.31" stroke="none" stroke-width="0" fill="#000000" fill-rule="evenodd"></path><path d="M95.31 1.31 C91.46 3.04, 87.61 4.78, 81.63 7.46 M95.31 1.31 C92.4 2.62, 89.5 3.92, 81.63 7.46 M81.63 7.46 C81.67 4.61, 81.71 1.76, 81.81 -5.21 M81.63 7.46 C81.7 2.47, 81.77 -2.52, 81.81 -5.21 M81.81 -5.21 C86.9 -2.75, 92 -0.29, 95.31 1.31 M81.81 -5.21 C86.42 -2.98, 91.04 -0.75, 95.31 1.31 M95.31 1.31 C95.31 1.31, 95.31 1.31, 95.31 1.31 M95.31 1.31 C95.31 1.31, 95.31 1.31, 95.31 1.31" stroke="#000000" stroke-width="2" fill="none"></path></g></g><g stroke-linecap="round"><g transform="translate(672.7768685350554 198.7782084511402) rotate(0 0 52.81116686791535)"><path d="M0 0 C0 17.6, 0 88.02, 0 105.62 M0 0 C0 17.6, 0 88.02, 0 105.62" stroke="#000000" stroke-width="2" fill="none"></path></g></g><g stroke-linecap="round"><g transform="translate(670.7768685350554 223.2782084511402) rotate(0 -47.43093908202047 -54.25690609179796)"><path d="M0 0 C-15.81 -18.09, -79.05 -90.43, -94.86 -108.51 M0 0 C-15.81 -18.09, -79.05 -90.43, -94.86 -108.51" stroke="#000000" stroke-width="2" fill="none"></path></g><g transform="translate(670.7768685350554 223.2782084511402) rotate(0 -47.43093908202047 -54.25690609179796)"><path d="M-94.86 -108.51 L-81.14 -102.45 L-90.69 -94.11 L-94.86 -108.51" stroke="none" stroke-width="0" fill="#000000" fill-rule="evenodd"></path><path d="M-94.86 -108.51 C-89.68 -106.22, -84.5 -103.94, -81.14 -102.45 M-94.86 -108.51 C-90.95 -106.78, -87.04 -105.06, -81.14 -102.45 M-81.14 -102.45 C-83.29 -100.57, -85.43 -98.7, -90.69 -94.11 M-81.14 -102.45 C-84.71 -99.33, -88.28 -96.21, -90.69 -94.11 M-90.69 -94.11 C-91.72 -97.66, -92.75 -101.21, -94.86 -108.51 M-90.69 -94.11 C-91.71 -97.65, -92.74 -101.19, -94.86 -108.51 M-94.86 -108.51 C-94.86 -108.51, -94.86 -108.51, -94.86 -108.51 M-94.86 -108.51 C-94.86 -108.51, -94.86 -108.51, -94.86 -108.51" stroke="#000000" stroke-width="2" fill="none"></path></g></g><g stroke-linecap="round"><g transform="translate(584.7768685350554 554.2782084511402) rotate(0 46 -1)"><path d="M0 0 C15.33 -0.33, 76.67 -1.67, 92 -2 M0 0 C15.33 -0.33, 76.67 -1.67, 92 -2" stroke="#000000" stroke-width="2" fill="none"></path></g><g transform="translate(584.7768685350554 554.2782084511402) rotate(0 46 -1)"><path d="M92 -2 L78.55 4.63 L78.27 -8.04 L92 -2" stroke="none" stroke-width="0" fill="#000000" fill-rule="evenodd"></path><path d="M92 -2 C88.69 -0.37, 85.39 1.26, 78.55 4.63 M92 -2 C88.07 -0.06, 84.13 1.88, 78.55 4.63 M78.55 4.63 C78.48 1.56, 78.41 -1.51, 78.27 -8.04 M78.55 4.63 C78.48 1.54, 78.41 -1.56, 78.27 -8.04 M78.27 -8.04 C82.72 -6.08, 87.17 -4.13, 92 -2 M78.27 -8.04 C83.29 -5.83, 88.31 -3.63, 92 -2 M92 -2 C92 -2, 92 -2, 92 -2 M92 -2 C92 -2, 92 -2, 92 -2" stroke="#000000" stroke-width="2" fill="none"></path></g></g><g stroke-linecap="round"><g transform="translate(680.7768685350554 504.7782084511402) rotate(0 0 49.5)"><path d="M0 0 C0 16.5, 0 82.5, 0 99 M0 0 C0 16.5, 0 82.5, 0 99" stroke="#000000" stroke-width="2" fill="none"></path></g></g><g stroke-linecap="round"><g transform="translate(682.7768685350554 529.2782084511402) rotate(0 -49.5 -51.5)"><path d="M0 0 C-16.5 -17.17, -82.5 -85.83, -99 -103 M0 0 C-16.5 -17.17, -82.5 -85.83, -99 -103" stroke="#000000" stroke-width="2" fill="none"></path></g><g transform="translate(682.7768685350554 529.2782084511402) rotate(0 -49.5 -51.5)"><path d="M-99 -103 L-85.01 -97.59 L-94.15 -88.81 L-99 -103" stroke="none" stroke-width="0" fill="#000000" fill-rule="evenodd"></path><path d="M-99 -103 C-93.54 -100.89, -88.07 -98.78, -85.01 -97.59 M-99 -103 C-94.43 -101.23, -89.85 -99.46, -85.01 -97.59 M-85.01 -97.59 C-88.06 -94.66, -91.11 -91.73, -94.15 -88.81 M-85.01 -97.59 C-87.54 -95.16, -90.07 -92.73, -94.15 -88.81 M-94.15 -88.81 C-96.07 -94.42, -97.99 -100.04, -99 -103 M-94.15 -88.81 C-95.62 -93.1, -97.09 -97.4, -99 -103 M-99 -103 C-99 -103, -99 -103, -99 -103 M-99 -103 C-99 -103, -99 -103, -99 -103" stroke="#000000" stroke-width="2" fill="none"></path></g></g><g stroke-linecap="round"><g transform="translate(568.7768685350554 839.2782084511402) rotate(0 47.875 0.25)"><path d="M0 0 C15.96 0.08, 79.79 0.42, 95.75 0.5 M0 0 C15.96 0.08, 79.79 0.42, 95.75 0.5" stroke="#000000" stroke-width="2" fill="none"></path></g><g transform="translate(568.7768685350554 839.2782084511402) rotate(0 47.875 0.25)"><path d="M95.75 0.5 L82.12 6.77 L82.19 -5.91 L95.75 0.5" stroke="none" stroke-width="0" fill="#000000" fill-rule="evenodd"></path><path d="M95.75 0.5 C90.84 2.76, 85.94 5.01, 82.12 6.77 M95.75 0.5 C91.25 2.57, 86.75 4.64, 82.12 6.77 M82.12 6.77 C82.14 3.88, 82.15 0.99, 82.19 -5.91 M82.12 6.77 C82.15 1.79, 82.17 -3.19, 82.19 -5.91 M82.19 -5.91 C84.99 -4.59, 87.78 -3.27, 95.75 0.5 M82.19 -5.91 C86.75 -3.75, 91.32 -1.6, 95.75 0.5 M95.75 0.5 C95.75 0.5, 95.75 0.5, 95.75 0.5 M95.75 0.5 C95.75 0.5, 95.75 0.5, 95.75 0.5" stroke="#000000" stroke-width="2" fill="none"></path></g></g><g stroke-linecap="round"><g transform="translate(669.7768685350554 789.2782084511402) rotate(0 0 50.125)"><path d="M0 0 C0 16.71, 0 83.54, 0 100.25 M0 0 C0 16.71, 0 83.54, 0 100.25" stroke="#000000" stroke-width="2" fill="none"></path></g></g><g stroke-linecap="round"><g transform="translate(664.7768685350554 818.2782084511402) rotate(0 -48 -43)"><path d="M0 0 C-16 -14.33, -80 -71.67, -96 -86 M0 0 C-16 -14.33, -80 -71.67, -96 -86" stroke="#000000" stroke-width="2" fill="none"></path></g><g transform="translate(664.7768685350554 818.2782084511402) rotate(0 -48 -43)"><path d="M-96 -86 L-81.64 -81.65 L-90.1 -72.21 L-96 -86" stroke="none" stroke-width="0" fill="#000000" fill-rule="evenodd"></path><path d="M-96 -86 C-93.09 -85.12, -90.18 -84.24, -81.64 -81.65 M-96 -86 C-90.73 -84.4, -85.46 -82.81, -81.64 -81.65 M-81.64 -81.65 C-83.43 -79.66, -85.22 -77.66, -90.1 -72.21 M-81.64 -81.65 C-84.15 -78.85, -86.66 -76.05, -90.1 -72.21 M-90.1 -72.21 C-91.59 -75.68, -93.08 -79.16, -96 -86 M-90.1 -72.21 C-91.59 -75.68, -93.07 -79.15, -96 -86 M-96 -86 C-96 -86, -96 -86, -96 -86 M-96 -86 C-96 -86, -96 -86, -96 -86" stroke="#000000" stroke-width="2" fill="none"></path></g></g><g stroke-linecap="round" transform="translate(524.8692589035634 79.466655103211) rotate(0 7.761029474841848 7.7641518249010915)"><path d="M15.52 7.76 C15.52 8.21, 15.48 8.67, 15.4 9.11 C15.33 9.55, 15.21 10, 15.05 10.42 C14.9 10.84, 14.71 11.26, 14.48 11.65 C14.26 12.04, 14 12.41, 13.71 12.75 C13.42 13.1, 13.09 13.42, 12.75 13.71 C12.41 14, 12.03 14.26, 11.64 14.49 C11.25 14.71, 10.84 14.91, 10.42 15.06 C9.99 15.21, 9.55 15.33, 9.11 15.41 C8.67 15.49, 8.21 15.53, 7.76 15.53 C7.31 15.53, 6.86 15.49, 6.41 15.41 C5.97 15.33, 5.53 15.21, 5.11 15.06 C4.68 14.91, 4.27 14.71, 3.88 14.49 C3.49 14.26, 3.12 14, 2.77 13.71 C2.43 13.42, 2.1 13.1, 1.82 12.75 C1.53 12.41, 1.26 12.04, 1.04 11.65 C0.82 11.26, 0.62 10.84, 0.47 10.42 C0.31 10, 0.2 9.55, 0.12 9.11 C0.04 8.67, 0 8.21, 0 7.76 C0 7.31, 0.04 6.86, 0.12 6.42 C0.2 5.97, 0.31 5.53, 0.47 5.11 C0.62 4.69, 0.82 4.27, 1.04 3.88 C1.26 3.49, 1.53 3.12, 1.82 2.77 C2.1 2.43, 2.43 2.11, 2.77 1.82 C3.12 1.53, 3.49 1.26, 3.88 1.04 C4.27 0.82, 4.68 0.62, 5.11 0.47 C5.53 0.31, 5.97 0.2, 6.41 0.12 C6.86 0.04, 7.31 0, 7.76 0 C8.21 0, 8.67 0.04, 9.11 0.12 C9.55 0.2, 9.99 0.31, 10.42 0.47 C10.84 0.62, 11.25 0.82, 11.64 1.04 C12.03 1.26, 12.41 1.53, 12.75 1.82 C13.09 2.11, 13.42 2.43, 13.71 2.77 C14 3.12, 14.26 3.49, 14.48 3.88 C14.71 4.27, 14.9 4.69, 15.05 5.11 C15.21 5.53, 15.33 5.97, 15.4 6.42 C15.48 6.86, 15.5 7.54, 15.52 7.76 C15.54 7.99, 15.54 7.54, 15.52 7.76" stroke="none" stroke-width="0" fill="#000"></path><path d="M15.52 7.76 C15.52 8.21, 15.48 8.67, 15.4 9.11 C15.33 9.55, 15.21 10, 15.05 10.42 C14.9 10.84, 14.71 11.26, 14.48 11.65 C14.26 12.04, 14 12.41, 13.71 12.75 C13.42 13.1, 13.09 13.42, 12.75 13.71 C12.41 14, 12.03 14.26, 11.64 14.49 C11.25 14.71, 10.84 14.91, 10.42 15.06 C9.99 15.21, 9.55 15.33, 9.11 15.41 C8.67 15.49, 8.21 15.53, 7.76 15.53 C7.31 15.53, 6.86 15.49, 6.41 15.41 C5.97 15.33, 5.53 15.21, 5.11 15.06 C4.68 14.91, 4.27 14.71, 3.88 14.49 C3.49 14.26, 3.12 14, 2.77 13.71 C2.43 13.42, 2.1 13.1, 1.82 12.75 C1.53 12.41, 1.26 12.04, 1.04 11.65 C0.82 11.26, 0.62 10.84, 0.47 10.42 C0.31 10, 0.2 9.55, 0.12 9.11 C0.04 8.67, 0 8.21, 0 7.76 C0 7.31, 0.04 6.86, 0.12 6.42 C0.2 5.97, 0.31 5.53, 0.47 5.11 C0.62 4.69, 0.82 4.27, 1.04 3.88 C1.26 3.49, 1.53 3.12, 1.82 2.77 C2.1 2.43, 2.43 2.11, 2.77 1.82 C3.12 1.53, 3.49 1.26, 3.88 1.04 C4.27 0.82, 4.68 0.62, 5.11 0.47 C5.53 0.31, 5.97 0.2, 6.41 0.12 C6.86 0.04, 7.31 0, 7.76 0 C8.21 0, 8.67 0.04, 9.11 0.12 C9.55 0.2, 9.99 0.31, 10.42 0.47 C10.84 0.62, 11.25 0.82, 11.64 1.04 C12.03 1.26, 12.41 1.53, 12.75 1.82 C13.09 2.11, 13.42 2.43, 13.71 2.77 C14 3.12, 14.26 3.49, 14.48 3.88 C14.71 4.27, 14.9 4.69, 15.05 5.11 C15.21 5.53, 15.33 5.97, 15.4 6.42 C15.48 6.86, 15.5 7.54, 15.52 7.76 C15.54 7.99, 15.54 7.54, 15.52 7.76" stroke="#000000" stroke-width="2" fill="none"></path></g><g stroke-linecap="round" transform="translate(538.0885106256727 405.6816912308918) rotate(0 7.761029474841848 7.7641518249010915)"><path d="M15.52 7.76 C15.52 8.21, 15.48 8.67, 15.4 9.11 C15.33 9.55, 15.21 10, 15.05 10.42 C14.9 10.84, 14.71 11.26, 14.48 11.65 C14.26 12.04, 14 12.41, 13.71 12.75 C13.42 13.1, 13.09 13.42, 12.75 13.71 C12.41 14, 12.03 14.26, 11.64 14.49 C11.25 14.71, 10.84 14.91, 10.42 15.06 C9.99 15.21, 9.55 15.33, 9.11 15.41 C8.67 15.49, 8.21 15.53, 7.76 15.53 C7.31 15.53, 6.86 15.49, 6.41 15.41 C5.97 15.33, 5.53 15.21, 5.11 15.06 C4.68 14.91, 4.27 14.71, 3.88 14.49 C3.49 14.26, 3.12 14, 2.77 13.71 C2.43 13.42, 2.1 13.1, 1.82 12.75 C1.53 12.41, 1.26 12.04, 1.04 11.65 C0.82 11.26, 0.62 10.84, 0.47 10.42 C0.31 10, 0.2 9.55, 0.12 9.11 C0.04 8.67, 0 8.21, 0 7.76 C0 7.31, 0.04 6.86, 0.12 6.42 C0.2 5.97, 0.31 5.53, 0.47 5.11 C0.62 4.69, 0.82 4.27, 1.04 3.88 C1.26 3.49, 1.53 3.12, 1.82 2.77 C2.1 2.43, 2.43 2.11, 2.77 1.82 C3.12 1.53, 3.49 1.26, 3.88 1.04 C4.27 0.82, 4.68 0.62, 5.11 0.47 C5.53 0.31, 5.97 0.2, 6.41 0.12 C6.86 0.04, 7.31 0, 7.76 0 C8.21 0, 8.67 0.04, 9.11 0.12 C9.55 0.2, 9.99 0.31, 10.42 0.47 C10.84 0.62, 11.25 0.82, 11.64 1.04 C12.03 1.26, 12.41 1.53, 12.75 1.82 C13.09 2.11, 13.42 2.43, 13.71 2.77 C14 3.12, 14.26 3.49, 14.48 3.88 C14.71 4.27, 14.9 4.69, 15.05 5.11 C15.21 5.53, 15.33 5.97, 15.4 6.42 C15.48 6.86, 15.5 7.54, 15.52 7.76 C15.54 7.99, 15.54 7.54, 15.52 7.76" stroke="none" stroke-width="0" fill="#000"></path><path d="M15.52 7.76 C15.52 8.21, 15.48 8.67, 15.4 9.11 C15.33 9.55, 15.21 10, 15.05 10.42 C14.9 10.84, 14.71 11.26, 14.48 11.65 C14.26 12.04, 14 12.41, 13.71 12.75 C13.42 13.1, 13.09 13.42, 12.75 13.71 C12.41 14, 12.03 14.26, 11.64 14.49 C11.25 14.71, 10.84 14.91, 10.42 15.06 C9.99 15.21, 9.55 15.33, 9.11 15.41 C8.67 15.49, 8.21 15.53, 7.76 15.53 C7.31 15.53, 6.86 15.49, 6.41 15.41 C5.97 15.33, 5.53 15.21, 5.11 15.06 C4.68 14.91, 4.27 14.71, 3.88 14.49 C3.49 14.26, 3.12 14, 2.77 13.71 C2.43 13.42, 2.1 13.1, 1.82 12.75 C1.53 12.41, 1.26 12.04, 1.04 11.65 C0.82 11.26, 0.62 10.84, 0.47 10.42 C0.31 10, 0.2 9.55, 0.12 9.11 C0.04 8.67, 0 8.21, 0 7.76 C0 7.31, 0.04 6.86, 0.12 6.42 C0.2 5.97, 0.31 5.53, 0.47 5.11 C0.62 4.69, 0.82 4.27, 1.04 3.88 C1.26 3.49, 1.53 3.12, 1.82 2.77 C2.1 2.43, 2.43 2.11, 2.77 1.82 C3.12 1.53, 3.49 1.26, 3.88 1.04 C4.27 0.82, 4.68 0.62, 5.11 0.47 C5.53 0.31, 5.97 0.2, 6.41 0.12 C6.86 0.04, 7.31 0, 7.76 0 C8.21 0, 8.67 0.04, 9.11 0.12 C9.55 0.2, 9.99 0.31, 10.42 0.47 C10.84 0.62, 11.25 0.82, 11.64 1.04 C12.03 1.26, 12.41 1.53, 12.75 1.82 C13.09 2.11, 13.42 2.43, 13.71 2.77 C14 3.12, 14.26 3.49, 14.48 3.88 C14.71 4.27, 14.9 4.69, 15.05 5.11 C15.21 5.53, 15.33 5.97, 15.4 6.42 C15.48 6.86, 15.5 7.54, 15.52 7.76 C15.54 7.99, 15.54 7.54, 15.52 7.76" stroke="#000000" stroke-width="2" fill="none"></path></g><g stroke-linecap="round" transform="translate(525.2308585951283 703.7711350683762) rotate(0 7.761029474841848 7.7641518249010915)"><path d="M15.52 7.76 C15.52 8.21, 15.48 8.67, 15.4 9.11 C15.33 9.55, 15.21 10, 15.05 10.42 C14.9 10.84, 14.71 11.26, 14.48 11.65 C14.26 12.04, 14 12.41, 13.71 12.75 C13.42 13.1, 13.09 13.42, 12.75 13.71 C12.41 14, 12.03 14.26, 11.64 14.49 C11.25 14.71, 10.84 14.91, 10.42 15.06 C9.99 15.21, 9.55 15.33, 9.11 15.41 C8.67 15.49, 8.21 15.53, 7.76 15.53 C7.31 15.53, 6.86 15.49, 6.41 15.41 C5.97 15.33, 5.53 15.21, 5.11 15.06 C4.68 14.91, 4.27 14.71, 3.88 14.49 C3.49 14.26, 3.12 14, 2.77 13.71 C2.43 13.42, 2.1 13.1, 1.82 12.75 C1.53 12.41, 1.26 12.04, 1.04 11.65 C0.82 11.26, 0.62 10.84, 0.47 10.42 C0.31 10, 0.2 9.55, 0.12 9.11 C0.04 8.67, 0 8.21, 0 7.76 C0 7.31, 0.04 6.86, 0.12 6.42 C0.2 5.97, 0.31 5.53, 0.47 5.11 C0.62 4.69, 0.82 4.27, 1.04 3.88 C1.26 3.49, 1.53 3.12, 1.82 2.77 C2.1 2.43, 2.43 2.11, 2.77 1.82 C3.12 1.53, 3.49 1.26, 3.88 1.04 C4.27 0.82, 4.68 0.62, 5.11 0.47 C5.53 0.31, 5.97 0.2, 6.41 0.12 C6.86 0.04, 7.31 0, 7.76 0 C8.21 0, 8.67 0.04, 9.11 0.12 C9.55 0.2, 9.99 0.31, 10.42 0.47 C10.84 0.62, 11.25 0.82, 11.64 1.04 C12.03 1.26, 12.41 1.53, 12.75 1.82 C13.09 2.11, 13.42 2.43, 13.71 2.77 C14 3.12, 14.26 3.49, 14.48 3.88 C14.71 4.27, 14.9 4.69, 15.05 5.11 C15.21 5.53, 15.33 5.97, 15.4 6.42 C15.48 6.86, 15.5 7.54, 15.52 7.76 C15.54 7.99, 15.54 7.54, 15.52 7.76" stroke="none" stroke-width="0" fill="#000"></path><path d="M15.52 7.76 C15.52 8.21, 15.48 8.67, 15.4 9.11 C15.33 9.55, 15.21 10, 15.05 10.42 C14.9 10.84, 14.71 11.26, 14.48 11.65 C14.26 12.04, 14 12.41, 13.71 12.75 C13.42 13.1, 13.09 13.42, 12.75 13.71 C12.41 14, 12.03 14.26, 11.64 14.49 C11.25 14.71, 10.84 14.91, 10.42 15.06 C9.99 15.21, 9.55 15.33, 9.11 15.41 C8.67 15.49, 8.21 15.53, 7.76 15.53 C7.31 15.53, 6.86 15.49, 6.41 15.41 C5.97 15.33, 5.53 15.21, 5.11 15.06 C4.68 14.91, 4.27 14.71, 3.88 14.49 C3.49 14.26, 3.12 14, 2.77 13.71 C2.43 13.42, 2.1 13.1, 1.82 12.75 C1.53 12.41, 1.26 12.04, 1.04 11.65 C0.82 11.26, 0.62 10.84, 0.47 10.42 C0.31 10, 0.2 9.55, 0.12 9.11 C0.04 8.67, 0 8.21, 0 7.76 C0 7.31, 0.04 6.86, 0.12 6.42 C0.2 5.97, 0.31 5.53, 0.47 5.11 C0.62 4.69, 0.82 4.27, 1.04 3.88 C1.26 3.49, 1.53 3.12, 1.82 2.77 C2.1 2.43, 2.43 2.11, 2.77 1.82 C3.12 1.53, 3.49 1.26, 3.88 1.04 C4.27 0.82, 4.68 0.62, 5.11 0.47 C5.53 0.31, 5.97 0.2, 6.41 0.12 C6.86 0.04, 7.31 0, 7.76 0 C8.21 0, 8.67 0.04, 9.11 0.12 C9.55 0.2, 9.99 0.31, 10.42 0.47 C10.84 0.62, 11.25 0.82, 11.64 1.04 C12.03 1.26, 12.41 1.53, 12.75 1.82 C13.09 2.11, 13.42 2.43, 13.71 2.77 C14 3.12, 14.26 3.49, 14.48 3.88 C14.71 4.27, 14.9 4.69, 15.05 5.11 C15.21 5.53, 15.33 5.97, 15.4 6.42 C15.48 6.86, 15.5 7.54, 15.52 7.76 C15.54 7.99, 15.54 7.54, 15.52 7.76" stroke="#000000" stroke-width="2" fill="none"></path></g><g transform="translate(10 423.0290270345045) rotate(0 65.5 12.5)"><text x="0" y="18" font-family="Virgil, Segoe UI Emoji" font-size="20px" fill="#000000" text-anchor="start" style="white-space: pre;" direction="ltr">Llegan autos</text></g><g transform="translate(170.44443368471377 577.2546842198108) rotate(0 40.5 37.5)"><text x="0" y="18" font-family="Virgil, Segoe UI Emoji" font-size="20px" fill="#000000" text-anchor="start" style="white-space: pre;" direction="ltr">Autos </text><text x="0" y="43" font-family="Virgil, Segoe UI Emoji" font-size="20px" fill="#000000" text-anchor="start" style="white-space: pre;" direction="ltr">haciendo</text><text x="0" y="68" font-family="Virgil, Segoe UI Emoji" font-size="20px" fill="#000000" text-anchor="start" style="white-space: pre;" direction="ltr">fila</text></g><g transform="translate(388.91658096457115 310.6805222021592) rotate(0 47.5 25)"><text x="0" y="18" font-family="Virgil, Segoe UI Emoji" font-size="20px" fill="#000000" text-anchor="start" style="white-space: pre;" direction="ltr">Se libera</text><text x="0" y="43" font-family="Virgil, Segoe UI Emoji" font-size="20px" fill="#000000" text-anchor="start" style="white-space: pre;" direction="ltr">surtidor 1</text></g><g transform="translate(352.59820689265337 616.7948872151912) rotate(0 52 24.99999999999997)"><text x="0" y="18" font-family="Virgil, Segoe UI Emoji" font-size="20px" fill="#000000" text-anchor="start" style="white-space: pre;" direction="ltr">Se libera</text><text x="0" y="43" font-family="Virgil, Segoe UI Emoji" font-size="20px" fill="#000000" text-anchor="start" style="white-space: pre;" direction="ltr">surtidor 2</text></g><g transform="translate(374.18300426077724 909.5061681866314) rotate(0 51.5 25)"><text x="0" y="18" font-family="Virgil, Segoe UI Emoji" font-size="20px" fill="#000000" text-anchor="start" style="white-space: pre;" direction="ltr">Se libera</text><text x="0" y="43" font-family="Virgil, Segoe UI Emoji" font-size="20px" fill="#000000" text-anchor="start" style="white-space: pre;" direction="ltr">surtidor 3</text></g><g stroke-linecap="round"><g transform="translate(675.4516866345832 248.26308396230627) rotate(0 172.67837894499155 138.64081386448842)"><path d="M0 0 C57.56 46.21, 287.8 231.07, 345.36 277.28 M0 0 C57.56 46.21, 287.8 231.07, 345.36 277.28" stroke="#000000" stroke-width="2" fill="none"></path></g><g transform="translate(675.4516866345832 248.26308396230627) rotate(0 172.67837894499155 138.64081386448842)"><path d="M345.36 277.28 L330.79 273.71 L338.72 263.83 L345.36 277.28" stroke="none" stroke-width="0" fill="#000000" fill-rule="evenodd"></path><path d="M345.36 277.28 C341.08 276.23, 336.8 275.19, 330.79 273.71 M345.36 277.28 C341.66 276.38, 337.96 275.47, 330.79 273.71 M330.79 273.71 C333.59 270.22, 336.39 266.73, 338.72 263.83 M330.79 273.71 C333.52 270.31, 336.26 266.9, 338.72 263.83 M338.72 263.83 C340.18 266.78, 341.63 269.72, 345.36 277.28 M338.72 263.83 C340.25 266.92, 341.77 270.01, 345.36 277.28 M345.36 277.28 C345.36 277.28, 345.36 277.28, 345.36 277.28 M345.36 277.28 C345.36 277.28, 345.36 277.28, 345.36 277.28" stroke="#000000" stroke-width="2" fill="none"></path></g></g><g stroke-linecap="round"><g transform="translate(683.7535317761697 557.0917232293104) rotate(0 165.20671831756385 -3.320738056634468)"><path d="M0 0 C55.07 -1.11, 275.34 -5.53, 330.41 -6.64 M0 0 C55.07 -1.11, 275.34 -5.53, 330.41 -6.64" stroke="#000000" stroke-width="2" fill="none"></path></g><g transform="translate(683.7535317761697 557.0917232293104) rotate(0 165.20671831756385 -3.320738056634468)"><path d="M330.41 -6.64 L316.95 -0.03 L316.69 -12.71 L330.41 -6.64" stroke="none" stroke-width="0" fill="#000000" fill-rule="evenodd"></path><path d="M330.41 -6.64 C325.81 -4.38, 321.2 -2.12, 316.95 -0.03 M330.41 -6.64 C326.63 -4.79, 322.86 -2.93, 316.95 -0.03 M316.95 -0.03 C316.89 -2.74, 316.84 -5.46, 316.69 -12.71 M316.95 -0.03 C316.89 -2.9, 316.83 -5.78, 316.69 -12.71 M316.69 -12.71 C321.85 -10.43, 327 -8.15, 330.41 -6.64 M316.69 -12.71 C321.22 -10.7, 325.75 -8.7, 330.41 -6.64 M330.41 -6.64 C330.41 -6.64, 330.41 -6.64, 330.41 -6.64 M330.41 -6.64 C330.41 -6.64, 330.41 -6.64, 330.41 -6.64" stroke="#000000" stroke-width="2" fill="none"></path></g></g><g stroke-linecap="round"><g transform="translate(675.4516866345832 842.6751960998733) rotate(0 169.35764088835708 -136.98044483617122)"><path d="M0 0 C56.45 -45.66, 282.26 -228.3, 338.72 -273.96 M0 0 C56.45 -45.66, 282.26 -228.3, 338.72 -273.96" stroke="#000000" stroke-width="2" fill="none"></path></g><g transform="translate(675.4516866345832 842.6751960998733) rotate(0 169.35764088835708 -136.98044483617122)"><path d="M338.72 -273.96 L332.13 -260.48 L324.16 -270.34 L338.72 -273.96" stroke="none" stroke-width="0" fill="#000000" fill-rule="evenodd"></path><path d="M338.72 -273.96 C336.08 -268.58, 333.45 -263.19, 332.13 -260.48 M338.72 -273.96 C337.37 -271.21, 336.03 -268.46, 332.13 -260.48 M332.13 -260.48 C330.05 -263.06, 327.96 -265.64, 324.16 -270.34 M332.13 -260.48 C329.91 -263.23, 327.69 -265.97, 324.16 -270.34 M324.16 -270.34 C328.92 -271.52, 333.68 -272.71, 338.72 -273.96 M324.16 -270.34 C327.68 -271.22, 331.21 -272.09, 338.72 -273.96 M338.72 -273.96 C338.72 -273.96, 338.72 -273.96, 338.72 -273.96 M338.72 -273.96 C338.72 -273.96, 338.72 -273.96, 338.72 -273.96" stroke="#000000" stroke-width="2" fill="none"></path></g></g><g stroke-linecap="round" transform="translate(1015.8743489776421 520.6106161443588) rotate(0 31.5 31.5)"><path d="M63 31.5 C63 33.32, 62.84 35.17, 62.52 36.97 C62.2 38.77, 61.72 40.56, 61.1 42.27 C60.48 43.99, 59.69 45.67, 58.78 47.25 C57.87 48.83, 56.8 50.35, 55.63 51.75 C54.46 53.14, 53.14 54.46, 51.75 55.63 C50.35 56.8, 48.83 57.87, 47.25 58.78 C45.67 59.69, 43.99 60.48, 42.27 61.1 C40.56 61.72, 38.77 62.2, 36.97 62.52 C35.17 62.84, 33.32 63, 31.5 63 C29.68 63, 27.83 62.84, 26.03 62.52 C24.23 62.2, 22.44 61.72, 20.73 61.1 C19.01 60.48, 17.33 59.69, 15.75 58.78 C14.17 57.87, 12.65 56.8, 11.25 55.63 C9.86 54.46, 8.54 53.14, 7.37 51.75 C6.2 50.35, 5.13 48.83, 4.22 47.25 C3.31 45.67, 2.52 43.99, 1.9 42.27 C1.28 40.56, 0.8 38.77, 0.48 36.97 C0.16 35.17, 0 33.32, 0 31.5 C0 29.68, 0.16 27.83, 0.48 26.03 C0.8 24.23, 1.28 22.44, 1.9 20.73 C2.52 19.01, 3.31 17.33, 4.22 15.75 C5.13 14.17, 6.2 12.65, 7.37 11.25 C8.54 9.86, 9.86 8.54, 11.25 7.37 C12.65 6.2, 14.17 5.13, 15.75 4.22 C17.33 3.31, 19.01 2.52, 20.73 1.9 C22.44 1.28, 24.23 0.8, 26.03 0.48 C27.83 0.16, 29.68 0, 31.5 0 C33.32 0, 35.17 0.16, 36.97 0.48 C38.77 0.8, 40.56 1.28, 42.27 1.9 C43.99 2.52, 45.67 3.31, 47.25 4.22 C48.83 5.13, 50.35 6.2, 51.75 7.37 C53.14 8.54, 54.46 9.86, 55.63 11.25 C56.8 12.65, 57.87 14.17, 58.78 15.75 C59.69 17.33, 60.48 19.01, 61.1 20.73 C61.72 22.44, 62.2 24.23, 62.52 26.03 C62.84 27.83, 62.92 30.59, 63 31.5 C63.08 32.41, 63.08 30.59, 63 31.5" stroke="#000000" stroke-width="2" fill="none"></path></g><g transform="translate(638.9235680116044 901.7503262608798) rotate(0 46 37.5)"><text x="0" y="18" font-family="Virgil, Segoe UI Emoji" font-size="20px" fill="#000000" text-anchor="start" style="white-space: pre;" direction="ltr">Se pasa </text><text x="0" y="43" font-family="Virgil, Segoe UI Emoji" font-size="20px" fill="#000000" text-anchor="start" style="white-space: pre;" direction="ltr">al sector</text><text x="0" y="68" font-family="Virgil, Segoe UI Emoji" font-size="20px" fill="#000000" text-anchor="start" style="white-space: pre;" direction="ltr">de pago.</text></g><g transform="translate(644.3950078894386 612.5723888150753) rotate(0 46 37.5)"><text x="0" y="18" font-family="Virgil, Segoe UI Emoji" font-size="20px" fill="#000000" text-anchor="start" style="white-space: pre;" direction="ltr">Se pasa </text><text x="0" y="43" font-family="Virgil, Segoe UI Emoji" font-size="20px" fill="#000000" text-anchor="start" style="white-space: pre;" direction="ltr">al sector</text><text x="0" y="68" font-family="Virgil, Segoe UI Emoji" font-size="20px" fill="#000000" text-anchor="start" style="white-space: pre;" direction="ltr">de pago.</text></g><g transform="translate(626.1309485779491 336.9511301144157) rotate(0 46 37.499999999999986)"><text x="0" y="18" font-family="Virgil, Segoe UI Emoji" font-size="20px" fill="#000000" text-anchor="start" style="white-space: pre;" direction="ltr">Se pasa </text><text x="0" y="43" font-family="Virgil, Segoe UI Emoji" font-size="20px" fill="#000000" text-anchor="start" style="white-space: pre;" direction="ltr">al sector</text><text x="0" y="68" font-family="Virgil, Segoe UI Emoji" font-size="20px" fill="#000000" text-anchor="start" style="white-space: pre;" direction="ltr">de pago.</text></g><g transform="translate(991.6931136443679 607.8367492641003) rotate(0 63 25)"><text x="0" y="18" font-family="Virgil, Segoe UI Emoji" font-size="20px" fill="#000000" text-anchor="start" style="white-space: pre;" direction="ltr">Esperando</text><text x="0" y="43" font-family="Virgil, Segoe UI Emoji" font-size="20px" fill="#000000" text-anchor="start" style="white-space: pre;" direction="ltr">ser atendido</text></g><g transform="translate(483.83574257774035 875.7302118687999) rotate(0 58.179959451571676 18.767728855345695)"><text x="0" y="12.767728855345705" font-family="Virgil, Segoe UI Emoji" font-size="15.014183084276564px" fill="#000000" text-anchor="start" style="white-space: pre;" direction="ltr">Auto cargando </text><text x="0" y="31.53545771069141" font-family="Virgil, Segoe UI Emoji" font-size="15.014183084276564px" fill="#000000" text-anchor="start" style="white-space: pre;" direction="ltr">combustible</text></g><g transform="translate(495.13717939786864 587.770918817218) rotate(0 58.49999999999994 19)"><text x="0" y="13" font-family="Virgil, Segoe UI Emoji" font-size="15.014183084276564px" fill="#000000" text-anchor="start" style="white-space: pre;" direction="ltr">Auto cargando </text><text x="0" y="32" font-family="Virgil, Segoe UI Emoji" font-size="15.014183084276564px" fill="#000000" text-anchor="start" style="white-space: pre;" direction="ltr">combustible</text></g><g transform="translate(510.09463014503865 292.8832858530623) rotate(0 40.42641368050255 13.129946323582033)"><text x="0" y="9.129946323582038" font-family="Virgil, Segoe UI Emoji" font-size="10.37554831520972px" fill="#000000" text-anchor="start" style="white-space: pre;" direction="ltr">Auto cargando </text><text x="0" y="22.259892647164076" font-family="Virgil, Segoe UI Emoji" font-size="10.37554831520972px" fill="#000000" text-anchor="start" style="white-space: pre;" direction="ltr">combustible</text></g><g transform="translate(471.4425644064934 10) rotate(0 65 12.5)"><text x="0" y="18" font-family="Virgil, Segoe UI Emoji" font-size="20px" fill="#000000" text-anchor="start" style="white-space: pre;" direction="ltr">Surtidor libre</text></g><g stroke-linecap="round"><g transform="translate(1276.7906460795211 326.4761328279128) rotate(0 0 52.81116686791535)"><path d="M0 0 C0 17.6, 0 88.02, 0 105.62 M0 0 C0 17.6, 0 88.02, 0 105.62" stroke="#000000" stroke-width="2" fill="none"></path></g></g><g stroke-linecap="round"><g transform="translate(1293.4425800990762 685.2496203401452) rotate(0 0 52.81116686791535)"><path d="M0 0 C0 17.6, 0 88.02, 0 105.62 M0 0 C0 17.6, 0 88.02, 0 105.62" stroke="#000000" stroke-width="2" fill="none"></path></g></g><g stroke-linecap="round"><g transform="translate(1075.4536256612641 539.7513911569953) rotate(0 98.39779193373454 -84.01657618957336)"><path d="M0 0 C32.8 -28.01, 164 -140.03, 196.8 -168.03 M0 0 C32.8 -28.01, 164 -140.03, 196.8 -168.03" stroke="#000000" stroke-width="2" fill="none"></path></g><g transform="translate(1075.4536256612641 539.7513911569953) rotate(0 98.39779193373454 -84.01657618957336)"><path d="M196.8 -168.03 L190.57 -154.38 L182.34 -164.03 L196.8 -168.03" stroke="none" stroke-width="0" fill="#000000" fill-rule="evenodd"></path><path d="M196.8 -168.03 C195.03 -164.16, 193.27 -160.29, 190.57 -154.38 M196.8 -168.03 C194.81 -163.67, 192.82 -159.31, 190.57 -154.38 M190.57 -154.38 C188.02 -157.37, 185.47 -160.36, 182.34 -164.03 M190.57 -154.38 C188.83 -156.43, 187.08 -158.48, 182.34 -164.03 M182.34 -164.03 C186.12 -165.07, 189.9 -166.12, 196.8 -168.03 M182.34 -164.03 C187.26 -165.39, 192.18 -166.75, 196.8 -168.03 M196.8 -168.03 C196.8 -168.03, 196.8 -168.03, 196.8 -168.03 M196.8 -168.03 C196.8 -168.03, 196.8 -168.03, 196.8 -168.03" stroke="#000000" stroke-width="2" fill="none"></path></g></g><g stroke-linecap="round"><g transform="translate(1084.5364987628395 567.0000104617218) rotate(0 100.6685102091285 84.77348228137132)"><path d="M0 0 C33.56 28.26, 167.78 141.29, 201.34 169.55 M0 0 C33.56 28.26, 167.78 141.29, 201.34 169.55" stroke="#000000" stroke-width="2" fill="none"></path></g><g transform="translate(1084.5364987628395 567.0000104617218) rotate(0 100.6685102091285 84.77348228137132)"><path d="M201.34 169.55 L186.85 165.64 L195.02 155.94 L201.34 169.55" stroke="none" stroke-width="0" fill="#000000" fill-rule="evenodd"></path><path d="M201.34 169.55 C196.56 168.26, 191.78 166.97, 186.85 165.64 M201.34 169.55 C197.47 168.5, 193.6 167.46, 186.85 165.64 M186.85 165.64 C188.92 163.19, 190.98 160.74, 195.02 155.94 M186.85 165.64 C189.5 162.5, 192.15 159.35, 195.02 155.94 M195.02 155.94 C196.36 158.83, 197.7 161.71, 201.34 169.55 M195.02 155.94 C196.7 159.55, 198.37 163.16, 201.34 169.55 M201.34 169.55 C201.34 169.55, 201.34 169.55, 201.34 169.55 M201.34 169.55 C201.34 169.55, 201.34 169.55, 201.34 169.55" stroke="#000000" stroke-width="2" fill="none"></path></g></g><g stroke-linecap="round"><g transform="translate(1282.8458948139048 374.7458631450404) rotate(0 51.46961424226117 -0.75690609179793)"><path d="M0 0 C17.16 -0.25, 85.78 -1.26, 102.94 -1.51 M0 0 C17.16 -0.25, 85.78 -1.26, 102.94 -1.51" stroke="#000000" stroke-width="2" fill="none"></path></g><g transform="translate(1282.8458948139048 374.7458631450404) rotate(0 51.46961424226117 -0.75690609179793)"><path d="M102.94 -1.51 L89.44 5.02 L89.25 -7.65 L102.94 -1.51" stroke="none" stroke-width="0" fill="#000000" fill-rule="evenodd"></path><path d="M102.94 -1.51 C97.8 0.98, 92.65 3.47, 89.44 5.02 M102.94 -1.51 C97.76 1, 92.57 3.51, 89.44 5.02 M89.44 5.02 C89.37 0.45, 89.3 -4.12, 89.25 -7.65 M89.44 5.02 C89.37 0.15, 89.3 -4.73, 89.25 -7.65 M89.25 -7.65 C92.03 -6.41, 94.81 -5.16, 102.94 -1.51 M89.25 -7.65 C92.82 -6.05, 96.39 -4.45, 102.94 -1.51 M102.94 -1.51 C102.94 -1.51, 102.94 -1.51, 102.94 -1.51 M102.94 -1.51 C102.94 -1.51, 102.94 -1.51, 102.94 -1.51" stroke="#000000" stroke-width="2" fill="none"></path></g></g><g stroke-linecap="round" transform="translate(1386.0751791539415 341.7320509614445) rotate(0 31.5 31.5)"><path d="M63 31.5 C63 33.32, 62.84 35.17, 62.52 36.97 C62.2 38.77, 61.72 40.56, 61.1 42.27 C60.48 43.99, 59.69 45.67, 58.78 47.25 C57.87 48.83, 56.8 50.35, 55.63 51.75 C54.46 53.14, 53.14 54.46, 51.75 55.63 C50.35 56.8, 48.83 57.87, 47.25 58.78 C45.67 59.69, 43.99 60.48, 42.27 61.1 C40.56 61.72, 38.77 62.2, 36.97 62.52 C35.17 62.84, 33.32 63, 31.5 63 C29.68 63, 27.83 62.84, 26.03 62.52 C24.23 62.2, 22.44 61.72, 20.73 61.1 C19.01 60.48, 17.33 59.69, 15.75 58.78 C14.17 57.87, 12.65 56.8, 11.25 55.63 C9.86 54.46, 8.54 53.14, 7.37 51.75 C6.2 50.35, 5.13 48.83, 4.22 47.25 C3.31 45.67, 2.52 43.99, 1.9 42.27 C1.28 40.56, 0.8 38.77, 0.48 36.97 C0.16 35.17, 0 33.32, 0 31.5 C0 29.68, 0.16 27.83, 0.48 26.03 C0.8 24.23, 1.28 22.44, 1.9 20.73 C2.52 19.01, 3.31 17.33, 4.22 15.75 C5.13 14.17, 6.2 12.65, 7.37 11.25 C8.54 9.86, 9.86 8.54, 11.25 7.37 C12.65 6.2, 14.17 5.13, 15.75 4.22 C17.33 3.31, 19.01 2.52, 20.73 1.9 C22.44 1.28, 24.23 0.8, 26.03 0.48 C27.83 0.16, 29.68 0, 31.5 0 C33.32 0, 35.17 0.16, 36.97 0.48 C38.77 0.8, 40.56 1.28, 42.27 1.9 C43.99 2.52, 45.67 3.31, 47.25 4.22 C48.83 5.13, 50.35 6.2, 51.75 7.37 C53.14 8.54, 54.46 9.86, 55.63 11.25 C56.8 12.65, 57.87 14.17, 58.78 15.75 C59.69 17.33, 60.48 19.01, 61.1 20.73 C61.72 22.44, 62.2 24.23, 62.52 26.03 C62.84 27.83, 62.92 30.59, 63 31.5 C63.08 32.41, 63.08 30.59, 63 31.5" stroke="#000000" stroke-width="2" fill="none"></path></g><g stroke-linecap="round" transform="translate(1386.0751791539412 191.86464478544877) rotate(0 31.5 31.5)"><path d="M63 31.5 C63 33.32, 62.84 35.17, 62.52 36.97 C62.2 38.77, 61.72 40.56, 61.1 42.27 C60.48 43.99, 59.69 45.67, 58.78 47.25 C57.87 48.83, 56.8 50.35, 55.63 51.75 C54.46 53.14, 53.14 54.46, 51.75 55.63 C50.35 56.8, 48.83 57.87, 47.25 58.78 C45.67 59.69, 43.99 60.48, 42.27 61.1 C40.56 61.72, 38.77 62.2, 36.97 62.52 C35.17 62.84, 33.32 63, 31.5 63 C29.68 63, 27.83 62.84, 26.03 62.52 C24.23 62.2, 22.44 61.72, 20.73 61.1 C19.01 60.48, 17.33 59.69, 15.75 58.78 C14.17 57.87, 12.65 56.8, 11.25 55.63 C9.86 54.46, 8.54 53.14, 7.37 51.75 C6.2 50.35, 5.13 48.83, 4.22 47.25 C3.31 45.67, 2.52 43.99, 1.9 42.27 C1.28 40.56, 0.8 38.77, 0.48 36.97 C0.16 35.17, 0 33.32, 0 31.5 C0 29.68, 0.16 27.83, 0.48 26.03 C0.8 24.23, 1.28 22.44, 1.9 20.73 C2.52 19.01, 3.31 17.33, 4.22 15.75 C5.13 14.17, 6.2 12.65, 7.37 11.25 C8.54 9.86, 9.86 8.54, 11.25 7.37 C12.65 6.2, 14.17 5.13, 15.75 4.22 C17.33 3.31, 19.01 2.52, 20.73 1.9 C22.44 1.28, 24.23 0.8, 26.03 0.48 C27.83 0.16, 29.68 0, 31.5 0 C33.32 0, 35.17 0.16, 36.97 0.48 C38.77 0.8, 40.56 1.28, 42.27 1.9 C43.99 2.52, 45.67 3.31, 47.25 4.22 C48.83 5.13, 50.35 6.2, 51.75 7.37 C53.14 8.54, 54.46 9.86, 55.63 11.25 C56.8 12.65, 57.87 14.17, 58.78 15.75 C59.69 17.33, 60.48 19.01, 61.1 20.73 C61.72 22.44, 62.2 24.23, 62.52 26.03 C62.84 27.83, 62.92 30.59, 63 31.5 C63.08 32.41, 63.08 30.59, 63 31.5" stroke="#000000" stroke-width="2" fill="none"></path></g><g stroke-linecap="round"><g transform="translate(1385.7851232984272 243.0442031721957) rotate(0 -54.49723860945301 54.49723860945298)"><path d="M0 0 C-18.17 18.17, -90.83 90.83, -108.99 108.99 M0 0 C-18.17 18.17, -90.83 90.83, -108.99 108.99" stroke="#000000" stroke-width="2" fill="none"></path></g><g transform="translate(1385.7851232984272 243.0442031721957) rotate(0 -54.49723860945301 54.49723860945298)"><path d="M-108.99 108.99 L-103.86 94.9 L-94.9 103.86 L-108.99 108.99" stroke="none" stroke-width="0" fill="#000000" fill-rule="evenodd"></path><path d="M-108.99 108.99 C-106.99 103.5, -104.99 98.01, -103.86 94.9 M-108.99 108.99 C-107.6 105.16, -106.21 101.34, -103.86 94.9 M-103.86 94.9 C-100.72 98.04, -97.57 101.19, -94.9 103.86 M-103.86 94.9 C-100.37 98.39, -96.88 101.88, -94.9 103.86 M-94.9 103.86 C-99.99 105.72, -105.08 107.57, -108.99 108.99 M-94.9 103.86 C-100.28 105.82, -105.66 107.78, -108.99 108.99 M-108.99 108.99 C-108.99 108.99, -108.99 108.99, -108.99 108.99 M-108.99 108.99 C-108.99 108.99, -108.99 108.99, -108.99 108.99" stroke="#000000" stroke-width="2" fill="none"></path></g></g><g stroke-linecap="round"><g transform="translate(1296.4702044662681 739.5745993916564) rotate(0 55.25414470125099 0.7569060917978732)"><path d="M0 0 C18.42 0.25, 92.09 1.26, 110.51 1.51 M0 0 C18.42 0.25, 92.09 1.26, 110.51 1.51" stroke="#000000" stroke-width="2" fill="none"></path></g><g transform="translate(1296.4702044662681 739.5745993916564) rotate(0 55.25414470125099 0.7569060917978732)"><path d="M110.51 1.51 L96.83 7.67 L97 -5.01 L110.51 1.51" stroke="none" stroke-width="0" fill="#000000" fill-rule="evenodd"></path><path d="M110.51 1.51 C105.96 3.56, 101.41 5.6, 96.83 7.67 M110.51 1.51 C106.39 3.36, 102.28 5.21, 96.83 7.67 M96.83 7.67 C96.88 3.59, 96.94 -0.48, 97 -5.01 M96.83 7.67 C96.89 3.46, 96.94 -0.75, 97 -5.01 M97 -5.01 C100.16 -3.48, 103.33 -1.96, 110.51 1.51 M97 -5.01 C100.86 -3.15, 104.71 -1.29, 110.51 1.51 M110.51 1.51 C110.51 1.51, 110.51 1.51, 110.51 1.51 M110.51 1.51 C110.51 1.51, 110.51 1.51, 110.51 1.51" stroke="#000000" stroke-width="2" fill="none"></path></g></g><g stroke-linecap="round" transform="translate(1413.3237984586676 705.0469750244642) rotate(0 31.5 31.5)"><path d="M63 31.5 C63 33.32, 62.84 35.17, 62.52 36.97 C62.2 38.77, 61.72 40.56, 61.1 42.27 C60.48 43.99, 59.69 45.67, 58.78 47.25 C57.87 48.83, 56.8 50.35, 55.63 51.75 C54.46 53.14, 53.14 54.46, 51.75 55.63 C50.35 56.8, 48.83 57.87, 47.25 58.78 C45.67 59.69, 43.99 60.48, 42.27 61.1 C40.56 61.72, 38.77 62.2, 36.97 62.52 C35.17 62.84, 33.32 63, 31.5 63 C29.68 63, 27.83 62.84, 26.03 62.52 C24.23 62.2, 22.44 61.72, 20.73 61.1 C19.01 60.48, 17.33 59.69, 15.75 58.78 C14.17 57.87, 12.65 56.8, 11.25 55.63 C9.86 54.46, 8.54 53.14, 7.37 51.75 C6.2 50.35, 5.13 48.83, 4.22 47.25 C3.31 45.67, 2.52 43.99, 1.9 42.27 C1.28 40.56, 0.8 38.77, 0.48 36.97 C0.16 35.17, 0 33.32, 0 31.5 C0 29.68, 0.16 27.83, 0.48 26.03 C0.8 24.23, 1.28 22.44, 1.9 20.73 C2.52 19.01, 3.31 17.33, 4.22 15.75 C5.13 14.17, 6.2 12.65, 7.37 11.25 C8.54 9.86, 9.86 8.54, 11.25 7.37 C12.65 6.2, 14.17 5.13, 15.75 4.22 C17.33 3.31, 19.01 2.52, 20.73 1.9 C22.44 1.28, 24.23 0.8, 26.03 0.48 C27.83 0.16, 29.68 0, 31.5 0 C33.32 0, 35.17 0.16, 36.97 0.48 C38.77 0.8, 40.56 1.28, 42.27 1.9 C43.99 2.52, 45.67 3.31, 47.25 4.22 C48.83 5.13, 50.35 6.2, 51.75 7.37 C53.14 8.54, 54.46 9.86, 55.63 11.25 C56.8 12.65, 57.87 14.17, 58.78 15.75 C59.69 17.33, 60.48 19.01, 61.1 20.73 C61.72 22.44, 62.2 24.23, 62.52 26.03 C62.84 27.83, 62.92 30.59, 63 31.5 C63.08 32.41, 63.08 30.59, 63 31.5" stroke="#000000" stroke-width="2" fill="none"></path></g><g stroke-linecap="round" transform="translate(1414.8376106422636 851.8867568332678) rotate(0 31.5 31.5)"><path d="M63 31.5 C63 33.32, 62.84 35.17, 62.52 36.97 C62.2 38.77, 61.72 40.56, 61.1 42.27 C60.48 43.99, 59.69 45.67, 58.78 47.25 C57.87 48.83, 56.8 50.35, 55.63 51.75 C54.46 53.14, 53.14 54.46, 51.75 55.63 C50.35 56.8, 48.83 57.87, 47.25 58.78 C45.67 59.69, 43.99 60.48, 42.27 61.1 C40.56 61.72, 38.77 62.2, 36.97 62.52 C35.17 62.84, 33.32 63, 31.5 63 C29.68 63, 27.83 62.84, 26.03 62.52 C24.23 62.2, 22.44 61.72, 20.73 61.1 C19.01 60.48, 17.33 59.69, 15.75 58.78 C14.17 57.87, 12.65 56.8, 11.25 55.63 C9.86 54.46, 8.54 53.14, 7.37 51.75 C6.2 50.35, 5.13 48.83, 4.22 47.25 C3.31 45.67, 2.52 43.99, 1.9 42.27 C1.28 40.56, 0.8 38.77, 0.48 36.97 C0.16 35.17, 0 33.32, 0 31.5 C0 29.68, 0.16 27.83, 0.48 26.03 C0.8 24.23, 1.28 22.44, 1.9 20.73 C2.52 19.01, 3.31 17.33, 4.22 15.75 C5.13 14.17, 6.2 12.65, 7.37 11.25 C8.54 9.86, 9.86 8.54, 11.25 7.37 C12.65 6.2, 14.17 5.13, 15.75 4.22 C17.33 3.31, 19.01 2.52, 20.73 1.9 C22.44 1.28, 24.23 0.8, 26.03 0.48 C27.83 0.16, 29.68 0, 31.5 0 C33.32 0, 35.17 0.16, 36.97 0.48 C38.77 0.8, 40.56 1.28, 42.27 1.9 C43.99 2.52, 45.67 3.31, 47.25 4.22 C48.83 5.13, 50.35 6.2, 51.75 7.37 C53.14 8.54, 54.46 9.86, 55.63 11.25 C56.8 12.65, 57.87 14.17, 58.78 15.75 C59.69 17.33, 60.48 19.01, 61.1 20.73 C61.72 22.44, 62.2 24.23, 62.52 26.03 C62.84 27.83, 62.92 30.59, 63 31.5 C63.08 32.41, 63.08 30.59, 63 31.5" stroke="#000000" stroke-width="2" fill="none"></path></g><g stroke-linecap="round"><g transform="translate(1413.0337426031535 880.3591324660765) rotate(0 -58.28176906844271 -49.9558020586652)"><path d="M0 0 C-19.43 -16.65, -97.14 -83.26, -116.56 -99.91 M0 0 C-19.43 -16.65, -97.14 -83.26, -116.56 -99.91" stroke="#000000" stroke-width="2" fill="none"></path></g><g transform="translate(1413.0337426031535 880.3591324660765) rotate(0 -58.28176906844271 -49.9558020586652)"><path d="M-116.56 -99.91 L-102.12 -95.88 L-110.37 -86.25 L-116.56 -99.91" stroke="none" stroke-width="0" fill="#000000" fill-rule="evenodd"></path><path d="M-116.56 -99.91 C-113.46 -99.05, -110.36 -98.18, -102.12 -95.88 M-116.56 -99.91 C-113.46 -99.04, -110.35 -98.18, -102.12 -95.88 M-102.12 -95.88 C-104 -93.68, -105.88 -91.49, -110.37 -86.25 M-102.12 -95.88 C-103.9 -93.8, -105.68 -91.73, -110.37 -86.25 M-110.37 -86.25 C-111.71 -89.21, -113.05 -92.17, -116.56 -99.91 M-110.37 -86.25 C-111.69 -89.17, -113.01 -92.09, -116.56 -99.91 M-116.56 -99.91 C-116.56 -99.91, -116.56 -99.91, -116.56 -99.91 M-116.56 -99.91 C-116.56 -99.91, -116.56 -99.91, -116.56 -99.91" stroke="#000000" stroke-width="2" fill="none"></path></g></g><g stroke-linecap="round"><g transform="translate(1455.4204837438392 373.98895705324236) rotate(0 51.46961424226117 -0.75690609179793)"><path d="M0 0 C17.16 -0.25, 85.78 -1.26, 102.94 -1.51 M0 0 C17.16 -0.25, 85.78 -1.26, 102.94 -1.51" stroke="#000000" stroke-width="2" fill="none"></path></g><g transform="translate(1455.4204837438392 373.98895705324236) rotate(0 51.46961424226117 -0.75690609179793)"><path d="M102.94 -1.51 L89.44 5.02 L89.25 -7.65 L102.94 -1.51" stroke="none" stroke-width="0" fill="#000000" fill-rule="evenodd"></path><path d="M102.94 -1.51 C100.03 -0.1, 97.12 1.31, 89.44 5.02 M102.94 -1.51 C100.02 -0.1, 97.09 1.32, 89.44 5.02 M89.44 5.02 C89.4 2.32, 89.36 -0.39, 89.25 -7.65 M89.44 5.02 C89.4 2.04, 89.35 -0.94, 89.25 -7.65 M89.25 -7.65 C92.73 -6.09, 96.21 -4.53, 102.94 -1.51 M89.25 -7.65 C92.77 -6.08, 96.28 -4.5, 102.94 -1.51 M102.94 -1.51 C102.94 -1.51, 102.94 -1.51, 102.94 -1.51 M102.94 -1.51 C102.94 -1.51, 102.94 -1.51, 102.94 -1.51" stroke="#000000" stroke-width="2" fill="none"></path></g></g><g stroke-linecap="round"><g transform="translate(1564.6139938539075 321.93469627712506) rotate(0 0 52.81116686791535)"><path d="M0 0 C0 17.6, 0 88.02, 0 105.62 M0 0 C0 17.6, 0 88.02, 0 105.62" stroke="#000000" stroke-width="2" fill="none"></path></g></g><g stroke-linecap="round"><g transform="translate(1564.4149609627452 345.983431656718) rotate(0 -55.25414470125099 -49.19889596686727)"><path d="M0 0 C-18.42 -16.4, -92.09 -82, -110.51 -98.4 M0 0 C-18.42 -16.4, -92.09 -82, -110.51 -98.4" stroke="#000000" stroke-width="2" fill="none"></path></g><g transform="translate(1564.4149609627452 345.983431656718) rotate(0 -55.25414470125099 -49.19889596686727)"><path d="M-110.51 -98.4 L-96.14 -94.09 L-104.57 -84.62 L-110.51 -98.4" stroke="none" stroke-width="0" fill="#000000" fill-rule="evenodd"></path><path d="M-110.51 -98.4 C-106.13 -97.09, -101.75 -95.77, -96.14 -94.09 M-110.51 -98.4 C-107.06 -97.36, -103.61 -96.33, -96.14 -94.09 M-96.14 -94.09 C-98.56 -91.37, -100.99 -88.65, -104.57 -84.62 M-96.14 -94.09 C-98.76 -91.15, -101.39 -88.2, -104.57 -84.62 M-104.57 -84.62 C-105.95 -87.82, -107.33 -91.02, -110.51 -98.4 M-104.57 -84.62 C-106.16 -88.3, -107.74 -91.98, -110.51 -98.4 M-110.51 -98.4 C-110.51 -98.4, -110.51 -98.4, -110.51 -98.4 M-110.51 -98.4 C-110.51 -98.4, -110.51 -98.4, -110.51 -98.4" stroke="#000000" stroke-width="2" fill="none"></path></g></g><g stroke-linecap="round"><g transform="translate(1478.8845725895762 732.7624445654747) rotate(0 55.25414470125099 0.7569060917978732)"><path d="M0 0 C18.42 0.25, 92.09 1.26, 110.51 1.51 M0 0 C18.42 0.25, 92.09 1.26, 110.51 1.51" stroke="#000000" stroke-width="2" fill="none"></path></g><g transform="translate(1478.8845725895762 732.7624445654747) rotate(0 55.25414470125099 0.7569060917978732)"><path d="M110.51 1.51 L96.83 7.67 L97 -5.01 L110.51 1.51" stroke="none" stroke-width="0" fill="#000000" fill-rule="evenodd"></path><path d="M110.51 1.51 C107.64 2.8, 104.78 4.09, 96.83 7.67 M110.51 1.51 C106.96 3.11, 103.41 4.71, 96.83 7.67 M96.83 7.67 C96.89 3.13, 96.95 -1.41, 97 -5.01 M96.83 7.67 C96.88 4.15, 96.92 0.63, 97 -5.01 M97 -5.01 C101.43 -2.87, 105.85 -0.73, 110.51 1.51 M97 -5.01 C102.03 -2.58, 107.05 -0.16, 110.51 1.51 M110.51 1.51 C110.51 1.51, 110.51 1.51, 110.51 1.51 M110.51 1.51 C110.51 1.51, 110.51 1.51, 110.51 1.51" stroke="#000000" stroke-width="2" fill="none"></path></g></g><g stroke-linecap="round"><g transform="translate(1596.2050168182593 686.7634325237409) rotate(0 0 52.81116686791535)"><path d="M0 0 C0 17.6, 0 88.02, 0 105.62 M0 0 C0 17.6, 0 88.02, 0 105.62" stroke="#000000" stroke-width="2" fill="none"></path></g></g><g stroke-linecap="round"><g transform="translate(1599.2326411854513 777.4199039815542) rotate(0 -59.79558125203869 46.92817769147348)"><path d="M0 0 C-19.93 15.64, -99.66 78.21, -119.59 93.86 M0 0 C-19.93 15.64, -99.66 78.21, -119.59 93.86" stroke="#000000" stroke-width="2" fill="none"></path></g><g transform="translate(1599.2326411854513 777.4199039815542) rotate(0 -59.79558125203869 46.92817769147348)"><path d="M-119.59 93.86 L-112.81 80.48 L-104.98 90.45 L-119.59 93.86" stroke="none" stroke-width="0" fill="#000000" fill-rule="evenodd"></path><path d="M-119.59 93.86 C-117.37 89.46, -115.14 85.07, -112.81 80.48 M-119.59 93.86 C-117.29 89.31, -114.98 84.76, -112.81 80.48 M-112.81 80.48 C-110.03 84.02, -107.24 87.57, -104.98 90.45 M-112.81 80.48 C-111.08 82.68, -109.36 84.88, -104.98 90.45 M-104.98 90.45 C-108.59 91.29, -112.2 92.13, -119.59 93.86 M-104.98 90.45 C-109.48 91.5, -113.98 92.55, -119.59 93.86 M-119.59 93.86 C-119.59 93.86, -119.59 93.86, -119.59 93.86 M-119.59 93.86 C-119.59 93.86, -119.59 93.86, -119.59 93.86" stroke="#000000" stroke-width="2" fill="none"></path></g></g><g stroke-linecap="round" transform="translate(1442.4951465212744 873.7480793826783) rotate(0 7.761029474841848 7.7641518249010915)"><path d="M15.52 7.76 C15.52 8.21, 15.48 8.67, 15.4 9.11 C15.33 9.55, 15.21 10, 15.05 10.42 C14.9 10.84, 14.71 11.26, 14.48 11.65 C14.26 12.04, 14 12.41, 13.71 12.75 C13.42 13.1, 13.09 13.42, 12.75 13.71 C12.41 14, 12.03 14.26, 11.64 14.49 C11.25 14.71, 10.84 14.91, 10.42 15.06 C9.99 15.21, 9.55 15.33, 9.11 15.41 C8.67 15.49, 8.21 15.53, 7.76 15.53 C7.31 15.53, 6.86 15.49, 6.41 15.41 C5.97 15.33, 5.53 15.21, 5.11 15.06 C4.68 14.91, 4.27 14.71, 3.88 14.49 C3.49 14.26, 3.12 14, 2.77 13.71 C2.43 13.42, 2.1 13.1, 1.82 12.75 C1.53 12.41, 1.26 12.04, 1.04 11.65 C0.82 11.26, 0.62 10.84, 0.47 10.42 C0.31 10, 0.2 9.55, 0.12 9.11 C0.04 8.67, 0 8.21, 0 7.76 C0 7.31, 0.04 6.86, 0.12 6.42 C0.2 5.97, 0.31 5.53, 0.47 5.11 C0.62 4.69, 0.82 4.27, 1.04 3.88 C1.26 3.49, 1.53 3.12, 1.82 2.77 C2.1 2.43, 2.43 2.11, 2.77 1.82 C3.12 1.53, 3.49 1.26, 3.88 1.04 C4.27 0.82, 4.68 0.62, 5.11 0.47 C5.53 0.31, 5.97 0.2, 6.41 0.12 C6.86 0.04, 7.31 0, 7.76 0 C8.21 0, 8.67 0.04, 9.11 0.12 C9.55 0.2, 9.99 0.31, 10.42 0.47 C10.84 0.62, 11.25 0.82, 11.64 1.04 C12.03 1.26, 12.41 1.53, 12.75 1.82 C13.09 2.11, 13.42 2.43, 13.71 2.77 C14 3.12, 14.26 3.49, 14.48 3.88 C14.71 4.27, 14.9 4.69, 15.05 5.11 C15.21 5.53, 15.33 5.97, 15.4 6.42 C15.48 6.86, 15.5 7.54, 15.52 7.76 C15.54 7.99, 15.54 7.54, 15.52 7.76" stroke="none" stroke-width="0" fill="#000"></path><path d="M15.52 7.76 C15.52 8.21, 15.48 8.67, 15.4 9.11 C15.33 9.55, 15.21 10, 15.05 10.42 C14.9 10.84, 14.71 11.26, 14.48 11.65 C14.26 12.04, 14 12.41, 13.71 12.75 C13.42 13.1, 13.09 13.42, 12.75 13.71 C12.41 14, 12.03 14.26, 11.64 14.49 C11.25 14.71, 10.84 14.91, 10.42 15.06 C9.99 15.21, 9.55 15.33, 9.11 15.41 C8.67 15.49, 8.21 15.53, 7.76 15.53 C7.31 15.53, 6.86 15.49, 6.41 15.41 C5.97 15.33, 5.53 15.21, 5.11 15.06 C4.68 14.91, 4.27 14.71, 3.88 14.49 C3.49 14.26, 3.12 14, 2.77 13.71 C2.43 13.42, 2.1 13.1, 1.82 12.75 C1.53 12.41, 1.26 12.04, 1.04 11.65 C0.82 11.26, 0.62 10.84, 0.47 10.42 C0.31 10, 0.2 9.55, 0.12 9.11 C0.04 8.67, 0 8.21, 0 7.76 C0 7.31, 0.04 6.86, 0.12 6.42 C0.2 5.97, 0.31 5.53, 0.47 5.11 C0.62 4.69, 0.82 4.27, 1.04 3.88 C1.26 3.49, 1.53 3.12, 1.82 2.77 C2.1 2.43, 2.43 2.11, 2.77 1.82 C3.12 1.53, 3.49 1.26, 3.88 1.04 C4.27 0.82, 4.68 0.62, 5.11 0.47 C5.53 0.31, 5.97 0.2, 6.41 0.12 C6.86 0.04, 7.31 0, 7.76 0 C8.21 0, 8.67 0.04, 9.11 0.12 C9.55 0.2, 9.99 0.31, 10.42 0.47 C10.84 0.62, 11.25 0.82, 11.64 1.04 C12.03 1.26, 12.41 1.53, 12.75 1.82 C13.09 2.11, 13.42 2.43, 13.71 2.77 C14 3.12, 14.26 3.49, 14.48 3.88 C14.71 4.27, 14.9 4.69, 15.05 5.11 C15.21 5.53, 15.33 5.97, 15.4 6.42 C15.48 6.86, 15.5 7.54, 15.52 7.76 C15.54 7.99, 15.54 7.54, 15.52 7.76" stroke="#000000" stroke-width="2" fill="none"></path></g><g stroke-linecap="round" transform="translate(1414.4035092134027 207.0312141093599) rotate(0 7.761029474841848 7.7641518249010915)"><path d="M15.52 7.76 C15.52 8.21, 15.48 8.67, 15.4 9.11 C15.33 9.55, 15.21 10, 15.05 10.42 C14.9 10.84, 14.71 11.26, 14.48 11.65 C14.26 12.04, 14 12.41, 13.71 12.75 C13.42 13.1, 13.09 13.42, 12.75 13.71 C12.41 14, 12.03 14.26, 11.64 14.49 C11.25 14.71, 10.84 14.91, 10.42 15.06 C9.99 15.21, 9.55 15.33, 9.11 15.41 C8.67 15.49, 8.21 15.53, 7.76 15.53 C7.31 15.53, 6.86 15.49, 6.41 15.41 C5.97 15.33, 5.53 15.21, 5.11 15.06 C4.68 14.91, 4.27 14.71, 3.88 14.49 C3.49 14.26, 3.12 14, 2.77 13.71 C2.43 13.42, 2.1 13.1, 1.82 12.75 C1.53 12.41, 1.26 12.04, 1.04 11.65 C0.82 11.26, 0.62 10.84, 0.47 10.42 C0.31 10, 0.2 9.55, 0.12 9.11 C0.04 8.67, 0 8.21, 0 7.76 C0 7.31, 0.04 6.86, 0.12 6.42 C0.2 5.97, 0.31 5.53, 0.47 5.11 C0.62 4.69, 0.82 4.27, 1.04 3.88 C1.26 3.49, 1.53 3.12, 1.82 2.77 C2.1 2.43, 2.43 2.11, 2.77 1.82 C3.12 1.53, 3.49 1.26, 3.88 1.04 C4.27 0.82, 4.68 0.62, 5.11 0.47 C5.53 0.31, 5.97 0.2, 6.41 0.12 C6.86 0.04, 7.31 0, 7.76 0 C8.21 0, 8.67 0.04, 9.11 0.12 C9.55 0.2, 9.99 0.31, 10.42 0.47 C10.84 0.62, 11.25 0.82, 11.64 1.04 C12.03 1.26, 12.41 1.53, 12.75 1.82 C13.09 2.11, 13.42 2.43, 13.71 2.77 C14 3.12, 14.26 3.49, 14.48 3.88 C14.71 4.27, 14.9 4.69, 15.05 5.11 C15.21 5.53, 15.33 5.97, 15.4 6.42 C15.48 6.86, 15.5 7.54, 15.52 7.76 C15.54 7.99, 15.54 7.54, 15.52 7.76" stroke="none" stroke-width="0" fill="#000"></path><path d="M15.52 7.76 C15.52 8.21, 15.48 8.67, 15.4 9.11 C15.33 9.55, 15.21 10, 15.05 10.42 C14.9 10.84, 14.71 11.26, 14.48 11.65 C14.26 12.04, 14 12.41, 13.71 12.75 C13.42 13.1, 13.09 13.42, 12.75 13.71 C12.41 14, 12.03 14.26, 11.64 14.49 C11.25 14.71, 10.84 14.91, 10.42 15.06 C9.99 15.21, 9.55 15.33, 9.11 15.41 C8.67 15.49, 8.21 15.53, 7.76 15.53 C7.31 15.53, 6.86 15.49, 6.41 15.41 C5.97 15.33, 5.53 15.21, 5.11 15.06 C4.68 14.91, 4.27 14.71, 3.88 14.49 C3.49 14.26, 3.12 14, 2.77 13.71 C2.43 13.42, 2.1 13.1, 1.82 12.75 C1.53 12.41, 1.26 12.04, 1.04 11.65 C0.82 11.26, 0.62 10.84, 0.47 10.42 C0.31 10, 0.2 9.55, 0.12 9.11 C0.04 8.67, 0 8.21, 0 7.76 C0 7.31, 0.04 6.86, 0.12 6.42 C0.2 5.97, 0.31 5.53, 0.47 5.11 C0.62 4.69, 0.82 4.27, 1.04 3.88 C1.26 3.49, 1.53 3.12, 1.82 2.77 C2.1 2.43, 2.43 2.11, 2.77 1.82 C3.12 1.53, 3.49 1.26, 3.88 1.04 C4.27 0.82, 4.68 0.62, 5.11 0.47 C5.53 0.31, 5.97 0.2, 6.41 0.12 C6.86 0.04, 7.31 0, 7.76 0 C8.21 0, 8.67 0.04, 9.11 0.12 C9.55 0.2, 9.99 0.31, 10.42 0.47 C10.84 0.62, 11.25 0.82, 11.64 1.04 C12.03 1.26, 12.41 1.53, 12.75 1.82 C13.09 2.11, 13.42 2.43, 13.71 2.77 C14 3.12, 14.26 3.49, 14.48 3.88 C14.71 4.27, 14.9 4.69, 15.05 5.11 C15.21 5.53, 15.33 5.97, 15.4 6.42 C15.48 6.86, 15.5 7.54, 15.52 7.76 C15.54 7.99, 15.54 7.54, 15.52 7.76" stroke="#000000" stroke-width="2" fill="none"></path></g><g transform="translate(1361.063465656282 130.4288811801601) rotate(0 56.5 12.5)"><text x="0" y="18" font-family="Virgil, Segoe UI Emoji" font-size="20px" fill="#000000" text-anchor="start" style="white-space: pre;" direction="ltr">Caja 1 libre</text></g><g transform="translate(1389.6051329650288 936.7309826522599) rotate(0 61 12.5)"><text x="0" y="18" font-family="Virgil, Segoe UI Emoji" font-size="20px" fill="#000000" text-anchor="start" style="white-space: pre;" direction="ltr">Caja 2 libre</text></g><g transform="translate(1214.6356033879172 457.91523447227036) rotate(0 73 12.5)"><text x="0" y="18" font-family="Virgil, Segoe UI Emoji" font-size="20px" fill="#000000" text-anchor="start" style="white-space: pre;" direction="ltr">Se libera caja1</text></g><g transform="translate(1225.2899312385803 620.4465819919226) rotate(0 77.5 12.5)"><text x="0" y="18" font-family="Virgil, Segoe UI Emoji" font-size="20px" fill="#000000" text-anchor="start" style="white-space: pre;" direction="ltr">Se libera caja2</text></g><g stroke-linecap="round" transform="translate(1750.7428260885324 488.6380699185674) rotate(0 31.5 31.5)"><path d="M63 31.5 C63 33.32, 62.84 35.17, 62.52 36.97 C62.2 38.77, 61.72 40.56, 61.1 42.27 C60.48 43.99, 59.69 45.67, 58.78 47.25 C57.87 48.83, 56.8 50.35, 55.63 51.75 C54.46 53.14, 53.14 54.46, 51.75 55.63 C50.35 56.8, 48.83 57.87, 47.25 58.78 C45.67 59.69, 43.99 60.48, 42.27 61.1 C40.56 61.72, 38.77 62.2, 36.97 62.52 C35.17 62.84, 33.32 63, 31.5 63 C29.68 63, 27.83 62.84, 26.03 62.52 C24.23 62.2, 22.44 61.72, 20.73 61.1 C19.01 60.48, 17.33 59.69, 15.75 58.78 C14.17 57.87, 12.65 56.8, 11.25 55.63 C9.86 54.46, 8.54 53.14, 7.37 51.75 C6.2 50.35, 5.13 48.83, 4.22 47.25 C3.31 45.67, 2.52 43.99, 1.9 42.27 C1.28 40.56, 0.8 38.77, 0.48 36.97 C0.16 35.17, 0 33.32, 0 31.5 C0 29.68, 0.16 27.83, 0.48 26.03 C0.8 24.23, 1.28 22.44, 1.9 20.73 C2.52 19.01, 3.31 17.33, 4.22 15.75 C5.13 14.17, 6.2 12.65, 7.37 11.25 C8.54 9.86, 9.86 8.54, 11.25 7.37 C12.65 6.2, 14.17 5.13, 15.75 4.22 C17.33 3.31, 19.01 2.52, 20.73 1.9 C22.44 1.28, 24.23 0.8, 26.03 0.48 C27.83 0.16, 29.68 0, 31.5 0 C33.32 0, 35.17 0.16, 36.97 0.48 C38.77 0.8, 40.56 1.28, 42.27 1.9 C43.99 2.52, 45.67 3.31, 47.25 4.22 C48.83 5.13, 50.35 6.2, 51.75 7.37 C53.14 8.54, 54.46 9.86, 55.63 11.25 C56.8 12.65, 57.87 14.17, 58.78 15.75 C59.69 17.33, 60.48 19.01, 61.1 20.73 C61.72 22.44, 62.2 24.23, 62.52 26.03 C62.84 27.83, 62.92 30.59, 63 31.5 C63.08 32.41, 63.08 30.59, 63 31.5" stroke="#000000" stroke-width="2" fill="none"></path></g><g stroke-linecap="round"><g transform="translate(1566.7489022867753 367.10615301586995) rotate(0 83.8532311552168 67.47622218512615)"><path d="M0 0 C27.95 22.49, 139.76 112.46, 167.71 134.95 M0 0 C27.95 22.49, 139.76 112.46, 167.71 134.95" stroke="#000000" stroke-width="2" fill="none"></path></g><g transform="translate(1566.7489022867753 367.10615301586995) rotate(0 83.8532311552168 67.47622218512615)"><path d="M167.71 134.95 L153.14 131.37 L161.09 121.49 L167.71 134.95" stroke="none" stroke-width="0" fill="#000000" fill-rule="evenodd"></path><path d="M167.71 134.95 C164.01 134.04, 160.32 133.14, 153.14 131.37 M167.71 134.95 C164.43 134.15, 161.15 133.34, 153.14 131.37 M153.14 131.37 C155.83 128.03, 158.52 124.68, 161.09 121.49 M153.14 131.37 C155.79 128.08, 158.43 124.79, 161.09 121.49 M161.09 121.49 C163.4 126.2, 165.72 130.91, 167.71 134.95 M161.09 121.49 C162.95 125.28, 164.82 129.07, 167.71 134.95 M167.71 134.95 C167.71 134.95, 167.71 134.95, 167.71 134.95 M167.71 134.95 C167.71 134.95, 167.71 134.95, 167.71 134.95" stroke="#000000" stroke-width="2" fill="none"></path></g></g><g stroke-linecap="round"><g transform="translate(1599.020939184623 745.0012947551838) rotate(0 68.99693609901328 -101.49846063420893)"><path d="M0 0 C23 -33.83, 114.99 -169.16, 137.99 -203 M0 0 C23 -33.83, 114.99 -169.16, 137.99 -203" stroke="#000000" stroke-width="2" fill="none"></path></g><g transform="translate(1599.020939184623 745.0012947551838) rotate(0 68.99693609901328 -101.49846063420893)"><path d="M137.99 -203 L135.59 -188.19 L125.11 -195.32 L137.99 -203" stroke="none" stroke-width="0" fill="#000000" fill-rule="evenodd"></path><path d="M137.99 -203 C137.45 -199.67, 136.91 -196.34, 135.59 -188.19 M137.99 -203 C137.1 -197.49, 136.21 -191.97, 135.59 -188.19 M135.59 -188.19 C132.24 -190.47, 128.88 -192.75, 125.11 -195.32 M135.59 -188.19 C132.94 -190, 130.28 -191.8, 125.11 -195.32 M125.11 -195.32 C128.7 -197.46, 132.29 -199.6, 137.99 -203 M125.11 -195.32 C129.85 -198.14, 134.58 -200.97, 137.99 -203 M137.99 -203 C137.99 -203, 137.99 -203, 137.99 -203 M137.99 -203 C137.99 -203, 137.99 -203, 137.99 -203" stroke="#000000" stroke-width="2" fill="none"></path></g></g><g stroke-linecap="round"><g transform="translate(1822.5682539779125 521.0812680077756) rotate(0 42.73032700408521 -0.6573896462166999)"><path d="M0 0 C14.24 -0.22, 71.22 -1.1, 85.46 -1.31 M0 0 C14.24 -0.22, 71.22 -1.1, 85.46 -1.31" stroke="#000000" stroke-width="2" fill="none"></path></g><g transform="translate(1822.5682539779125 521.0812680077756) rotate(0 42.73032700408521 -0.6573896462166999)"><path d="M85.46 -1.31 L71.97 5.23 L71.77 -7.44 L85.46 -1.31" stroke="none" stroke-width="0" fill="#000000" fill-rule="evenodd"></path><path d="M85.46 -1.31 C80.34 1.17, 75.22 3.65, 71.97 5.23 M85.46 -1.31 C81.86 0.43, 78.27 2.17, 71.97 5.23 M71.97 5.23 C71.89 0.4, 71.82 -4.42, 71.77 -7.44 M71.97 5.23 C71.92 1.99, 71.87 -1.25, 71.77 -7.44 M71.77 -7.44 C76.07 -5.52, 80.38 -3.59, 85.46 -1.31 M71.77 -7.44 C76.07 -5.52, 80.36 -3.6, 85.46 -1.31 M85.46 -1.31 C85.46 -1.31, 85.46 -1.31, 85.46 -1.31 M85.46 -1.31 C85.46 -1.31, 85.46 -1.31, 85.46 -1.31" stroke="#000000" stroke-width="2" fill="none"></path></g></g><g stroke-linecap="round"><g transform="translate(1914.6028044482498 474.84399760202734) rotate(0 0 52.81116686791535)"><path d="M0 0 C0 17.6, 0 88.02, 0 105.62 M0 0 C0 17.6, 0 88.02, 0 105.62" stroke="#000000" stroke-width="2" fill="none"></path></g></g><g transform="translate(1351.8772672867597 412.1580417828382) rotate(0 68.5 12.5)"><text x="0" y="18" font-family="Virgil, Segoe UI Emoji" font-size="20px" fill="#000000" text-anchor="start" style="white-space: pre;" direction="ltr">Auto pagando</text></g><g transform="translate(1379.3561556343973 772.8519057868868) rotate(0 68.5 12.5)"><text x="0" y="18" font-family="Virgil, Segoe UI Emoji" font-size="20px" fill="#000000" text-anchor="start" style="white-space: pre;" direction="ltr">Auto pagando</text></g><g transform="translate(1595.1114363869367 811.8509466825883) rotate(0 101.5 12.5)"><text x="0" y="18" font-family="Virgil, Segoe UI Emoji" font-size="20px" fill="#000000" text-anchor="start" style="white-space: pre;" direction="ltr">Auto paga en caja2</text></g><g transform="translate(1571.7400358675052 277.82790546383325) rotate(0 97 12.5)"><text x="0" y="18" font-family="Virgil, Segoe UI Emoji" font-size="20px" fill="#000000" text-anchor="start" style="white-space: pre;" direction="ltr">Auto paga en caja1</text></g><g transform="translate(1759.4588479411102 560.7281018278111) rotate(0 56.5 25)"><text x="0" y="18" font-family="Virgil, Segoe UI Emoji" font-size="20px" fill="#000000" text-anchor="start" style="white-space: pre;" direction="ltr">Auto </text><text x="0" y="43" font-family="Virgil, Segoe UI Emoji" font-size="20px" fill="#000000" text-anchor="start" style="white-space: pre;" direction="ltr">retirandose</text></g><g transform="translate(1929.0653766650173 508.1369301304756) rotate(0 153 12.5)"><text x="0" y="18" font-family="Virgil, Segoe UI Emoji" font-size="20px" fill="#000000" text-anchor="start" style="white-space: pre;" direction="ltr">Auto se retira de la estacion.</text></g></svg>