<svg version="1.1" xmlns="http://www.w3.org/2000/svg" viewBox="0 0 1445.4444444444443 832.9444444444446" width="1445.4444444444443" height="832.9444444444446">
  <!-- svg-source:excalidraw -->
  
  <defs>
    <style>
      @font-face {
        font-family: "Virgil";
        src: url("https://excalidraw.com/Virgil.woff2");
      }
      @font-face {
        font-family: "Cascadia";
        src: url("https://excalidraw.com/Cascadia.woff2");
      }
    </style>
  </defs>
  <rect x="0" y="0" width="1445.4444444444443" height="832.9444444444446" fill="#ffffff"></rect><g stroke-linecap="round"><g transform="translate(121.11111111111097 378.0555555555556) rotate(0 0 50.49999999999997)"><path d="M0 0 C0 16.83, 0 84.17, 0 101 M0 0 C0 16.83, 0 84.17, 0 101" stroke="#000000" stroke-width="2" fill="none"></path></g></g><g stroke-linecap="round"><g transform="translate(120.11111111111097 431.0555555555556) rotate(0 40.5 0)"><path d="M0 0 C13.5 0, 67.5 0, 81 0 M0 0 C13.5 0, 67.5 0, 81 0" stroke="#000000" stroke-width="2" fill="none"></path></g><g transform="translate(120.11111111111097 431.0555555555556) rotate(0 40.5 0)"><path d="M81 0 L67.41 6.34 L67.41 -6.34 L81 0" stroke="none" stroke-width="0" fill="#000000" fill-rule="evenodd"></path><path d="M81 0 C76.85 1.93, 72.7 3.87, 67.41 6.34 M81 0 C76.35 2.17, 71.7 4.34, 67.41 6.34 M67.41 6.34 C67.41 3.23, 67.41 0.11, 67.41 -6.34 M67.41 6.34 C67.41 3.26, 67.41 0.19, 67.41 -6.34 M67.41 -6.34 C72.06 -4.17, 76.72 -2, 81 0 M67.41 -6.34 C71.57 -4.4, 75.74 -2.45, 81 0 M81 0 C81 0, 81 0, 81 0 M81 0 C81 0, 81 0, 81 0" stroke="#000000" stroke-width="2" fill="none"></path></g></g><g stroke-linecap="round" transform="translate(203.11111111111097 397.0555555555556) rotate(0 32 32)"><path d="M64 32 C64 33.67, 63.87 35.36, 63.61 37.01 C63.34 38.65, 62.95 40.3, 62.43 41.89 C61.92 43.48, 61.27 45.04, 60.51 46.53 C59.75 48.01, 58.87 49.46, 57.89 50.81 C56.91 52.16, 55.81 53.45, 54.63 54.63 C53.45 55.81, 52.16 56.91, 50.81 57.89 C49.46 58.87, 48.01 59.75, 46.53 60.51 C45.04 61.27, 43.48 61.92, 41.89 62.43 C40.3 62.95, 38.65 63.34, 37.01 63.61 C35.36 63.87, 33.67 64, 32 64 C30.33 64, 28.64 63.87, 26.99 63.61 C25.35 63.34, 23.7 62.95, 22.11 62.43 C20.52 61.92, 18.96 61.27, 17.47 60.51 C15.99 59.75, 14.54 58.87, 13.19 57.89 C11.84 56.91, 10.55 55.81, 9.37 54.63 C8.19 53.45, 7.09 52.16, 6.11 50.81 C5.13 49.46, 4.25 48.01, 3.49 46.53 C2.73 45.04, 2.08 43.48, 1.57 41.89 C1.05 40.3, 0.66 38.65, 0.39 37.01 C0.13 35.36, 0 33.67, 0 32 C0 30.33, 0.13 28.64, 0.39 26.99 C0.66 25.35, 1.05 23.7, 1.57 22.11 C2.08 20.52, 2.73 18.96, 3.49 17.47 C4.25 15.99, 5.13 14.54, 6.11 13.19 C7.09 11.84, 8.19 10.55, 9.37 9.37 C10.55 8.19, 11.84 7.09, 13.19 6.11 C14.54 5.13, 15.99 4.25, 17.47 3.49 C18.96 2.73, 20.52 2.08, 22.11 1.57 C23.7 1.05, 25.35 0.66, 26.99 0.39 C28.64 0.13, 30.33 0, 32 0 C33.67 0, 35.36 0.13, 37.01 0.39 C38.65 0.66, 40.3 1.05, 41.89 1.57 C43.48 2.08, 45.04 2.73, 46.53 3.49 C48.01 4.25, 49.46 5.13, 50.81 6.11 C52.16 7.09, 53.45 8.19, 54.63 9.37 C55.81 10.55, 56.91 11.84, 57.89 13.19 C58.87 14.54, 59.75 15.99, 60.51 17.47 C61.27 18.96, 61.92 20.52, 62.43 22.11 C62.95 23.7, 63.34 25.35, 63.61 26.99 C63.87 28.64, 63.93 31.17, 64 32 C64.07 32.83, 64.07 31.17, 64 32" stroke="#000000" stroke-width="2" fill="none"></path></g><g stroke-linecap="round"><g transform="translate(434.111111111111 240.5555555555556) rotate(0 0 50.49999999999997)"><path d="M0 0 C0 16.83, 0 84.17, 0 101 M0 0 C0 16.83, 0 84.17, 0 101" stroke="#000000" stroke-width="2" fill="none"></path></g></g><g stroke-linecap="round"><g transform="translate(435.111111111111 518.5555555555557) rotate(0 0 50.49999999999997)"><path d="M0 0 C0 16.83, 0 84.17, 0 101 M0 0 C0 16.83, 0 84.17, 0 101" stroke="#000000" stroke-width="2" fill="none"></path></g></g><g stroke-linecap="round"><g transform="translate(273.111111111111 419.0555555555556) rotate(0 78.5 -68)"><path d="M0 0 C26.17 -22.67, 130.83 -113.33, 157 -136 M0 0 C26.17 -22.67, 130.83 -113.33, 157 -136" stroke="#000000" stroke-width="2" fill="none"></path></g><g transform="translate(273.111111111111 419.0555555555556) rotate(0 78.5 -68)"><path d="M157 -136 L150.88 -122.31 L142.57 -131.89 L157 -136" stroke="none" stroke-width="0" fill="#000000" fill-rule="evenodd"></path><path d="M157 -136 C155.29 -132.18, 153.58 -128.36, 150.88 -122.31 M157 -136 C154.82 -131.13, 152.65 -126.27, 150.88 -122.31 M150.88 -122.31 C148.77 -124.74, 146.66 -127.18, 142.57 -131.89 M150.88 -122.31 C148.84 -124.65, 146.81 -127, 142.57 -131.89 M142.57 -131.89 C146.2 -132.92, 149.82 -133.95, 157 -136 M142.57 -131.89 C146.3 -132.95, 150.02 -134.01, 157 -136 M157 -136 C157 -136, 157 -136, 157 -136 M157 -136 C157 -136, 157 -136, 157 -136" stroke="#000000" stroke-width="2" fill="none"></path></g></g><g stroke-linecap="round"><g transform="translate(272.111111111111 454.0555555555556) rotate(0 79 54.5)"><path d="M0 0 C26.33 18.17, 131.67 90.83, 158 109 M0 0 C26.33 18.17, 131.67 90.83, 158 109" stroke="#000000" stroke-width="2" fill="none"></path></g><g transform="translate(272.111111111111 454.0555555555556) rotate(0 79 54.5)"><path d="M158 109 L143.21 106.5 L150.41 96.06 L158 109" stroke="none" stroke-width="0" fill="#000000" fill-rule="evenodd"></path><path d="M158 109 C154.38 108.39, 150.76 107.78, 143.21 106.5 M158 109 C154.29 108.37, 150.57 107.74, 143.21 106.5 M143.21 106.5 C145.07 103.8, 146.93 101.11, 150.41 96.06 M143.21 106.5 C144.81 104.18, 146.41 101.86, 150.41 96.06 M150.41 96.06 C153.39 101.14, 156.36 106.21, 158 109 M150.41 96.06 C152.42 99.49, 154.44 102.93, 158 109 M158 109 C158 109, 158 109, 158 109 M158 109 C158 109, 158 109, 158 109" stroke="#000000" stroke-width="2" fill="none"></path></g></g><g stroke-linecap="round"><g transform="translate(438.611111111111 291.0555555555556) rotate(0 40.5 0)"><path d="M0 0 C13.5 0, 67.5 0, 81 0 M0 0 C13.5 0, 67.5 0, 81 0" stroke="#000000" stroke-width="2" fill="none"></path></g><g transform="translate(438.611111111111 291.0555555555556) rotate(0 40.5 0)"><path d="M81 0 L67.41 6.34 L67.41 -6.34 L81 0" stroke="none" stroke-width="0" fill="#000000" fill-rule="evenodd"></path><path d="M81 0 C77.52 1.62, 74.05 3.24, 67.41 6.34 M81 0 C75.99 2.34, 70.98 4.67, 67.41 6.34 M67.41 6.34 C67.41 1.32, 67.41 -3.7, 67.41 -6.34 M67.41 6.34 C67.41 2.37, 67.41 -1.59, 67.41 -6.34 M67.41 -6.34 C72.07 -4.17, 76.73 -1.99, 81 0 M67.41 -6.34 C70.74 -4.78, 74.07 -3.23, 81 0 M81 0 C81 0, 81 0, 81 0 M81 0 C81 0, 81 0, 81 0" stroke="#000000" stroke-width="2" fill="none"></path></g></g><g stroke-linecap="round" transform="translate(521.111111111111 257.0555555555556) rotate(0 32 32)"><path d="M64 32 C64 33.67, 63.87 35.36, 63.61 37.01 C63.34 38.65, 62.95 40.3, 62.43 41.89 C61.92 43.48, 61.27 45.04, 60.51 46.53 C59.75 48.01, 58.87 49.46, 57.89 50.81 C56.91 52.16, 55.81 53.45, 54.63 54.63 C53.45 55.81, 52.16 56.91, 50.81 57.89 C49.46 58.87, 48.01 59.75, 46.53 60.51 C45.04 61.27, 43.48 61.92, 41.89 62.43 C40.3 62.95, 38.65 63.34, 37.01 63.61 C35.36 63.87, 33.67 64, 32 64 C30.33 64, 28.64 63.87, 26.99 63.61 C25.35 63.34, 23.7 62.95, 22.11 62.43 C20.52 61.92, 18.96 61.27, 17.47 60.51 C15.99 59.75, 14.54 58.87, 13.19 57.89 C11.84 56.91, 10.55 55.81, 9.37 54.63 C8.19 53.45, 7.09 52.16, 6.11 50.81 C5.13 49.46, 4.25 48.01, 3.49 46.53 C2.73 45.04, 2.08 43.48, 1.57 41.89 C1.05 40.3, 0.66 38.65, 0.39 37.01 C0.13 35.36, 0 33.67, 0 32 C0 30.33, 0.13 28.64, 0.39 26.99 C0.66 25.35, 1.05 23.7, 1.57 22.11 C2.08 20.52, 2.73 18.96, 3.49 17.47 C4.25 15.99, 5.13 14.54, 6.11 13.19 C7.09 11.84, 8.19 10.55, 9.37 9.37 C10.55 8.19, 11.84 7.09, 13.19 6.11 C14.54 5.13, 15.99 4.25, 17.47 3.49 C18.96 2.73, 20.52 2.08, 22.11 1.57 C23.7 1.05, 25.35 0.66, 26.99 0.39 C28.64 0.13, 30.33 0, 32 0 C33.67 0, 35.36 0.13, 37.01 0.39 C38.65 0.66, 40.3 1.05, 41.89 1.57 C43.48 2.08, 45.04 2.73, 46.53 3.49 C48.01 4.25, 49.46 5.13, 50.81 6.11 C52.16 7.09, 53.45 8.19, 54.63 9.37 C55.81 10.55, 56.91 11.84, 57.89 13.19 C58.87 14.54, 59.75 15.99, 60.51 17.47 C61.27 18.96, 61.92 20.52, 62.43 22.11 C62.95 23.7, 63.34 25.35, 63.61 26.99 C63.87 28.64, 63.93 31.17, 64 32 C64.07 32.83, 64.07 31.17, 64 32" stroke="#000000" stroke-width="2" fill="none"></path></g><g stroke-linecap="round" transform="translate(808.2222222222223 56.61111111111117) rotate(0 32 32)"><path d="M64 32 C64 33.67, 63.87 35.36, 63.61 37.01 C63.34 38.65, 62.95 40.3, 62.43 41.89 C61.92 43.48, 61.27 45.04, 60.51 46.53 C59.75 48.01, 58.87 49.46, 57.89 50.81 C56.91 52.16, 55.81 53.45, 54.63 54.63 C53.45 55.81, 52.16 56.91, 50.81 57.89 C49.46 58.87, 48.01 59.75, 46.53 60.51 C45.04 61.27, 43.48 61.92, 41.89 62.43 C40.3 62.95, 38.65 63.34, 37.01 63.61 C35.36 63.87, 33.67 64, 32 64 C30.33 64, 28.64 63.87, 26.99 63.61 C25.35 63.34, 23.7 62.95, 22.11 62.43 C20.52 61.92, 18.96 61.27, 17.47 60.51 C15.99 59.75, 14.54 58.87, 13.19 57.89 C11.84 56.91, 10.55 55.81, 9.37 54.63 C8.19 53.45, 7.09 52.16, 6.11 50.81 C5.13 49.46, 4.25 48.01, 3.49 46.53 C2.73 45.04, 2.08 43.48, 1.57 41.89 C1.05 40.3, 0.66 38.65, 0.39 37.01 C0.13 35.36, 0 33.67, 0 32 C0 30.33, 0.13 28.64, 0.39 26.99 C0.66 25.35, 1.05 23.7, 1.57 22.11 C2.08 20.52, 2.73 18.96, 3.49 17.47 C4.25 15.99, 5.13 14.54, 6.11 13.19 C7.09 11.84, 8.19 10.55, 9.37 9.37 C10.55 8.19, 11.84 7.09, 13.19 6.11 C14.54 5.13, 15.99 4.25, 17.47 3.49 C18.96 2.73, 20.52 2.08, 22.11 1.57 C23.7 1.05, 25.35 0.66, 26.99 0.39 C28.64 0.13, 30.33 0, 32 0 C33.67 0, 35.36 0.13, 37.01 0.39 C38.65 0.66, 40.3 1.05, 41.89 1.57 C43.48 2.08, 45.04 2.73, 46.53 3.49 C48.01 4.25, 49.46 5.13, 50.81 6.11 C52.16 7.09, 53.45 8.19, 54.63 9.37 C55.81 10.55, 56.91 11.84, 57.89 13.19 C58.87 14.54, 59.75 15.99, 60.51 17.47 C61.27 18.96, 61.92 20.52, 62.43 22.11 C62.95 23.7, 63.34 25.35, 63.61 26.99 C63.87 28.64, 63.93 31.17, 64 32 C64.07 32.83, 64.07 31.17, 64 32" stroke="#000000" stroke-width="2" fill="none"></path></g><g stroke-linecap="round"><g transform="translate(808.8574663599858 101.65917953913183) rotate(0 -187.3731776244374 82.19818800821191)"><path d="M0 0 C-62.46 27.4, -312.29 137, -374.75 164.4 M0 0 C-62.46 27.4, -312.29 137, -374.75 164.4" stroke="#000000" stroke-width="2" fill="none"></path></g><g transform="translate(808.8574663599858 101.65917953913183) rotate(0 -187.3731776244374 82.19818800821191)"><path d="M-374.75 164.4 L-364.84 153.13 L-359.75 164.74 L-374.75 164.4" stroke="none" stroke-width="0" fill="#000000" fill-rule="evenodd"></path><path d="M-374.75 164.4 C-372.05 161.33, -369.36 158.27, -364.84 153.13 M-374.75 164.4 C-371.58 160.8, -368.42 157.19, -364.84 153.13 M-364.84 153.13 C-363.27 156.72, -361.69 160.31, -359.75 164.74 M-364.84 153.13 C-362.94 157.48, -361.03 161.82, -359.75 164.74 M-359.75 164.74 C-364.78 164.63, -369.8 164.51, -374.75 164.4 M-359.75 164.74 C-365.02 164.62, -370.29 164.5, -374.75 164.4 M-374.75 164.4 C-374.75 164.4, -374.75 164.4, -374.75 164.4 M-374.75 164.4 C-374.75 164.4, -374.75 164.4, -374.75 164.4" stroke="#000000" stroke-width="2" fill="none"></path></g></g><g stroke-linecap="round"><g transform="translate(439.611111111111 566.0555555555557) rotate(0 40.5 0)"><path d="M0 0 C13.5 0, 67.5 0, 81 0 M0 0 C13.5 0, 67.5 0, 81 0" stroke="#000000" stroke-width="2" fill="none"></path></g><g transform="translate(439.611111111111 566.0555555555557) rotate(0 40.5 0)"><path d="M81 0 L67.41 6.34 L67.41 -6.34 L81 0" stroke="none" stroke-width="0" fill="#000000" fill-rule="evenodd"></path><path d="M81 0 C76.67 2.02, 72.33 4.04, 67.41 6.34 M81 0 C76.81 1.95, 72.62 3.91, 67.41 6.34 M67.41 6.34 C67.41 1.96, 67.41 -2.41, 67.41 -6.34 M67.41 6.34 C67.41 1.78, 67.41 -2.78, 67.41 -6.34 M67.41 -6.34 C70.96 -4.68, 74.51 -3.03, 81 0 M67.41 -6.34 C70.32 -4.98, 73.23 -3.62, 81 0 M81 0 C81 0, 81 0, 81 0 M81 0 C81 0, 81 0, 81 0" stroke="#000000" stroke-width="2" fill="none"></path></g></g><g stroke-linecap="round" transform="translate(520.111111111111 535.0555555555557) rotate(0 32 32)"><path d="M64 32 C64 33.67, 63.87 35.36, 63.61 37.01 C63.34 38.65, 62.95 40.3, 62.43 41.89 C61.92 43.48, 61.27 45.04, 60.51 46.53 C59.75 48.01, 58.87 49.46, 57.89 50.81 C56.91 52.16, 55.81 53.45, 54.63 54.63 C53.45 55.81, 52.16 56.91, 50.81 57.89 C49.46 58.87, 48.01 59.75, 46.53 60.51 C45.04 61.27, 43.48 61.92, 41.89 62.43 C40.3 62.95, 38.65 63.34, 37.01 63.61 C35.36 63.87, 33.67 64, 32 64 C30.33 64, 28.64 63.87, 26.99 63.61 C25.35 63.34, 23.7 62.95, 22.11 62.43 C20.52 61.92, 18.96 61.27, 17.47 60.51 C15.99 59.75, 14.54 58.87, 13.19 57.89 C11.84 56.91, 10.55 55.81, 9.37 54.63 C8.19 53.45, 7.09 52.16, 6.11 50.81 C5.13 49.46, 4.25 48.01, 3.49 46.53 C2.73 45.04, 2.08 43.48, 1.57 41.89 C1.05 40.3, 0.66 38.65, 0.39 37.01 C0.13 35.36, 0 33.67, 0 32 C0 30.33, 0.13 28.64, 0.39 26.99 C0.66 25.35, 1.05 23.7, 1.57 22.11 C2.08 20.52, 2.73 18.96, 3.49 17.47 C4.25 15.99, 5.13 14.54, 6.11 13.19 C7.09 11.84, 8.19 10.55, 9.37 9.37 C10.55 8.19, 11.84 7.09, 13.19 6.11 C14.54 5.13, 15.99 4.25, 17.47 3.49 C18.96 2.73, 20.52 2.08, 22.11 1.57 C23.7 1.05, 25.35 0.66, 26.99 0.39 C28.64 0.13, 30.33 0, 32 0 C33.67 0, 35.36 0.13, 37.01 0.39 C38.65 0.66, 40.3 1.05, 41.89 1.57 C43.48 2.08, 45.04 2.73, 46.53 3.49 C48.01 4.25, 49.46 5.13, 50.81 6.11 C52.16 7.09, 53.45 8.19, 54.63 9.37 C55.81 10.55, 56.91 11.84, 57.89 13.19 C58.87 14.54, 59.75 15.99, 60.51 17.47 C61.27 18.96, 61.92 20.52, 62.43 22.11 C62.95 23.7, 63.34 25.35, 63.61 26.99 C63.87 28.64, 63.93 31.17, 64 32 C64.07 32.83, 64.07 31.17, 64 32" stroke="#000000" stroke-width="2" fill="none"></path></g><g stroke-linecap="round" transform="translate(783.1111111111112 723.3888888888889) rotate(0 32 32)"><path d="M64 32 C64 33.67, 63.87 35.36, 63.61 37.01 C63.34 38.65, 62.95 40.3, 62.43 41.89 C61.92 43.48, 61.27 45.04, 60.51 46.53 C59.75 48.01, 58.87 49.46, 57.89 50.81 C56.91 52.16, 55.81 53.45, 54.63 54.63 C53.45 55.81, 52.16 56.91, 50.81 57.89 C49.46 58.87, 48.01 59.75, 46.53 60.51 C45.04 61.27, 43.48 61.92, 41.89 62.43 C40.3 62.95, 38.65 63.34, 37.01 63.61 C35.36 63.87, 33.67 64, 32 64 C30.33 64, 28.64 63.87, 26.99 63.61 C25.35 63.34, 23.7 62.95, 22.11 62.43 C20.52 61.92, 18.96 61.27, 17.47 60.51 C15.99 59.75, 14.54 58.87, 13.19 57.89 C11.84 56.91, 10.55 55.81, 9.37 54.63 C8.19 53.45, 7.09 52.16, 6.11 50.81 C5.13 49.46, 4.25 48.01, 3.49 46.53 C2.73 45.04, 2.08 43.48, 1.57 41.89 C1.05 40.3, 0.66 38.65, 0.39 37.01 C0.13 35.36, 0 33.67, 0 32 C0 30.33, 0.13 28.64, 0.39 26.99 C0.66 25.35, 1.05 23.7, 1.57 22.11 C2.08 20.52, 2.73 18.96, 3.49 17.47 C4.25 15.99, 5.13 14.54, 6.11 13.19 C7.09 11.84, 8.19 10.55, 9.37 9.37 C10.55 8.19, 11.84 7.09, 13.19 6.11 C14.54 5.13, 15.99 4.25, 17.47 3.49 C18.96 2.73, 20.52 2.08, 22.11 1.57 C23.7 1.05, 25.35 0.66, 26.99 0.39 C28.64 0.13, 30.33 0, 32 0 C33.67 0, 35.36 0.13, 37.01 0.39 C38.65 0.66, 40.3 1.05, 41.89 1.57 C43.48 2.08, 45.04 2.73, 46.53 3.49 C48.01 4.25, 49.46 5.13, 50.81 6.11 C52.16 7.09, 53.45 8.19, 54.63 9.37 C55.81 10.55, 56.91 11.84, 57.89 13.19 C58.87 14.54, 59.75 15.99, 60.51 17.47 C61.27 18.96, 61.92 20.52, 62.43 22.11 C62.95 23.7, 63.34 25.35, 63.61 26.99 C63.87 28.64, 63.93 31.17, 64 32 C64.07 32.83, 64.07 31.17, 64 32" stroke="#000000" stroke-width="2" fill="none"></path></g><g stroke-linecap="round"><g transform="translate(781.7996527786532 760.7130549047943) rotate(0 -171.84427083377113 -82.3287496746193)"><path d="M0 0 C-57.28 -27.44, -286.41 -137.21, -343.69 -164.66 M0 0 C-57.28 -27.44, -286.41 -137.21, -343.69 -164.66" stroke="#000000" stroke-width="2" fill="none"></path></g><g transform="translate(781.7996527786532 760.7130549047943) rotate(0 -171.84427083377113 -82.3287496746193)"><path d="M-343.69 -164.66 L-328.69 -164.5 L-334.17 -153.07 L-343.69 -164.66" stroke="none" stroke-width="0" fill="#000000" fill-rule="evenodd"></path><path d="M-343.69 -164.66 C-339.28 -164.61, -334.88 -164.57, -328.69 -164.5 M-343.69 -164.66 C-338.02 -164.6, -332.36 -164.54, -328.69 -164.5 M-328.69 -164.5 C-330.3 -161.15, -331.9 -157.79, -334.17 -153.07 M-328.69 -164.5 C-329.88 -162.02, -331.06 -159.55, -334.17 -153.07 M-334.17 -153.07 C-337.92 -157.64, -341.68 -162.21, -343.69 -164.66 M-334.17 -153.07 C-337.16 -156.71, -340.15 -160.35, -343.69 -164.66 M-343.69 -164.66 C-343.69 -164.66, -343.69 -164.66, -343.69 -164.66 M-343.69 -164.66 C-343.69 -164.66, -343.69 -164.66, -343.69 -164.66" stroke="#000000" stroke-width="2" fill="none"></path></g></g><g stroke-linecap="round"><g transform="translate(586.611111111111 291.0555555555556) rotate(0 40.5 0)"><path d="M0 0 C13.5 0, 67.5 0, 81 0 M0 0 C13.5 0, 67.5 0, 81 0" stroke="#000000" stroke-width="2" fill="none"></path></g><g transform="translate(586.611111111111 291.0555555555556) rotate(0 40.5 0)"><path d="M81 0 L67.41 6.34 L67.41 -6.34 L81 0" stroke="none" stroke-width="0" fill="#000000" fill-rule="evenodd"></path><path d="M81 0 C77.96 1.42, 74.92 2.84, 67.41 6.34 M81 0 C76.75 1.98, 72.49 3.97, 67.41 6.34 M67.41 6.34 C67.41 3.46, 67.41 0.58, 67.41 -6.34 M67.41 6.34 C67.41 2.61, 67.41 -1.12, 67.41 -6.34 M67.41 -6.34 C70.2 -5.04, 72.99 -3.73, 81 0 M67.41 -6.34 C71.18 -4.58, 74.95 -2.82, 81 0 M81 0 C81 0, 81 0, 81 0 M81 0 C81 0, 81 0, 81 0" stroke="#000000" stroke-width="2" fill="none"></path></g></g><g stroke-linecap="round"><g transform="translate(672.111111111111 243.55555555555563) rotate(0 0 50.49999999999997)"><path d="M0 0 C0 16.83, 0 84.17, 0 101 M0 0 C0 16.83, 0 84.17, 0 101" stroke="#000000" stroke-width="2" fill="none"></path></g></g><g stroke-linecap="round"><g transform="translate(591.611111111111 569.0555555555557) rotate(0 40.5 0)"><path d="M0 0 C13.5 0, 67.5 0, 81 0 M0 0 C13.5 0, 67.5 0, 81 0" stroke="#000000" stroke-width="2" fill="none"></path></g><g transform="translate(591.611111111111 569.0555555555557) rotate(0 40.5 0)"><path d="M81 0 L67.41 6.34 L67.41 -6.34 L81 0" stroke="none" stroke-width="0" fill="#000000" fill-rule="evenodd"></path><path d="M81 0 C75.92 2.37, 70.83 4.74, 67.41 6.34 M81 0 C77.38 1.69, 73.75 3.38, 67.41 6.34 M67.41 6.34 C67.41 2.82, 67.41 -0.7, 67.41 -6.34 M67.41 6.34 C67.41 1.68, 67.41 -2.97, 67.41 -6.34 M67.41 -6.34 C70.2 -5.04, 72.99 -3.73, 81 0 M67.41 -6.34 C70.96 -4.68, 74.52 -3.02, 81 0 M81 0 C81 0, 81 0, 81 0 M81 0 C81 0, 81 0, 81 0" stroke="#000000" stroke-width="2" fill="none"></path></g></g><g stroke-linecap="round"><g transform="translate(675.111111111111 519.5555555555557) rotate(0 0 50.49999999999997)"><path d="M0 0 C0 16.83, 0 84.17, 0 101 M0 0 C0 16.83, 0 84.17, 0 101" stroke="#000000" stroke-width="2" fill="none"></path></g></g><g stroke-linecap="round" transform="translate(834.4444444444442 82.50000000000011) rotate(0 5.555555555555543 5)"><path d="M11.11 5 C11.11 5.29, 11.08 5.58, 11.03 5.87 C10.97 6.15, 10.89 6.44, 10.78 6.71 C10.67 6.98, 10.53 7.25, 10.37 7.5 C10.21 7.75, 10.02 7.99, 9.81 8.21 C9.6 8.44, 9.37 8.64, 9.13 8.83 C8.88 9.02, 8.61 9.19, 8.33 9.33 C8.05 9.47, 7.76 9.6, 7.46 9.7 C7.15 9.8, 6.84 9.87, 6.52 9.92 C6.2 9.97, 5.88 10, 5.56 10 C5.23 10, 4.91 9.97, 4.59 9.92 C4.27 9.87, 3.96 9.8, 3.66 9.7 C3.35 9.6, 3.06 9.47, 2.78 9.33 C2.5 9.19, 2.23 9.02, 1.98 8.83 C1.74 8.64, 1.51 8.44, 1.3 8.21 C1.09 7.99, 0.91 7.75, 0.74 7.5 C0.58 7.25, 0.45 6.98, 0.34 6.71 C0.23 6.44, 0.14 6.15, 0.08 5.87 C0.03 5.58, 0 5.29, 0 5 C0 4.71, 0.03 4.42, 0.08 4.13 C0.14 3.85, 0.23 3.56, 0.34 3.29 C0.45 3.02, 0.58 2.75, 0.74 2.5 C0.91 2.25, 1.09 2.01, 1.3 1.79 C1.51 1.56, 1.74 1.36, 1.98 1.17 C2.23 0.98, 2.5 0.81, 2.78 0.67 C3.06 0.53, 3.35 0.4, 3.66 0.3 C3.96 0.2, 4.27 0.13, 4.59 0.08 C4.91 0.03, 5.23 0, 5.56 0 C5.88 0, 6.2 0.03, 6.52 0.08 C6.84 0.13, 7.15 0.2, 7.46 0.3 C7.76 0.4, 8.05 0.53, 8.33 0.67 C8.61 0.81, 8.88 0.98, 9.13 1.17 C9.37 1.36, 9.6 1.56, 9.81 1.79 C10.02 2.01, 10.21 2.25, 10.37 2.5 C10.53 2.75, 10.67 3.02, 10.78 3.29 C10.89 3.56, 10.97 3.85, 11.03 4.13 C11.08 4.42, 11.1 4.86, 11.11 5 C11.13 5.14, 11.13 4.86, 11.11 5" stroke="none" stroke-width="0" fill="#000"></path><path d="M11.11 5 C11.11 5.29, 11.08 5.58, 11.03 5.87 C10.97 6.15, 10.89 6.44, 10.78 6.71 C10.67 6.98, 10.53 7.25, 10.37 7.5 C10.21 7.75, 10.02 7.99, 9.81 8.21 C9.6 8.44, 9.37 8.64, 9.13 8.83 C8.88 9.02, 8.61 9.19, 8.33 9.33 C8.05 9.47, 7.76 9.6, 7.46 9.7 C7.15 9.8, 6.84 9.87, 6.52 9.92 C6.2 9.97, 5.88 10, 5.56 10 C5.23 10, 4.91 9.97, 4.59 9.92 C4.27 9.87, 3.96 9.8, 3.66 9.7 C3.35 9.6, 3.06 9.47, 2.78 9.33 C2.5 9.19, 2.23 9.02, 1.98 8.83 C1.74 8.64, 1.51 8.44, 1.3 8.21 C1.09 7.99, 0.91 7.75, 0.74 7.5 C0.58 7.25, 0.45 6.98, 0.34 6.71 C0.23 6.44, 0.14 6.15, 0.08 5.87 C0.03 5.58, 0 5.29, 0 5 C0 4.71, 0.03 4.42, 0.08 4.13 C0.14 3.85, 0.23 3.56, 0.34 3.29 C0.45 3.02, 0.58 2.75, 0.74 2.5 C0.91 2.25, 1.09 2.01, 1.3 1.79 C1.51 1.56, 1.74 1.36, 1.98 1.17 C2.23 0.98, 2.5 0.81, 2.78 0.67 C3.06 0.53, 3.35 0.4, 3.66 0.3 C3.96 0.2, 4.27 0.13, 4.59 0.08 C4.91 0.03, 5.23 0, 5.56 0 C5.88 0, 6.2 0.03, 6.52 0.08 C6.84 0.13, 7.15 0.2, 7.46 0.3 C7.76 0.4, 8.05 0.53, 8.33 0.67 C8.61 0.81, 8.88 0.98, 9.13 1.17 C9.37 1.36, 9.6 1.56, 9.81 1.79 C10.02 2.01, 10.21 2.25, 10.37 2.5 C10.53 2.75, 10.67 3.02, 10.78 3.29 C10.89 3.56, 10.97 3.85, 11.03 4.13 C11.08 4.42, 11.1 4.86, 11.11 5 C11.13 5.14, 11.13 4.86, 11.11 5" stroke="#000000" stroke-width="2" fill="none"></path></g><g stroke-linecap="round" transform="translate(808.8888888888888 750.8333333333333) rotate(0 5.555555555555543 5)"><path d="M11.11 5 C11.11 5.29, 11.08 5.58, 11.03 5.87 C10.97 6.15, 10.89 6.44, 10.78 6.71 C10.67 6.98, 10.53 7.25, 10.37 7.5 C10.21 7.75, 10.02 7.99, 9.81 8.21 C9.6 8.44, 9.37 8.64, 9.13 8.83 C8.88 9.02, 8.61 9.19, 8.33 9.33 C8.05 9.47, 7.76 9.6, 7.46 9.7 C7.15 9.8, 6.84 9.87, 6.52 9.92 C6.2 9.97, 5.88 10, 5.56 10 C5.23 10, 4.91 9.97, 4.59 9.92 C4.27 9.87, 3.96 9.8, 3.66 9.7 C3.35 9.6, 3.06 9.47, 2.78 9.33 C2.5 9.19, 2.23 9.02, 1.98 8.83 C1.74 8.64, 1.51 8.44, 1.3 8.21 C1.09 7.99, 0.91 7.75, 0.74 7.5 C0.58 7.25, 0.45 6.98, 0.34 6.71 C0.23 6.44, 0.14 6.15, 0.08 5.87 C0.03 5.58, 0 5.29, 0 5 C0 4.71, 0.03 4.42, 0.08 4.13 C0.14 3.85, 0.23 3.56, 0.34 3.29 C0.45 3.02, 0.58 2.75, 0.74 2.5 C0.91 2.25, 1.09 2.01, 1.3 1.79 C1.51 1.56, 1.74 1.36, 1.98 1.17 C2.23 0.98, 2.5 0.81, 2.78 0.67 C3.06 0.53, 3.35 0.4, 3.66 0.3 C3.96 0.2, 4.27 0.13, 4.59 0.08 C4.91 0.03, 5.23 0, 5.56 0 C5.88 0, 6.2 0.03, 6.52 0.08 C6.84 0.13, 7.15 0.2, 7.46 0.3 C7.76 0.4, 8.05 0.53, 8.33 0.67 C8.61 0.81, 8.88 0.98, 9.13 1.17 C9.37 1.36, 9.6 1.56, 9.81 1.79 C10.02 2.01, 10.21 2.25, 10.37 2.5 C10.53 2.75, 10.67 3.02, 10.78 3.29 C10.89 3.56, 10.97 3.85, 11.03 4.13 C11.08 4.42, 11.1 4.86, 11.11 5 C11.13 5.14, 11.13 4.86, 11.11 5" stroke="none" stroke-width="0" fill="#000"></path><path d="M11.11 5 C11.11 5.29, 11.08 5.58, 11.03 5.87 C10.97 6.15, 10.89 6.44, 10.78 6.71 C10.67 6.98, 10.53 7.25, 10.37 7.5 C10.21 7.75, 10.02 7.99, 9.81 8.21 C9.6 8.44, 9.37 8.64, 9.13 8.83 C8.88 9.02, 8.61 9.19, 8.33 9.33 C8.05 9.47, 7.76 9.6, 7.46 9.7 C7.15 9.8, 6.84 9.87, 6.52 9.92 C6.2 9.97, 5.88 10, 5.56 10 C5.23 10, 4.91 9.97, 4.59 9.92 C4.27 9.87, 3.96 9.8, 3.66 9.7 C3.35 9.6, 3.06 9.47, 2.78 9.33 C2.5 9.19, 2.23 9.02, 1.98 8.83 C1.74 8.64, 1.51 8.44, 1.3 8.21 C1.09 7.99, 0.91 7.75, 0.74 7.5 C0.58 7.25, 0.45 6.98, 0.34 6.71 C0.23 6.44, 0.14 6.15, 0.08 5.87 C0.03 5.58, 0 5.29, 0 5 C0 4.71, 0.03 4.42, 0.08 4.13 C0.14 3.85, 0.23 3.56, 0.34 3.29 C0.45 3.02, 0.58 2.75, 0.74 2.5 C0.91 2.25, 1.09 2.01, 1.3 1.79 C1.51 1.56, 1.74 1.36, 1.98 1.17 C2.23 0.98, 2.5 0.81, 2.78 0.67 C3.06 0.53, 3.35 0.4, 3.66 0.3 C3.96 0.2, 4.27 0.13, 4.59 0.08 C4.91 0.03, 5.23 0, 5.56 0 C5.88 0, 6.2 0.03, 6.52 0.08 C6.84 0.13, 7.15 0.2, 7.46 0.3 C7.76 0.4, 8.05 0.53, 8.33 0.67 C8.61 0.81, 8.88 0.98, 9.13 1.17 C9.37 1.36, 9.6 1.56, 9.81 1.79 C10.02 2.01, 10.21 2.25, 10.37 2.5 C10.53 2.75, 10.67 3.02, 10.78 3.29 C10.89 3.56, 10.97 3.85, 11.03 4.13 C11.08 4.42, 11.1 4.86, 11.11 5 C11.13 5.14, 11.13 4.86, 11.11 5" stroke="#000000" stroke-width="2" fill="none"></path></g><g stroke-linecap="round"><g transform="translate(673.9444444444445 292.49999999999994) rotate(0 35.51819233534866 -0.9134198837469967)"><path d="M0 0 C11.84 -0.3, 59.2 -1.52, 71.04 -1.83 M0 0 C11.84 -0.3, 59.2 -1.52, 71.04 -1.83" stroke="#000000" stroke-width="2" fill="none"></path></g><g transform="translate(673.9444444444445 292.49999999999994) rotate(0 35.51819233534866 -0.9134198837469967)"><path d="M71.04 -1.83 L57.61 4.86 L57.28 -7.81 L71.04 -1.83" stroke="none" stroke-width="0" fill="#000000" fill-rule="evenodd"></path><path d="M71.04 -1.83 C66.52 0.42, 62.01 2.67, 57.61 4.86 M71.04 -1.83 C67.06 0.15, 63.09 2.13, 57.61 4.86 M57.61 4.86 C57.5 0.46, 57.38 -3.94, 57.28 -7.81 M57.61 4.86 C57.49 0.22, 57.37 -4.41, 57.28 -7.81 M57.28 -7.81 C61.64 -5.92, 66 -4.02, 71.04 -1.83 M57.28 -7.81 C60.84 -6.27, 64.39 -4.72, 71.04 -1.83 M71.04 -1.83 C71.04 -1.83, 71.04 -1.83, 71.04 -1.83 M71.04 -1.83 C71.04 -1.83, 71.04 -1.83, 71.04 -1.83" stroke="#000000" stroke-width="2" fill="none"></path></g></g><g stroke-linecap="round" transform="translate(751.3333333333336 254.9444444444444) rotate(0 32 32)"><path d="M64 32 C64 33.67, 63.87 35.36, 63.61 37.01 C63.34 38.65, 62.95 40.3, 62.43 41.89 C61.92 43.48, 61.27 45.04, 60.51 46.53 C59.75 48.01, 58.87 49.46, 57.89 50.81 C56.91 52.16, 55.81 53.45, 54.63 54.63 C53.45 55.81, 52.16 56.91, 50.81 57.89 C49.46 58.87, 48.01 59.75, 46.53 60.51 C45.04 61.27, 43.48 61.92, 41.89 62.43 C40.3 62.95, 38.65 63.34, 37.01 63.61 C35.36 63.87, 33.67 64, 32 64 C30.33 64, 28.64 63.87, 26.99 63.61 C25.35 63.34, 23.7 62.95, 22.11 62.43 C20.52 61.92, 18.96 61.27, 17.47 60.51 C15.99 59.75, 14.54 58.87, 13.19 57.89 C11.84 56.91, 10.55 55.81, 9.37 54.63 C8.19 53.45, 7.09 52.16, 6.11 50.81 C5.13 49.46, 4.25 48.01, 3.49 46.53 C2.73 45.04, 2.08 43.48, 1.57 41.89 C1.05 40.3, 0.66 38.65, 0.39 37.01 C0.13 35.36, 0 33.67, 0 32 C0 30.33, 0.13 28.64, 0.39 26.99 C0.66 25.35, 1.05 23.7, 1.57 22.11 C2.08 20.52, 2.73 18.96, 3.49 17.47 C4.25 15.99, 5.13 14.54, 6.11 13.19 C7.09 11.84, 8.19 10.55, 9.37 9.37 C10.55 8.19, 11.84 7.09, 13.19 6.11 C14.54 5.13, 15.99 4.25, 17.47 3.49 C18.96 2.73, 20.52 2.08, 22.11 1.57 C23.7 1.05, 25.35 0.66, 26.99 0.39 C28.64 0.13, 30.33 0, 32 0 C33.67 0, 35.36 0.13, 37.01 0.39 C38.65 0.66, 40.3 1.05, 41.89 1.57 C43.48 2.08, 45.04 2.73, 46.53 3.49 C48.01 4.25, 49.46 5.13, 50.81 6.11 C52.16 7.09, 53.45 8.19, 54.63 9.37 C55.81 10.55, 56.91 11.84, 57.89 13.19 C58.87 14.54, 59.75 15.99, 60.51 17.47 C61.27 18.96, 61.92 20.52, 62.43 22.11 C62.95 23.7, 63.34 25.35, 63.61 26.99 C63.87 28.64, 63.93 31.17, 64 32 C64.07 32.83, 64.07 31.17, 64 32" stroke="#000000" stroke-width="2" fill="none"></path></g><g stroke-linecap="round"><g transform="translate(820.5921493052757 288.99166846640753) rotate(0 36.62059201402883 -0.19027867764822304)"><path d="M0 0 C12.21 -0.06, 61.03 -0.32, 73.24 -0.38 M0 0 C12.21 -0.06, 61.03 -0.32, 73.24 -0.38" stroke="#000000" stroke-width="2" fill="none"></path></g><g transform="translate(820.5921493052757 288.99166846640753) rotate(0 36.62059201402883 -0.19027867764822304)"><path d="M73.24 -0.38 L59.68 6.03 L59.61 -6.65 L73.24 -0.38" stroke="none" stroke-width="0" fill="#000000" fill-rule="evenodd"></path><path d="M73.24 -0.38 C69.26 1.5, 65.27 3.38, 59.68 6.03 M73.24 -0.38 C69.24 1.51, 65.23 3.4, 59.68 6.03 M59.68 6.03 C59.66 1.38, 59.63 -3.26, 59.61 -6.65 M59.68 6.03 C59.66 2.6, 59.64 -0.83, 59.61 -6.65 M59.61 -6.65 C62.76 -5.2, 65.9 -3.76, 73.24 -0.38 M59.61 -6.65 C64.23 -4.53, 68.84 -2.4, 73.24 -0.38 M73.24 -0.38 C73.24 -0.38, 73.24 -0.38, 73.24 -0.38 M73.24 -0.38 C73.24 -0.38, 73.24 -0.38, 73.24 -0.38" stroke="#000000" stroke-width="2" fill="none"></path></g></g><g stroke-linecap="round"><g transform="translate(894.4444444444445 244.22222222222226) rotate(0 0 50.49999999999997)"><path d="M0 0 C0 16.83, 0 84.17, 0 101 M0 0 C0 16.83, 0 84.17, 0 101" stroke="#000000" stroke-width="2" fill="none"></path></g></g><g stroke-linecap="round"><g transform="translate(898.3888888888886 288.6111111111111) rotate(0 36.05555555555566 -0.5555555555555429)"><path d="M0 0 C12.02 -0.19, 60.09 -0.93, 72.11 -1.11 M0 0 C12.02 -0.19, 60.09 -0.93, 72.11 -1.11" stroke="#000000" stroke-width="2" fill="none"></path></g><g transform="translate(898.3888888888886 288.6111111111111) rotate(0 36.05555555555566 -0.5555555555555429)"><path d="M72.11 -1.11 L58.62 5.44 L58.42 -7.24 L72.11 -1.11" stroke="none" stroke-width="0" fill="#000000" fill-rule="evenodd"></path><path d="M72.11 -1.11 C68.05 0.86, 63.98 2.83, 58.62 5.44 M72.11 -1.11 C66.9 1.41, 61.7 3.94, 58.62 5.44 M58.62 5.44 C58.54 0.8, 58.47 -3.84, 58.42 -7.24 M58.62 5.44 C58.55 1.17, 58.48 -3.1, 58.42 -7.24 M58.42 -7.24 C63.86 -4.8, 69.31 -2.37, 72.11 -1.11 M58.42 -7.24 C61.57 -5.83, 64.73 -4.42, 72.11 -1.11 M72.11 -1.11 C72.11 -1.11, 72.11 -1.11, 72.11 -1.11 M72.11 -1.11 C72.11 -1.11, 72.11 -1.11, 72.11 -1.11" stroke="#000000" stroke-width="2" fill="none"></path></g></g><g stroke-linecap="round" transform="translate(966.8888888888893 258.27777777777777) rotate(0 32 32)"><path d="M64 32 C64 33.67, 63.87 35.36, 63.61 37.01 C63.34 38.65, 62.95 40.3, 62.43 41.89 C61.92 43.48, 61.27 45.04, 60.51 46.53 C59.75 48.01, 58.87 49.46, 57.89 50.81 C56.91 52.16, 55.81 53.45, 54.63 54.63 C53.45 55.81, 52.16 56.91, 50.81 57.89 C49.46 58.87, 48.01 59.75, 46.53 60.51 C45.04 61.27, 43.48 61.92, 41.89 62.43 C40.3 62.95, 38.65 63.34, 37.01 63.61 C35.36 63.87, 33.67 64, 32 64 C30.33 64, 28.64 63.87, 26.99 63.61 C25.35 63.34, 23.7 62.95, 22.11 62.43 C20.52 61.92, 18.96 61.27, 17.47 60.51 C15.99 59.75, 14.54 58.87, 13.19 57.89 C11.84 56.91, 10.55 55.81, 9.37 54.63 C8.19 53.45, 7.09 52.16, 6.11 50.81 C5.13 49.46, 4.25 48.01, 3.49 46.53 C2.73 45.04, 2.08 43.48, 1.57 41.89 C1.05 40.3, 0.66 38.65, 0.39 37.01 C0.13 35.36, 0 33.67, 0 32 C0 30.33, 0.13 28.64, 0.39 26.99 C0.66 25.35, 1.05 23.7, 1.57 22.11 C2.08 20.52, 2.73 18.96, 3.49 17.47 C4.25 15.99, 5.13 14.54, 6.11 13.19 C7.09 11.84, 8.19 10.55, 9.37 9.37 C10.55 8.19, 11.84 7.09, 13.19 6.11 C14.54 5.13, 15.99 4.25, 17.47 3.49 C18.96 2.73, 20.52 2.08, 22.11 1.57 C23.7 1.05, 25.35 0.66, 26.99 0.39 C28.64 0.13, 30.33 0, 32 0 C33.67 0, 35.36 0.13, 37.01 0.39 C38.65 0.66, 40.3 1.05, 41.89 1.57 C43.48 2.08, 45.04 2.73, 46.53 3.49 C48.01 4.25, 49.46 5.13, 50.81 6.11 C52.16 7.09, 53.45 8.19, 54.63 9.37 C55.81 10.55, 56.91 11.84, 57.89 13.19 C58.87 14.54, 59.75 15.99, 60.51 17.47 C61.27 18.96, 61.92 20.52, 62.43 22.11 C62.95 23.7, 63.34 25.35, 63.61 26.99 C63.87 28.64, 63.93 31.17, 64 32 C64.07 32.83, 64.07 31.17, 64 32" stroke="#000000" stroke-width="2" fill="none"></path></g><g stroke-linecap="round"><g transform="translate(1033.9444444444448 289.7222222222222) rotate(0 36.05555555555566 -0.5555555555555429)"><path d="M0 0 C12.02 -0.19, 60.09 -0.93, 72.11 -1.11 M0 0 C12.02 -0.19, 60.09 -0.93, 72.11 -1.11" stroke="#000000" stroke-width="2" fill="none"></path></g><g transform="translate(1033.9444444444448 289.7222222222222) rotate(0 36.05555555555566 -0.5555555555555429)"><path d="M72.11 -1.11 L58.62 5.44 L58.42 -7.24 L72.11 -1.11" stroke="none" stroke-width="0" fill="#000000" fill-rule="evenodd"></path><path d="M72.11 -1.11 C69 0.4, 65.89 1.91, 58.62 5.44 M72.11 -1.11 C68.97 0.41, 65.82 1.94, 58.62 5.44 M58.62 5.44 C58.54 0.42, 58.46 -4.59, 58.42 -7.24 M58.62 5.44 C58.55 1.15, 58.48 -3.15, 58.42 -7.24 M58.42 -7.24 C62.37 -5.47, 66.31 -3.71, 72.11 -1.11 M58.42 -7.24 C62.66 -5.34, 66.9 -3.44, 72.11 -1.11 M72.11 -1.11 C72.11 -1.11, 72.11 -1.11, 72.11 -1.11 M72.11 -1.11 C72.11 -1.11, 72.11 -1.11, 72.11 -1.11" stroke="#000000" stroke-width="2" fill="none"></path></g></g><g stroke-linecap="round"><g transform="translate(1107.7777777777774 246.44444444444449) rotate(0 0 50.49999999999997)"><path d="M0 0 C0 16.83, 0 84.17, 0 101 M0 0 C0 16.83, 0 84.17, 0 101" stroke="#000000" stroke-width="2" fill="none"></path></g></g><g stroke-linecap="round"><g transform="translate(1110 270.27777777777777) rotate(0 -116.66666666666674 -83.33333333333334)"><path d="M0 0 C-38.89 -27.78, -194.44 -138.89, -233.33 -166.67 M0 0 C-38.89 -27.78, -194.44 -138.89, -233.33 -166.67" stroke="#000000" stroke-width="2" fill="none"></path></g><g transform="translate(1110 270.27777777777777) rotate(0 -116.66666666666674 -83.33333333333334)"><path d="M-233.33 -166.67 L-218.59 -163.92 L-225.96 -153.61 L-233.33 -166.67" stroke="none" stroke-width="0" fill="#000000" fill-rule="evenodd"></path><path d="M-233.33 -166.67 C-228.24 -165.72, -223.16 -164.77, -218.59 -163.92 M-233.33 -166.67 C-227.44 -165.57, -221.55 -164.47, -218.59 -163.92 M-218.59 -163.92 C-221.04 -160.49, -223.49 -157.06, -225.96 -153.61 M-218.59 -163.92 C-221.11 -160.39, -223.63 -156.86, -225.96 -153.61 M-225.96 -153.61 C-228.65 -158.37, -231.34 -163.13, -233.33 -166.67 M-225.96 -153.61 C-228.2 -157.59, -230.45 -161.56, -233.33 -166.67 M-233.33 -166.67 C-233.33 -166.67, -233.33 -166.67, -233.33 -166.67 M-233.33 -166.67 C-233.33 -166.67, -233.33 -166.67, -233.33 -166.67" stroke="#000000" stroke-width="2" fill="none"></path></g></g><g stroke-linecap="round" transform="translate(771.7777777777779 532.7222222222222) rotate(0 32 32)"><path d="M64 32 C64 33.67, 63.87 35.36, 63.61 37.01 C63.34 38.65, 62.95 40.3, 62.43 41.89 C61.92 43.48, 61.27 45.04, 60.51 46.53 C59.75 48.01, 58.87 49.46, 57.89 50.81 C56.91 52.16, 55.81 53.45, 54.63 54.63 C53.45 55.81, 52.16 56.91, 50.81 57.89 C49.46 58.87, 48.01 59.75, 46.53 60.51 C45.04 61.27, 43.48 61.92, 41.89 62.43 C40.3 62.95, 38.65 63.34, 37.01 63.61 C35.36 63.87, 33.67 64, 32 64 C30.33 64, 28.64 63.87, 26.99 63.61 C25.35 63.34, 23.7 62.95, 22.11 62.43 C20.52 61.92, 18.96 61.27, 17.47 60.51 C15.99 59.75, 14.54 58.87, 13.19 57.89 C11.84 56.91, 10.55 55.81, 9.37 54.63 C8.19 53.45, 7.09 52.16, 6.11 50.81 C5.13 49.46, 4.25 48.01, 3.49 46.53 C2.73 45.04, 2.08 43.48, 1.57 41.89 C1.05 40.3, 0.66 38.65, 0.39 37.01 C0.13 35.36, 0 33.67, 0 32 C0 30.33, 0.13 28.64, 0.39 26.99 C0.66 25.35, 1.05 23.7, 1.57 22.11 C2.08 20.52, 2.73 18.96, 3.49 17.47 C4.25 15.99, 5.13 14.54, 6.11 13.19 C7.09 11.84, 8.19 10.55, 9.37 9.37 C10.55 8.19, 11.84 7.09, 13.19 6.11 C14.54 5.13, 15.99 4.25, 17.47 3.49 C18.96 2.73, 20.52 2.08, 22.11 1.57 C23.7 1.05, 25.35 0.66, 26.99 0.39 C28.64 0.13, 30.33 0, 32 0 C33.67 0, 35.36 0.13, 37.01 0.39 C38.65 0.66, 40.3 1.05, 41.89 1.57 C43.48 2.08, 45.04 2.73, 46.53 3.49 C48.01 4.25, 49.46 5.13, 50.81 6.11 C52.16 7.09, 53.45 8.19, 54.63 9.37 C55.81 10.55, 56.91 11.84, 57.89 13.19 C58.87 14.54, 59.75 15.99, 60.51 17.47 C61.27 18.96, 61.92 20.52, 62.43 22.11 C62.95 23.7, 63.34 25.35, 63.61 26.99 C63.87 28.64, 63.93 31.17, 64 32 C64.07 32.83, 64.07 31.17, 64 32" stroke="#000000" stroke-width="2" fill="none"></path></g><g stroke-linecap="round"><g transform="translate(841.0365937497205 566.7694462441852) rotate(0 36.62059201402883 -0.19027867764822304)"><path d="M0 0 C12.21 -0.06, 61.03 -0.32, 73.24 -0.38 M0 0 C12.21 -0.06, 61.03 -0.32, 73.24 -0.38" stroke="#000000" stroke-width="2" fill="none"></path></g><g transform="translate(841.0365937497205 566.7694462441852) rotate(0 36.62059201402883 -0.19027867764822304)"><path d="M73.24 -0.38 L59.68 6.03 L59.61 -6.65 L73.24 -0.38" stroke="none" stroke-width="0" fill="#000000" fill-rule="evenodd"></path><path d="M73.24 -0.38 C68.39 1.91, 63.53 4.21, 59.68 6.03 M73.24 -0.38 C68.91 1.67, 64.58 3.71, 59.68 6.03 M59.68 6.03 C59.67 3.36, 59.65 0.69, 59.61 -6.65 M59.68 6.03 C59.66 2.66, 59.64 -0.71, 59.61 -6.65 M59.61 -6.65 C62.61 -5.27, 65.61 -3.89, 73.24 -0.38 M59.61 -6.65 C64.77 -4.28, 69.93 -1.9, 73.24 -0.38 M73.24 -0.38 C73.24 -0.38, 73.24 -0.38, 73.24 -0.38 M73.24 -0.38 C73.24 -0.38, 73.24 -0.38, 73.24 -0.38" stroke="#000000" stroke-width="2" fill="none"></path></g></g><g stroke-linecap="round"><g transform="translate(914.8888888888893 522) rotate(0 0 50.49999999999997)"><path d="M0 0 C0 16.83, 0 84.17, 0 101 M0 0 C0 16.83, 0 84.17, 0 101" stroke="#000000" stroke-width="2" fill="none"></path></g></g><g stroke-linecap="round"><g transform="translate(918.8333333333331 566.3888888888887) rotate(0 36.05555555555566 -0.5555555555555429)"><path d="M0 0 C12.02 -0.19, 60.09 -0.93, 72.11 -1.11 M0 0 C12.02 -0.19, 60.09 -0.93, 72.11 -1.11" stroke="#000000" stroke-width="2" fill="none"></path></g><g transform="translate(918.8333333333331 566.3888888888887) rotate(0 36.05555555555566 -0.5555555555555429)"><path d="M72.11 -1.11 L58.62 5.44 L58.42 -7.24 L72.11 -1.11" stroke="none" stroke-width="0" fill="#000000" fill-rule="evenodd"></path><path d="M72.11 -1.11 C67.36 1.19, 62.61 3.5, 58.62 5.44 M72.11 -1.11 C69.19 0.31, 66.27 1.73, 58.62 5.44 M58.62 5.44 C58.56 1.62, 58.5 -2.19, 58.42 -7.24 M58.62 5.44 C58.57 2.34, 58.52 -0.76, 58.42 -7.24 M58.42 -7.24 C62.49 -5.42, 66.56 -3.6, 72.11 -1.11 M58.42 -7.24 C63.48 -4.97, 68.55 -2.71, 72.11 -1.11 M72.11 -1.11 C72.11 -1.11, 72.11 -1.11, 72.11 -1.11 M72.11 -1.11 C72.11 -1.11, 72.11 -1.11, 72.11 -1.11" stroke="#000000" stroke-width="2" fill="none"></path></g></g><g stroke-linecap="round" transform="translate(987.3333333333336 536.0555555555554) rotate(0 32 32)"><path d="M64 32 C64 33.67, 63.87 35.36, 63.61 37.01 C63.34 38.65, 62.95 40.3, 62.43 41.89 C61.92 43.48, 61.27 45.04, 60.51 46.53 C59.75 48.01, 58.87 49.46, 57.89 50.81 C56.91 52.16, 55.81 53.45, 54.63 54.63 C53.45 55.81, 52.16 56.91, 50.81 57.89 C49.46 58.87, 48.01 59.75, 46.53 60.51 C45.04 61.27, 43.48 61.92, 41.89 62.43 C40.3 62.95, 38.65 63.34, 37.01 63.61 C35.36 63.87, 33.67 64, 32 64 C30.33 64, 28.64 63.87, 26.99 63.61 C25.35 63.34, 23.7 62.95, 22.11 62.43 C20.52 61.92, 18.96 61.27, 17.47 60.51 C15.99 59.75, 14.54 58.87, 13.19 57.89 C11.84 56.91, 10.55 55.81, 9.37 54.63 C8.19 53.45, 7.09 52.16, 6.11 50.81 C5.13 49.46, 4.25 48.01, 3.49 46.53 C2.73 45.04, 2.08 43.48, 1.57 41.89 C1.05 40.3, 0.66 38.65, 0.39 37.01 C0.13 35.36, 0 33.67, 0 32 C0 30.33, 0.13 28.64, 0.39 26.99 C0.66 25.35, 1.05 23.7, 1.57 22.11 C2.08 20.52, 2.73 18.96, 3.49 17.47 C4.25 15.99, 5.13 14.54, 6.11 13.19 C7.09 11.84, 8.19 10.55, 9.37 9.37 C10.55 8.19, 11.84 7.09, 13.19 6.11 C14.54 5.13, 15.99 4.25, 17.47 3.49 C18.96 2.73, 20.52 2.08, 22.11 1.57 C23.7 1.05, 25.35 0.66, 26.99 0.39 C28.64 0.13, 30.33 0, 32 0 C33.67 0, 35.36 0.13, 37.01 0.39 C38.65 0.66, 40.3 1.05, 41.89 1.57 C43.48 2.08, 45.04 2.73, 46.53 3.49 C48.01 4.25, 49.46 5.13, 50.81 6.11 C52.16 7.09, 53.45 8.19, 54.63 9.37 C55.81 10.55, 56.91 11.84, 57.89 13.19 C58.87 14.54, 59.75 15.99, 60.51 17.47 C61.27 18.96, 61.92 20.52, 62.43 22.11 C62.95 23.7, 63.34 25.35, 63.61 26.99 C63.87 28.64, 63.93 31.17, 64 32 C64.07 32.83, 64.07 31.17, 64 32" stroke="#000000" stroke-width="2" fill="none"></path></g><g stroke-linecap="round"><g transform="translate(1054.3888325280323 567.4964549434565) rotate(0 36.055583735984214 -0.5452059933363671)"><path d="M0 0 C12.02 -0.18, 60.09 -0.91, 72.11 -1.09 M0 0 C12.02 -0.18, 60.09 -0.91, 72.11 -1.09" stroke="#000000" stroke-width="2" fill="none"></path></g><g transform="translate(1054.3888325280323 567.4964549434565) rotate(0 36.055583735984214 -0.5452059933363671)"><path d="M72.11 -1.09 L58.61 5.45 L58.42 -7.22 L72.11 -1.09" stroke="none" stroke-width="0" fill="#000000" fill-rule="evenodd"></path><path d="M72.11 -1.09 C69.36 0.24, 66.61 1.57, 58.61 5.45 M72.11 -1.09 C68.89 0.47, 65.66 2.04, 58.61 5.45 M58.61 5.45 C58.54 0.64, 58.47 -4.18, 58.42 -7.22 M58.61 5.45 C58.57 2.73, 58.53 0.01, 58.42 -7.22 M58.42 -7.22 C63.7 -4.86, 68.97 -2.5, 72.11 -1.09 M58.42 -7.22 C62.77 -5.27, 67.12 -3.32, 72.11 -1.09 M72.11 -1.09 C72.11 -1.09, 72.11 -1.09, 72.11 -1.09 M72.11 -1.09 C72.11 -1.09, 72.11 -1.09, 72.11 -1.09" stroke="#000000" stroke-width="2" fill="none"></path></g></g><g stroke-linecap="round"><g transform="translate(1129.3333333333335 520.8888888888889) rotate(0 0 50.49999999999997)"><path d="M0 0 C0 16.83, 0 84.17, 0 101 M0 0 C0 16.83, 0 84.17, 0 101" stroke="#000000" stroke-width="2" fill="none"></path></g></g><g stroke-linecap="round"><g transform="translate(682.8333333333334 568.0555555555554) rotate(0 37.180804135071526 -0.6830990696281276)"><path d="M0 0 C12.39 -0.23, 61.97 -1.14, 74.36 -1.37 M0 0 C12.39 -0.23, 61.97 -1.14, 74.36 -1.37" stroke="#000000" stroke-width="2" fill="none"></path></g><g transform="translate(682.8333333333334 568.0555555555554) rotate(0 37.180804135071526 -0.6830990696281276)"><path d="M74.36 -1.37 L60.89 5.22 L60.65 -7.45 L74.36 -1.37" stroke="none" stroke-width="0" fill="#000000" fill-rule="evenodd"></path><path d="M74.36 -1.37 C70.28 0.63, 66.21 2.62, 60.89 5.22 M74.36 -1.37 C70.42 0.56, 66.49 2.48, 60.89 5.22 M60.89 5.22 C60.82 1.8, 60.76 -1.63, 60.65 -7.45 M60.89 5.22 C60.83 2.34, 60.78 -0.54, 60.65 -7.45 M60.65 -7.45 C63.62 -6.14, 66.59 -4.82, 74.36 -1.37 M60.65 -7.45 C63.59 -6.15, 66.52 -4.85, 74.36 -1.37 M74.36 -1.37 C74.36 -1.37, 74.36 -1.37, 74.36 -1.37 M74.36 -1.37 C74.36 -1.37, 74.36 -1.37, 74.36 -1.37" stroke="#000000" stroke-width="2" fill="none"></path></g></g><g stroke-linecap="round"><g transform="translate(1126.6666666666665 600.2777777777778) rotate(0 -140 76.11111111111114)"><path d="M0 0 C-46.67 25.37, -233.33 126.85, -280 152.22 M0 0 C-46.67 25.37, -233.33 126.85, -280 152.22" stroke="#000000" stroke-width="2" fill="none"></path></g><g transform="translate(1126.6666666666665 600.2777777777778) rotate(0 -140 76.11111111111114)"><path d="M-280 152.22 L-271.08 140.16 L-265.03 151.3 L-280 152.22" stroke="none" stroke-width="0" fill="#000000" fill-rule="evenodd"></path><path d="M-280 152.22 C-278.17 149.75, -276.34 147.28, -271.08 140.16 M-280 152.22 C-277.95 149.44, -275.89 146.66, -271.08 140.16 M-271.08 140.16 C-268.81 144.34, -266.54 148.52, -265.03 151.3 M-271.08 140.16 C-269.77 142.58, -268.46 144.99, -265.03 151.3 M-265.03 151.3 C-268.81 151.53, -272.58 151.76, -280 152.22 M-265.03 151.3 C-269.21 151.56, -273.39 151.81, -280 152.22 M-280 152.22 C-280 152.22, -280 152.22, -280 152.22 M-280 152.22 C-280 152.22, -280 152.22, -280 152.22" stroke="#000000" stroke-width="2" fill="none"></path></g></g><g transform="translate(10 306.8333333333333) rotate(0 87.5 12.5)"><text x="0" y="18" font-family="Virgil, Segoe UI Emoji" font-size="20px" fill="#000000" text-anchor="start" style="white-space: pre;" direction="ltr">llega una persona</text></g><g transform="translate(165.55555555555543 485.72222222222223) rotate(0 62.5 25)"><text x="0" y="18" font-family="Virgil, Segoe UI Emoji" font-size="20px" fill="#000000" text-anchor="start" style="white-space: pre;" direction="ltr">Personas</text><text x="0" y="43" font-family="Virgil, Segoe UI Emoji" font-size="20px" fill="#000000" text-anchor="start" style="white-space: pre;" direction="ltr">haciendo fila</text></g><g transform="translate(355.55555555555554 364.61111111111114) rotate(0 61.611111111111086 10.200515084621046)"><text x="0" y="14.40103016924208" font-family="Virgil, Segoe UI Emoji" font-size="16.32082413539367px" fill="#000000" text-anchor="start" style="white-space: pre;" direction="ltr">Se libera mesa1</text></g><g transform="translate(356.6666666666665 461.27777777777777) rotate(0 62.77777777777777 9.809027777777771)"><text x="0" y="13.618055555555543" font-family="Virgil, Segoe UI Emoji" font-size="15.69444444444444px" fill="#000000" text-anchor="start" style="white-space: pre;" direction="ltr">Se libera mesa2</text></g><g transform="translate(511.111111111111 329.05555555555526) rotate(0 42.5 40)"><text x="0" y="14" font-family="Virgil, Segoe UI Emoji" font-size="15.555555555555564px" fill="#000000" text-anchor="start" style="white-space: pre;" direction="ltr">Tomando </text><text x="0" y="34" font-family="Virgil, Segoe UI Emoji" font-size="15.555555555555564px" fill="#000000" text-anchor="start" style="white-space: pre;" direction="ltr">datos del </text><text x="0" y="54" font-family="Virgil, Segoe UI Emoji" font-size="15.555555555555564px" fill="#000000" text-anchor="start" style="white-space: pre;" direction="ltr">votante en</text><text x="0" y="74" font-family="Virgil, Segoe UI Emoji" font-size="15.555555555555564px" fill="#000000" text-anchor="start" style="white-space: pre;" direction="ltr">mesa 1</text></g><g transform="translate(627.7777777777775 355.72222222222223) rotate(0 58.5 37.5)"><text x="0" y="18" font-family="Virgil, Segoe UI Emoji" font-size="20px" fill="#000000" text-anchor="start" style="white-space: pre;" direction="ltr">Votante </text><text x="0" y="43" font-family="Virgil, Segoe UI Emoji" font-size="20px" fill="#000000" text-anchor="start" style="white-space: pre;" direction="ltr">pasa </text><text x="0" y="68" font-family="Virgil, Segoe UI Emoji" font-size="20px" fill="#000000" text-anchor="start" style="white-space: pre;" direction="ltr">a terminal 1</text></g><g transform="translate(735.5555555555555 329.0555555555555) rotate(0 52.5 25)"><text x="0" y="18" font-family="Virgil, Segoe UI Emoji" font-size="20px" fill="#000000" text-anchor="start" style="white-space: pre;" direction="ltr">Realizando</text><text x="0" y="43" font-family="Virgil, Segoe UI Emoji" font-size="20px" fill="#000000" text-anchor="start" style="white-space: pre;" direction="ltr"> votacion</text></g><g transform="translate(855.5555555555555 365.72222222222234) rotate(0 44.5 25)"><text x="0" y="18" font-family="Virgil, Segoe UI Emoji" font-size="20px" fill="#000000" text-anchor="start" style="white-space: pre;" direction="ltr">Termina </text><text x="0" y="43" font-family="Virgil, Segoe UI Emoji" font-size="20px" fill="#000000" text-anchor="start" style="white-space: pre;" direction="ltr">de votar</text></g><g transform="translate(925.5555555555555 331.3368794326242) rotate(0 72.88888888888891 9.692671394799063)"><text x="0" y="13.38534278959812" font-family="Virgil, Segoe UI Emoji" font-size="15.508274231678497px" fill="#000000" text-anchor="start" style="white-space: pre;" direction="ltr">Firmando en mesa 1</text></g><g transform="translate(510.83333333333326 440.27777777777777) rotate(0 42.5 40)"><text x="0" y="14" font-family="Virgil, Segoe UI Emoji" font-size="15.555555555555564px" fill="#000000" text-anchor="start" style="white-space: pre;" direction="ltr">Tomando </text><text x="0" y="34" font-family="Virgil, Segoe UI Emoji" font-size="15.555555555555564px" fill="#000000" text-anchor="start" style="white-space: pre;" direction="ltr">datos del </text><text x="0" y="54" font-family="Virgil, Segoe UI Emoji" font-size="15.555555555555564px" fill="#000000" text-anchor="start" style="white-space: pre;" direction="ltr">votante en</text><text x="0" y="74" font-family="Virgil, Segoe UI Emoji" font-size="15.555555555555564px" fill="#000000" text-anchor="start" style="white-space: pre;" direction="ltr">mesa 2</text></g><g transform="translate(648.1666666666666 626.7663817663815) rotate(0 45.5 27)"><text x="0" y="13" font-family="Virgil, Segoe UI Emoji" font-size="14.491927825261172px" fill="#000000" text-anchor="start" style="white-space: pre;" direction="ltr">Votante </text><text x="0" y="31" font-family="Virgil, Segoe UI Emoji" font-size="14.491927825261172px" fill="#000000" text-anchor="start" style="white-space: pre;" direction="ltr">pasa </text><text x="0" y="49" font-family="Virgil, Segoe UI Emoji" font-size="14.491927825261172px" fill="#000000" text-anchor="start" style="white-space: pre;" direction="ltr">a terminal 2</text></g><g transform="translate(747.4999999999999 470.8333333333334) rotate(0 52.5 25)"><text x="0" y="18" font-family="Virgil, Segoe UI Emoji" font-size="20px" fill="#000000" text-anchor="start" style="white-space: pre;" direction="ltr">Realizando</text><text x="0" y="43" font-family="Virgil, Segoe UI Emoji" font-size="20px" fill="#000000" text-anchor="start" style="white-space: pre;" direction="ltr"> votacion</text></g><g transform="translate(872.1666666666666 470.8333333333333) rotate(0 44.5 25)"><text x="0" y="18" font-family="Virgil, Segoe UI Emoji" font-size="20px" fill="#000000" text-anchor="start" style="white-space: pre;" direction="ltr">Termina </text><text x="0" y="43" font-family="Virgil, Segoe UI Emoji" font-size="20px" fill="#000000" text-anchor="start" style="white-space: pre;" direction="ltr">de votar</text></g><g transform="translate(973.6666666666664 503.61111111111114) rotate(0 76.5 10)"><text x="0" y="14" font-family="Virgil, Segoe UI Emoji" font-size="15.508274231678497px" fill="#000000" text-anchor="start" style="white-space: pre;" direction="ltr">Firmando en mesa 2</text></g><g transform="translate(729.9999999999999 797.9444444444446) rotate(0 145.5 12.5)"><text x="0" y="18" font-family="Virgil, Segoe UI Emoji" font-size="20px" fill="#000000" text-anchor="start" style="white-space: pre;" direction="ltr">mesa 2 esperando a votante</text></g><g transform="translate(705.1666666666666 9.999999999999986) rotate(0 141.5 12.5)"><text x="0" y="18" font-family="Virgil, Segoe UI Emoji" font-size="20px" fill="#000000" text-anchor="start" style="white-space: pre;" direction="ltr">mesa 1 esperando a votante</text></g><g transform="translate(1121.1111111111113 280.16666666666674) rotate(0 142 12.5)"><text x="0" y="18" font-family="Virgil, Segoe UI Emoji" font-size="20px" fill="#000000" text-anchor="start" style="white-space: pre;" direction="ltr">votante se retira de mesa 1</text></g><g transform="translate(1142.4444444444443 554.4444444444443) rotate(0 146.5 12.5)"><text x="0" y="18" font-family="Virgil, Segoe UI Emoji" font-size="20px" fill="#000000" text-anchor="start" style="white-space: pre;" direction="ltr">votante se retira de mesa 2</text></g></svg>